<svg viewBox="-25 -25 50 50" width="50" height="50" style="background-color: rgb(255, 255, 255);"><path d="M-5.371835805478416,11.100801417203783L-4.766962789373033,7.872883069656944L-4.754985643159194,6.016446934637701z" style="fill:rgb(172,172,172);fill-opacity:1"></path><path d="M4.70420417718195,6.879717078029392L4.8765573656393375,7.936628338975124L5.8885092850928356,14.142150032973223z" style="fill:rgb(0,0,0);fill-opacity:1"></path><path d="M-0.570250419441666,4.333942994466303L1.3847665311373267,4.5801799214046355L0.960446677974607,-5.835626086886373z" style="fill:rgb(172,172,172);fill-opacity:1"></path><path d="M0.5478618048198494,4.338635442814943L-0.9682453589723824,-5.83910759115722L-1.3546102410282652,4.578967941854516z" style="fill:rgb(188,188,188);fill-opacity:1"></path><path d="M-1.5150550589015033,4.647656820433367L-0.3441676911958581,4.411574525142799L-0.9130659198747355,-5.840069526881432zM-0.8803220668859097,-5.839846680085053L-2.0873494765989147,5.18472022038046L-0.6397654271554223,4.1831228213556795z" style="fill:rgb(200,200,200);fill-opacity:1"></path><path d="M1.8848463645063085,-5.760969531313207L0.6266408039718478,4.978261727358409L1.1442590058385638,4.078531706844779zM0.46558411938244393,4.3544932158880885L2.183119886851172,5.010368421442727L1.8421904417851973,-5.760203191484482z" style="fill:rgb(151,151,151);fill-opacity:1"></path><path d="M5.959644997463167,13.974273944110156L4.660733620356915,6.022249306289325L4.829149017805925,7.872002817604674z" style="fill:rgb(0,0,0);fill-opacity:1"></path><path d="M-2.4420957293402528,5.174616468661365L-1.2195312664594575,4.603886119695884L-1.7957684715887938,-5.7633540302182364zM-1.7625585858664499,-5.763886719892187L-2.7823604560607516,5.73543783745301L-1.6909520307719472,4.5338805886273175z" style="fill:rgb(207,207,207);fill-opacity:1"></path><path d="M2.695588004020823,-5.695483091720445L1.3221196427388051,5.201765682382494L2.268893458506032,4.575510224653185zM1.498390684532608,4.664888722785166L2.9002226383844736,5.6023790785378775L2.666463342625887,-5.6951918379586814z" style="fill:rgb(121,121,121);fill-opacity:1"></path><path d="M-3.2652119025035113,5.947680759998002L-2.0370224704594415,4.997949189231406L-3.0919071503139754,-5.664970403697008z" style="fill:rgb(211,211,211);fill-opacity:1"></path><path d="M3.064948315637639,-5.666691255380474L1.9882222716411193,5.512268918041622L3.3409445664633015,5.435071265306286z" style="fill:rgb(72,72,72);fill-opacity:1"></path><path d="M-3.058873204729102,-5.667384986653252L-3.354583267997715,6.425139663183282L-2.675819327142885,5.164556430041492z" style="fill:rgb(211,211,211);fill-opacity:1"></path><path d="M2.5026372710881697,5.267232263860378L3.5364556444132824,6.321694279572248L3.050156451989378,-5.66662605442607z" style="fill:rgb(72,72,72);fill-opacity:1"></path><path d="M1.4832339323204566,-5.290219747796073L-0.5258802756301689,-5.471408650074679L-0.046234868352870884,4.897666390830162z" style="fill:rgb(172,172,172);fill-opacity:1"></path><path d="M0.07339112316244267,4.898575735520862L0.4208837625139482,-5.696039754349116L-1.4054252240796934,-5.066499023684662z" style="fill:rgb(188,188,188);fill-opacity:1"></path><path d="M-4.031057683887989,6.964280123835623L-2.8275187989966377,5.570834592739482L-3.3717784496028083,-5.583970986424275z" style="fill:rgb(211,211,211);fill-opacity:1"></path><path d="M2.3678565885872653,-5.216268203411086L0.3877093229056271,-5.384408993896914L0.8140196806781632,5.010016946670273z" style="fill:rgb(151,151,151);fill-opacity:1"></path><path d="M3.5607013773916547,-5.538098921927947L2.6655997739566635,5.844650711154947L4.199834306935676,6.690797399907986z" style="fill:rgb(0,0,0);fill-opacity:1"></path><path d="M-0.3490035656822701,-5.380937291909347L-2.325501085240536,-5.220866446127422L-1.7302608448881966,5.319978034157224z" style="fill:rgb(200,200,200);fill-opacity:1"></path><path d="M3.4112624241550624,6.158012471089169L4.049889066093594,7.115541377807517L3.5524199807789296,-5.538704411685407z" style="fill:rgb(0,0,0);fill-opacity:1"></path><path d="M3.1953337314852326,-5.153093700194868L1.2741900490456912,-5.304734809520595L1.6479353605039297,5.3193091472073855z" style="fill:rgb(121,121,121);fill-opacity:1"></path><path d="M-5.219234732114016,10.112772660054112L-4.653067733736091,6.022992982537908L-6.0183725611563075,14.967516516589509z" style="fill:rgb(172,172,172);fill-opacity:1"></path><path d="M-4.038129906184424,-5.33027337915284L-3.7982588255240364,7.191956407924762L-3.6180863476680973,6.081585317987082z" style="fill:rgb(211,211,211);fill-opacity:1"></path><path d="M-1.239909911866933,-5.302041172784564L-3.156208806661656,-5.157297394011788L-2.499847643796429,5.811111761477153z" style="fill:rgb(207,207,207);fill-opacity:1"></path><path d="M-2.423780725037846,5.813268890404738L-2.323180830211832,-5.592030140032181L-3.401762287149163,-4.772037157870857z" style="fill:rgb(211,211,211);fill-opacity:1"></path><path d="M3.5985639411376775,-5.128747795393205L2.106737412629008,-5.234414524067797L2.443395681943447,5.812344924532143z" style="fill:rgb(72,72,72);fill-opacity:1"></path><path d="M-3.4693610477079435,6.262671443961355L-4.5614792166547256,-5.04882864140553L-4.456966850970545,7.935941507562806z" style="fill:rgb(207,207,207);fill-opacity:1"></path><path d="M4.543280419356301,-5.0490280586559635L3.3009642893180424,6.4259322701880235L4.643530668981708,7.7728693240715865z" style="fill:rgb(0,0,0);fill-opacity:1"></path><path d="M1.9068761343351648,-4.749695403858405L-0.9957496540710249,-5.018259168836401L-0.000005393490721372629,-4.926127526825609z" style="fill:rgb(210,210,210);fill-opacity:1"></path><path d="M-2.5360727893255453,-5.290240488989676L-3.890218695391357,-4.960972648920145L-3.1649818626359445,6.455202880858646z" style="fill:rgb(211,211,211);fill-opacity:1"></path><path d="M3.18357609788178,6.45656654274301L3.6933617180609875,-5.475839070845313L2.714308659890161,-4.776759956735383z" style="fill:rgb(72,72,72);fill-opacity:1"></path><path d="M4.095321056255946,-4.922576843264358L2.8704717884520092,-5.200043558030118L3.145155144210637,6.4551648116348295z" style="fill:rgb(0,0,0);fill-opacity:1"></path><path d="M-4.623153764586499,8.38166925590534L-3.984651413285558,7.0506691788817175L-4.53089609085649,-5.049797042862352z" style="fill:rgb(200,200,200);fill-opacity:1"></path><path d="M4.508895855312759,-5.049977868832185L3.73591551926346,7.6816387427966974L4.893857983410602,7.750869743445209z" style="fill:rgb(0,0,0);fill-opacity:1"></path><path d="M-4.517363837868936,-5.050313780020674L-4.599359328280676,8.737149047032238L-4.332331130608594,7.432397209984106z" style="fill:rgb(200,200,200);fill-opacity:1"></path><path d="M4.502966565298787,-5.050216330224192L4.133217733823102,8.345993173572404L4.812837968613962,7.823444859132473z" style="fill:rgb(0,0,0);fill-opacity:1"></path><path d="M-2.8744474415707,-5.2699763987547925L-4.510526955829104,-4.643616054152567L-3.6807380099541867,7.07688573210182z" style="fill:rgb(211,211,211);fill-opacity:1"></path><path d="M3.7756539307982413,7.193710602938754L4.440119842041768,-5.1013075502945915L3.119294182405142,-4.767733070785417z" style="fill:rgb(0,0,0);fill-opacity:1"></path><path d="M-3.6986837937633665,7.191996898849783L-3.7534630051945204,-5.2538106711252475L-4.826525609130161,-4.124705505704429z" style="fill:rgb(207,207,207);fill-opacity:1"></path><path d="M5.003088395363882,-4.303707368131558L3.5625201122341066,-5.0742376057575385L3.713031827419011,7.191404266082893zM5.623251018208546,14.121821220089451L6.069453702239522,13.0053963721336L4.686913637653912,6.88400244112225z" style="fill:rgb(0,0,0);fill-opacity:1"></path><path d="M-6.022998573256563,14.966792584195954L-5.406311923725487,11.185138790654541L-5.070195102114249,9.123996569428813z" style="fill:rgb(181,181,181);fill-opacity:1"></path><path d="M7.9488428011427175,-3.0566570334950187L12.487001941360681,0.9838361888782323L11.01236391108243,-0.6213247476198416z" style="fill:rgb(204,204,204);fill-opacity:1"></path><path d="M-5.071315778069933,-4.590437260161273L-4.724955401340584,9.310819398916589L-4.43941031560676,7.7455065592602015z" style="fill:rgb(188,188,188);fill-opacity:1"></path><path d="M4.794552281084726,9.296978380476041L5.0676040039133845,-4.59062304100433L4.373492667531734,7.7595233933633825z" style="fill:rgb(0,0,0);fill-opacity:1"></path><path d="M-3.972102962601134,-4.226398935867078L-2.639128280025385,-4.906122525782527L-7.015971883092316,-3.544293882506985z" style="fill:rgb(140,140,140);fill-opacity:1"></path><path d="M-11.757221276819315,0.0386528324191997L-9.15718126463804,-1.5008352187709875L-8.122338369724465,-3.195791129187443z" style="fill:rgb(37,37,37);fill-opacity:1"></path><path d="M-2.514101828124742,-5.035930437317165L-4.2734095863847354,-4.8734509771968115L-4.158825760290516,-3.545901367360812z" style="fill:rgb(211,211,211);fill-opacity:1"></path><path d="M-4.644961170584744,6.024253080470559L-5.875139932604953,12.982682095088297L-5.926348373901848,14.97473996917815z" style="fill:rgb(172,172,172);fill-opacity:1"></path><path d="M-4.089291059934902,-4.842118799860727L-5.2965771647246225,-4.007418242938771L-4.510281907562054,8.740936507223832z" style="fill:rgb(200,200,200);fill-opacity:1"></path><path d="M4.530348678946605,8.741742704451816L5.2836952300054305,-4.584505008514177L4.082073660492449,-4.26585882943698z" style="fill:rgb(0,0,0);fill-opacity:1"></path><path d="M5.182490199816974,-4.296731713231022L10.133313496249942,-1.0523029925583138L8.803278683366699,-2.54163110228459z" style="fill:rgb(200,200,200);fill-opacity:1"></path><path d="M-4.4494987602838885,-3.853270175893006L-3.093623846822074,-4.722060127767046L-7.027653079878361,-3.612696604166184z" style="fill:rgb(140,140,140);fill-opacity:1"></path><path d="M-9.605283731448734,-1.9784649219675101L-5.998760727723635,-2.820254813473155L-5.661881681718588,-4.581636925634575z" style="fill:rgb(106,106,106);fill-opacity:1"></path><path d="M-11.054743559585066,-0.6757496320490186L-12.483082553399056,0.9860233242955166L-8.548973639448564,-2.2609535205917837z" style="fill:rgb(37,37,37);fill-opacity:1"></path><path d="M7.2308581911163685,-2.524347414470488L6.262519188641523,-4.1459946338878115L2.625436233253296,-4.835609245934349z" style="fill:rgb(192,192,192);fill-opacity:1"></path><path d="M-7.020292711092427,-3.6340093500945923L-4.099457537125604,-3.369839882370109L-4.301094046708135,-4.653902907094136z" style="fill:rgb(140,140,140);fill-opacity:1"></path><path d="M-4.485553206791958,8.741277845326797L-4.763224540671031,-4.788217677721166L-5.167603275773278,-3.6026037692552455z" style="fill:rgb(188,188,188);fill-opacity:1"></path><path d="M5.3852372026303135,-3.7046243244196737L4.5400039534559316,-4.685897712612686L4.491106973565828,8.740958646793631z" style="fill:rgb(0,0,0);fill-opacity:1"></path><path d="M8.016376053471626,-3.1269638160240305L9.28041651169039,-1.593330979179798L12.534386664767988,0.930244446411451z" style="fill:rgb(204,204,204);fill-opacity:1"></path><path d="M7.404602705348051,-2.734479081917052L2.662383469769643,-4.965222227760633L4.007639864122823,-4.330094260257595z" style="fill:rgb(192,192,192);fill-opacity:1"></path><path d="M13.215693531509894,1.7197671242284653L15.722937877029,7.65539983049478L14.985681722358681,5.17668078786947z" style="fill:rgb(213,213,213);fill-opacity:1"></path><path d="M-15.429554400632094,6.057235558332962L-13.818338918875751,4.1820203039604475L-13.36816281634553,1.6761725430481547z" style="fill:rgb(0,0,0);fill-opacity:1"></path><path d="M-8.871419496246004,-2.6637069728939196L-10.109579607004672,-1.0374411413337035L-5.585545915528276,-3.5424447827335808z" style="fill:rgb(106,106,106);fill-opacity:1"></path><path d="M7.410186119225132,-2.7467843118147646L3.111122528918148,-4.772743410085956L4.4968897708690845,-4.021478537699509z" style="fill:rgb(192,192,192);fill-opacity:1"></path><path d="M-4.908284913586052,-4.573477401290433L-5.184157215887874,-3.6086070568523936L-4.646683014736569,9.3144169221901z" style="fill:rgb(181,181,181);fill-opacity:1"></path><path d="M4.647640504561359,9.314516066861461L5.060567031963818,-4.590881289897794L5.0308844103199695,-3.591322243277398z" style="fill:rgb(0,0,0);fill-opacity:1"></path><path d="M-7.033281872879154,-3.8206503173228357L-4.185931599547066,-3.136687862078578L-4.721861713514634,-4.241357026231371z" style="fill:rgb(140,140,140);fill-opacity:1"></path><path d="M5.353829560578702,-4.498638290433152L6.322958984972153,-2.9421698322811634L10.227704467684205,-1.1961228400928556z" style="fill:rgb(200,200,200);fill-opacity:1"></path><path d="M-6.24035542902202,-4.381412151881889L-7.234622217947599,-2.53199013412313L-4.10766072246139,-3.6446748293880895z" style="fill:rgb(140,140,140);fill-opacity:1"></path><path d="M16.042043767224307,8.4856358649243L15.827613286086946,14.977766819097567L16.10970510609855,12.262516290376649z" style="fill:rgb(206,206,206);fill-opacity:1"></path><path d="M3.6502431862087716,-4.550709464827215L4.782691401345897,-3.644262368944737L7.4353321651538815,-2.815758825658243z" style="fill:rgb(192,192,192);fill-opacity:1"></path><path d="M11.17944333712149,-0.5133542281337466L14.492843661829973,4.981260970097251L13.793458367844451,2.5347886535468147z" style="fill:rgb(217,217,217);fill-opacity:1"></path><path d="M-15.091008329104143,5.111167777787396L-15.727124363844979,7.651960888908748L-13.530831971091866,3.2471479711821285zM-14.360533194793566,3.2901885258929506L-11.686588028008734,1.9372070495762017L-11.491484237375317,-0.608447878248414zM-16.158753641278217,13.25111941978001L-15.658375211925685,11.264163390366782L-16.135534064394836,8.496106890447033z" style="fill:rgb(0,0,0);fill-opacity:1"></path><path d="M13.304663453133864,1.6843880003418017L13.964638044712006,4.124168853309551L15.803548041003983,7.620574610334147z" style="fill:rgb(213,213,213);fill-opacity:1"></path><path d="M4.0793778028517895,-4.381573448406273L4.849808125576196,-3.225909846047359L7.459311384488153,-2.944189621715949z" style="fill:rgb(192,192,192);fill-opacity:1"></path><path d="M8.632129101300913,-2.3526559310894646L12.634007282604909,2.5520714708551107L11.986786814257343,0.12408584262037808z" style="fill:rgb(217,217,217);fill-opacity:1"></path><path d="M-4.6659907133310545,-3.164356811546876L-4.4646306596001155,-4.321432423215278L-7.430766482988468,-2.856692510616028z" style="fill:rgb(151,151,151);fill-opacity:1"></path><path d="M-16.2273881561825,12.248874617074515L-15.833034667632898,14.97733070403764L-15.744117342749124,10.279728959221373z" style="fill:rgb(0,0,0);fill-opacity:1"></path><path d="M15.188048028674602,5.740159334201424L15.88648846823019,12.261737921416554L16.191032231981293,9.46883035639808z" style="fill:rgb(216,216,216);fill-opacity:1"></path><path d="M-13.94337227497375,2.37376363782037L-14.495469829228771,4.969211663647828L-11.39859756189655,1.0659844146378394z" style="fill:rgb(0,0,0);fill-opacity:1"></path><path d="M-12.612835284978559,0.7696854710729695L-9.097651703699396,0.047814307421197355L-9.058399295027643,-2.5034177604381203z" style="fill:rgb(93,93,93);fill-opacity:1"></path><path d="M-4.479052605867296,-2.6992516320245L-4.642338991972866,-4.362030805533738L-7.417846628151882,-2.926757009081023z" style="fill:rgb(160,160,160);fill-opacity:1"></path><path d="M5.417513208543475,13.105884425986517L5.994657325656452,14.970586457916005L5.9643366261079285,12.047900350313673z" style="fill:rgb(0,0,0);fill-opacity:1"></path><path d="M16.09978087027382,8.48794706218522L15.793783780488713,11.263204375862793L15.887068043161317,14.979274053152276z" style="fill:rgb(206,206,206);fill-opacity:1"></path><path d="M11.380006766886572,-0.618917036573453L11.919915392099604,1.8202840141902124L14.663314578063398,4.875994040752312z" style="fill:rgb(217,217,217);fill-opacity:1"></path><path d="M-16.48241985614237,10.343493781852475L-14.703162853431989,8.66370678096468L-15.42110728902789,5.760187486885643z" style="fill:rgb(0,0,0);fill-opacity:1"></path><path d="M5.672308562315076,-3.6993812462640974L10.206444082138578,0.49089272884462076L9.625474135469872,-1.9310110155111158z" style="fill:rgb(213,213,213);fill-opacity:1"></path><path d="M-10.276866152201642,-1.375781090682335L-6.1012601030830345,-1.377902256268321L-6.183605744973582,-3.9110964496232508z" style="fill:rgb(133,133,133);fill-opacity:1"></path><path d="M5.253755677174191,12.422604348052197L5.400481418725161,14.50332983886845L16.881113835680488,14.023082735357416zM-16.881623444797242,14.048855710019021L-5.164944634582603,14.439339103738092L-5.488811107091877,12.460815649748314z" style="fill:rgb(181,181,181);fill-opacity:1"></path><path d="M-7.489821077664825,-3.1464899122957646L-3.8456061431764677,-2.6581068994162482L-4.962215625375138,-3.5357088307840474z" style="fill:rgb(160,160,160);fill-opacity:1"></path><path d="M-12.126937123008124,-0.09249706330489424L-12.625387913610362,2.528577563890682L-8.799722023179307,-0.7518966685376073z" style="fill:rgb(93,93,93);fill-opacity:1"></path><path d="M7.143315642217247,-0.9896154310897551L6.920906399368489,-3.676127441742176L4.175618144671141,-3.9202336774217943z" style="fill:rgb(206,206,206);fill-opacity:1"></path><path d="M4.848396058413241,11.438836158094915L5.436657065481459,13.44085340179629L16.873810037629102,14.114169502180681zM-16.871199608029738,14.14114575652808L-5.184539325970007,13.429451980353086L-5.10315262842445,11.423256671545806z" style="fill:rgb(181,181,181);fill-opacity:1"></path><path d="M7.400225986474165,-1.1118015789940465L4.3400235677282515,-4.314309893015272L5.030884443105697,-3.591321751462379z" style="fill:rgb(208,208,208);fill-opacity:1"></path><path d="M-16.44786384744459,9.329982911560316L-15.904427171878526,12.254071930073952L-14.74275329229075,7.728503319578822z" style="fill:rgb(0,0,0);fill-opacity:1"></path><path d="M13.699004102348471,3.1609941288369434L15.313736573769186,9.546470885784904L15.622484068188042,6.6583500191216105z" style="fill:rgb(222,222,222);fill-opacity:1"></path><path d="M8.932527964215387,-2.548495254566197L9.338091648747259,-0.09067384082621044L12.869940501392596,2.3594864483734614z" style="fill:rgb(217,217,217);fill-opacity:1"></path><path d="M-16.856506909487806,14.216574925568306L-5.01174821686451,12.43199216882485L-4.469483494500076,10.48070872398823z" style="fill:rgb(181,181,181);fill-opacity:1"></path><path d="M7.462352861930757,-1.1836456446299428L4.4796845232915725,-4.408511720036885L4.806946811127917,-3.0708336893981505z" style="fill:rgb(206,206,206);fill-opacity:1"></path><path d="M15.363893558876708,5.725139743115398L15.002472315453959,8.583580124298534L16.06548044784986,12.238692999783215z" style="fill:rgb(216,216,216);fill-opacity:1"></path><path d="M-16.033322409759833,7.395504020359545L-13.287677490159817,6.231835591718218L-14.017921377152444,3.161961228800451z" style="fill:rgb(0,0,0);fill-opacity:1"></path><path d="M-16.84269947688362,14.269696068079734L-4.6486766505722645,11.469715172759956L-3.605604084287673,9.692491668114938z" style="fill:rgb(181,181,181);fill-opacity:1"></path><path d="M-7.487619758604081,-3.3032666478422645L-3.4107360603388663,-2.4611772188178764L-4.763137944835854,-3.065199352280883z" style="fill:rgb(160,160,160);fill-opacity:1"></path><path d="M-9.745347617171861,-2.1666449022229224L-10.176488139212976,0.45435466541922354L-5.7921786675492015,-2.102108331946902z" style="fill:rgb(133,133,133);fill-opacity:1"></path><path d="M-16.83335484785633,14.300443421013352L-4.084528516989539,10.564456684125316L-2.562626118938109,9.10889100833461zM15.955871390539574,14.97562480911798L15.997044652209471,11.244665337151517L14.993994244469242,7.586820600111882zM-15.021687280732753,7.579890301530548L-15.998651992385527,11.251507722519237L-15.926582287461368,14.975704716903007z" style="fill:rgb(181,181,181);fill-opacity:1"></path><path d="M6.058800797370335,-3.997975545276032L6.317118475934745,-1.5103420340621834L10.484911397044641,0.2041779352444344z" style="fill:rgb(213,213,213);fill-opacity:1"></path><path d="M-16.829518159182676,14.312232772303615L-3.3070520706228104,9.758201741835862L-1.4134753146294006,8.748172622774048z" style="fill:rgb(181,181,181);fill-opacity:1"></path><path d="M7.553772329924047,-1.3175495064482605L4.4916719951491775,-4.0374059808730385L4.461944167348758,-2.6603031629692255z" style="fill:rgb(206,206,206);fill-opacity:1"></path><path d="M-7.479371828204638,-3.3599539292866583L-2.977106287427491,-2.434624145860876L-4.3720274687629965,-2.728972447623139zM-6.9033004337052715,-3.7870713130690494L-7.242151243951323,-1.1327469005680657L-3.0198273720430078,-2.712303476722349z" style="fill:rgb(160,160,160);fill-opacity:1"></path><path d="M11.610728893774361,0.8660917523729308L14.102039968081295,6.947592432896939L14.390727755833227,3.955428182532785z" style="fill:rgb(225,225,225);fill-opacity:1"></path><path d="M-15.879835097971544,6.412512296189808L-15.343062022889255,9.523006913701598L-13.253758065556589,5.332036266441378z" style="fill:rgb(0,0,0);fill-opacity:1"></path><path d="M4.686794660951884,12.32667070196144L16.571648544944164,14.533098257121896L12.11059958486064,2.8014072239332477z" style="fill:rgb(181,181,181);fill-opacity:1"></path><path d="M-14.855940497857171,4.582492867851219L-11.347028429584595,4.029035647985881L-11.99311798074634,0.828818226814983z" style="fill:rgb(76,76,76);fill-opacity:1"></path><path d="M13.981868755007294,3.1007426622480745L13.592307361942199,6.063301064439536L15.594204335941576,9.467086588014247z" style="fill:rgb(222,222,222);fill-opacity:1"></path><path d="M4.830949525497673,-3.472627163553126L3.4428035067334104,-2.6104908268658846L7.597486028947128,-1.4214796568843073z" style="fill:rgb(206,206,206);fill-opacity:1"></path><path d="M12.932453166720256,3.3030618567767562L-16.826531911390177,14.320601431314579L-2.309589112940253,9.184951674304147zM4.359092848675242,11.042321232813196L5.4457859835341065,12.865048116217757L12.643509625951062,2.8987481824596535zM-11.548521592675678,2.7697318892020797L-15.433135117920076,8.482284177430946L-16.102649250873704,14.946455356818813zM16.125917652512047,14.943597781350006L15.42813457019152,8.473163923015642L11.530246626537268,2.7817105563881364zM3.5179148510743126,10.267329283913803L4.976315329530558,11.87585449654229L12.713399738254646,2.9655608416077546z" style="fill:rgb(181,181,181);fill-opacity:1"></path><path d="M8.99063015018281,-1.030651075881871L12.275771619571321,4.586472753000566L12.518482023384895,1.4913146596715032z" style="fill:rgb(225,225,225);fill-opacity:1"></path><path d="M4.409298017445426,-3.043562336862626L2.97849834777042,-2.6385820793965005L7.650454212303682,-1.5163619446418346z" style="fill:rgb(206,206,206);fill-opacity:1"></path><path d="M2.5264531219013326,9.640398819234596L4.284283531160167,10.968115293324047L12.780422394768786,3.0421184190596455z" style="fill:rgb(181,181,181);fill-opacity:1"></path><path d="M-14.59943436866034,3.657303152549152L-14.138373143714318,6.901025566364908L-11.226852478598857,3.167510915973491z" style="fill:rgb(76,76,76);fill-opacity:1"></path><path d="M1.4217550863494233,9.191352744848373L3.4022490461569856,10.184658120412523L12.83669088736989,3.119437689797638z" style="fill:rgb(181,181,181);fill-opacity:1"></path><path d="M-13.011851126199522,2.0307355775249323L-8.894039321656003,2.1712592617730913L-9.422032828417326,-1.1173264314459084z" style="fill:rgb(122,122,122);fill-opacity:1"></path><path d="M-2.8238124642555187,-2.419747011324463L-3.949986490124471,-3.0558922764538394L-7.658580932968643,-1.5432487689402274z" style="fill:rgb(175,175,175);fill-opacity:1"></path><path d="M7.6816082911131955,-1.6070324969765317L3.084869555833635,-3.0885688158734705L3.6658726099207355,-2.3233226891327092z" style="fill:rgb(216,216,216);fill-opacity:1"></path><path d="M12.928156739588188,3.2918772652996235L-3.2592860829946533,9.49731731867016L-1.1682766704213505,8.90560774776024zM0.24445003720160008,8.942787862070162L2.3708475961692774,9.564134871246479L12.878253641370257,3.1878795984133816zM12.920620803047125,3.2735281699811534L-2.139699308671787,9.135764387253861L0.03400782583036077,8.875780679269695zM-0.960932268707259,8.907886986121744L1.2346593992421557,9.136547483512373L12.905488778745642,3.2406387668705943z" style="fill:rgb(181,181,181);fill-opacity:1"></path><path d="M11.98201934619045,0.7384227019964151L11.597737627913679,3.8125833260024935L14.457749783482129,6.791065687629842z" style="fill:rgb(225,225,225);fill-opacity:1"></path><path d="M5.939014329938861,-2.4265583761531317L9.89483544468102,2.582449634874538L10.067508461853443,-0.605986248963255z" style="fill:rgb(222,222,222);fill-opacity:1"></path><path d="M-11.40837437568029,2.8502471507427725L-14.017159396915142,5.915844488434548L-15.676860127723378,9.438002631164801zM15.700106720091387,9.426484684277915L14.013027998010875,5.9115462785509925L11.389255874686182,2.866058699699047z" style="fill:rgb(181,181,181);fill-opacity:1"></path><path d="M-10.576902217081797,-0.14185837332102907L-6.008174312218636,0.7716467643910592L-6.407147569246678,-2.569155604745748z" style="fill:rgb(152,152,152);fill-opacity:1"></path><path d="M-12.67079175258355,1.1783376300960104L-12.31236535830682,4.5118337827756685L-8.68997180785134,1.3606478866990404z" style="fill:rgb(122,122,122);fill-opacity:1"></path><path d="M0.8281434369509698,-1.5689868821702115L-12.302704667313646,3.3652978194983643L-16.408940646570667,14.797838628071236zM12.93226089085585,3.667375137739561L-0.10952669269345738,-1.5757522158252626L-16.712067097761135,14.502522071183002z" style="fill:rgb(181,181,181);fill-opacity:1"></path><path d="M9.428098371614649,-1.2407819235548188L9.08142874972815,1.9396856706697834L12.679550903488114,4.3424603576155185z" style="fill:rgb(225,225,225);fill-opacity:1"></path><path d="M-3.367761896834747,-3.156549606886439L-7.679123369187129,-1.8435763580059386L-2.828618718530744,-0.10701445793726083z" style="fill:rgb(175,175,175);fill-opacity:1"></path><path d="M3.386652863097673,-3.1805308544788997L2.847915769236193,-0.023263444895418733L7.6409142503663805,-1.9033837616938036z" style="fill:rgb(216,216,216);fill-opacity:1"></path><path d="M-3.223198705301059,0.24565090812831986L-3.1421460966489327,-3.3734558314420573L-4.2345021245067365,-2.6191363271728942z" style="fill:rgb(175,175,175);fill-opacity:1"></path><path d="M4.399071695172338,-3.131277025204845L2.8117361034046913,-2.850770354435151L3.389016354506286,0.23506476430659723z" style="fill:rgb(216,216,216);fill-opacity:1"></path><path d="M-10.168967625876975,-0.9118555834221074L-9.92378446652159,2.4774144153559208L-5.73022008239516,0.024039117001049826z" style="fill:rgb(152,152,152);fill-opacity:1"></path><path d="M-2.3401526101557515,-2.5672146812905883L-4.0206430337007015,-3.1483182565904486L-3.4617574347366227,0.22250231134792114z" style="fill:rgb(192,192,192);fill-opacity:1"></path><path d="M6.419998163088715,-2.7278474921262506L6.138091289229608,0.5444227734578173L10.322367348989461,2.247692574836301z" style="fill:rgb(222,222,222);fill-opacity:1"></path><path d="M-0.9226507702148722,-0.6567021835509711L4.357261622063224,-2.8580549952606313L2.988479963440777,-2.294912455224716z" style="fill:rgb(206,206,206);fill-opacity:1"></path><path d="M-1.229173482502132,-2.3194505705525414L-3.4996823771343144,-2.9041834952214414L-3.734486544968864,0.12274844291447123z" style="fill:rgb(192,192,192);fill-opacity:1"></path><path d="M-0.9028214339296218,-0.614803789480519L3.9304942504769325,-2.6262500301249507L2.0362022377030238,-2.176459095904967z" style="fill:rgb(206,206,206);fill-opacity:1"></path><path d="M-7.19732286931838,-2.508405700064144L-7.068542326899291,0.9078911324360233L-2.4739166097344008,-0.7551141589742889z" style="fill:rgb(175,175,175);fill-opacity:1"></path><path d="M2.453967259717921,-0.6803221079252356L7.2022165151304405,0.8349374785120776L7.083587509632791,-2.5102792103974783z" style="fill:rgb(216,216,216);fill-opacity:1"></path><path d="M-4.156159521819265,-0.10088807743944994L-0.12577774322853014,-2.2820357833138396L-2.254720919387151,-2.4180070854428344z" style="fill:rgb(193,193,193);fill-opacity:1"></path><path d="M3.0140014655566665,-2.361335779863723L0.8290696687194248,-2.372981316491359L-0.7058806198487506,-0.38323174113210734z" style="fill:rgb(206,206,206);fill-opacity:1"></path><path d="M-5.766150240305992,-0.29462910538996995L-9.60650484422645,1.595536948120186L-12.795522732730145,4.254840997923252zM12.808852461132577,4.238309923316676L9.602400918260477,1.5938639882236483L5.756923210272321,-0.27644696040012484z" style="fill:rgb(181,181,181);fill-opacity:1"></path><path d="M-4.295748295878401,-0.2906463852304243L0.9619222094822326,-2.2785796206726214L-1.128335577785358,-2.1788967958490475z" style="fill:rgb(193,193,193);fill-opacity:1"></path><path d="M1.9105898667207166,-2.3342654267734693L-0.7223824448425917,-2.4946391587139707L-0.12551296106847587,-0.23583374264074902z" style="fill:rgb(206,206,206);fill-opacity:1"></path><path d="M-4.333111460201087,-0.36761652821562263L0.9336694960092449,-2.3877474342048215L-0.000006351815714844555,-2.029626647702391z" style="fill:rgb(207,207,207);fill-opacity:1"></path><path d="M-0.9466238859926406,-0.8682567623906126L4.0222914728761685,-0.19526672825146985L3.7574650007514343,-3.179175753023838z" style="fill:rgb(206,206,206);fill-opacity:1"></path><path d="M0.9566634560298255,-1.3178320571298783L-6.710652303929566,0.013591450736031019L-12.874076783618426,4.123449667530799zM12.883281477626017,4.109207015408885L6.704389747399223,0.012060715775455727L-0.9596193990712747,-1.3020735341071168z" style="fill:rgb(181,181,181);fill-opacity:1"></path><path d="M-4.346416204203366,-0.4596465167133431L0.731679534785994,-0.646772956107176L0.2152882105705422,-2.691298074668893z" style="fill:rgb(192,192,192);fill-opacity:1"></path><path d="M0.989020006617736,-1.1822157662544226L-3.4215506648126928,-0.8332525020055715L-7.5978870382593096,0.4522649247516494zM7.6030096600906685,0.4347097139064192L3.418030417806788,-0.8336470859495688L-0.9906400623888869,-1.1642907315144582z" style="fill:rgb(181,181,181);fill-opacity:1"></path></svg>