<svg viewBox="-25 -25 50 50" width="50" height="50" style="background-color: rgb(255, 255, 255);"><path d="M0.9994801301096352,-8.999570574158524L-2.6608853858437125,-8.941297091772274L-6.2794100403085,-8.700833386929743zM8.817813985612789,-8.395683693488404L5.283183637291823,-8.783674524429474L1.6620522899467665,-8.982131591800858zM0.9978247242190676,-9.031255822898375L-5.285519474208856,-8.805906523999683L-11.228209460798073,-7.9995944660893zM11.225960635639867,-7.980434870337988L7.826854924928321,-8.528871292416987L1.6639997670889264,-9.006814765006617zM-4.28808544336534,-8.874055107965296L-7.826547097871671,-8.520264795659122L-11.223506286359651,-7.962225666221136zM3.5663889671515214,-9.196915640787967L-0.637017530175699,-9.459898588486652L-0.2696255389243078,-6.454426121673379zM11.22743105664237,-8.12600938655162L2.3757987608312625,-9.421162483088205L0.6179096944442153,-6.676121196343944z" style="fill:rgb(181,181,181);fill-opacity:1"></path><path d="M-0.06867282174571909,-8.221312392190491L-0.4698467977180117,5.3609639629081025L1.773560768423128,5.06469385787433z" style="fill:rgb(172,172,172);fill-opacity:1"></path><path d="M-1.4029558655424899,-8.190755383085422L-1.6876627916917173,5.4445066500560735L0.5290187072052741,4.980581378891118z" style="fill:rgb(188,188,188);fill-opacity:1"></path><path d="M1.2671928900332818,-8.192038652859358L0.7509790214219159,5.37963972342242L2.979713342562517,5.247862927574276z" style="fill:rgb(151,151,151);fill-opacity:1"></path><path d="M-2.700180806849377,-8.100864949535676L-2.867743201748657,5.630311469297805L-0.7213128569214093,4.995546940328111z" style="fill:rgb(200,200,200);fill-opacity:1"></path><path d="M-2.125208583231968,-6.783849861016698L0.6385367262891994,-6.756963020826152L0.1601130558732326,-9.85040419200674zM3.3559826898980116,-9.60233097702762L-0.9174380091187355,-6.890419156042766L1.5477600183417746,-6.845451112957986zM-3.5253802808115697,-6.783870344114471L-1.0427058868244574,-6.779207213124027L0.6236169539952269,-9.708622837388365z" style="fill:rgb(181,181,181);fill-opacity:1"></path><path d="M2.5691688618608195,-8.103295915994677L1.9404533482459776,5.498726318070988L4.114207935398648,5.5284975215370356z" style="fill:rgb(121,121,121);fill-opacity:1"></path><path d="M-3.9244068784453328,-7.953045134397022L-3.974554347632124,5.916602909967952L-1.9453545151812324,5.1080930404903535z" style="fill:rgb(207,207,207);fill-opacity:1"></path><path d="M-4.78060948428409,-6.672390908476551L-2.5025749049625654,-6.842874419660688L0.8268779683508826,-9.519182712088783z" style="fill:rgb(181,181,181);fill-opacity:1"></path><path d="M3.8013235522063216,-7.956361440224105L3.0642086520061906,5.714396973296335L5.14301444862244,5.903381908076456z" style="fill:rgb(72,72,72);fill-opacity:1"></path><path d="M15.38931754003715,-6.746333630710845L12.472992169742538,-7.671394454009339L9.260167807836527,-8.33283155642789zM-9.263053726252119,-8.346127907030532L-12.47463567643817,-7.672624715101873L-15.384788114925925,-6.731807019015669z" style="fill:rgb(181,181,181);fill-opacity:1"></path><path d="M-1.8818742710962777,-7.68099896963484L0.05769289635563088,5.686865020959762L0.4976225736711111,-7.738025206202378z" style="fill:rgb(188,188,188);fill-opacity:1"></path><path d="M-0.5512332556123878,-7.733319169649357L1.284756638933915,5.737796487814576L1.8280765667074061,-7.686150703625784z" style="fill:rgb(172,172,172);fill-opacity:1"></path><path d="M-5.0389040599076935,-7.749751705043325L-4.97137425991314,6.299430489824268L-3.111462764694315,5.315238673960746z" style="fill:rgb(211,211,211);fill-opacity:1"></path><path d="M0.9881487839722167,-9.11087780167068L-10.26862340440956,-8.25450596469809L-18.172269965187375,-5.19945255306801z" style="fill:rgb(181,181,181);fill-opacity:1"></path><path d="M-3.174690099395553,-7.56867869776605L-1.1710596933941302,5.737032947460946L-0.833760569810515,-7.730510955932733z" style="fill:rgb(200,200,200);fill-opacity:1"></path><path d="M0.7819036274666218,-7.726475953479264L2.4765601539631303,5.888962948679377L3.1222907361998296,-7.573998118579272z" style="fill:rgb(151,151,151);fill-opacity:1"></path><path d="M11.227384629146776,-8.231585870597414L0.32929147502658984,-7.15571301065075L2.6226279222642326,-7.026441445684297z" style="fill:rgb(181,181,181);fill-opacity:1"></path><path d="M-4.393643949550515,-7.396260733021352L-2.367916062753348,5.887530340515516L-2.131031712580692,-7.665528376472484z" style="fill:rgb(207,207,207);fill-opacity:1"></path><path d="M11.221369073231822,-8.271856780867182L1.6227778684235354,-7.065117050604034L3.846994292037215,-6.839514141060405z" style="fill:rgb(181,181,181);fill-opacity:1"></path><path d="M2.0824618757896562,-7.662325281798422L3.599247815609843,6.137788919707211L4.344231158441674,-7.40143352622268z" style="fill:rgb(121,121,121);fill-opacity:1"></path><path d="M4.078159114320845,5.759754018145068L5.945892754345448,6.624727904806987L5.990696787693772,-7.4946352993293175z" style="fill:rgb(0,0,0);fill-opacity:1"></path><path d="M-6.006111790441,-7.494727523908734L-5.820154867001154,6.771925675028649L-4.1884819989179105,5.612648472502822z" style="fill:rgb(211,211,211);fill-opacity:1"></path><path d="M11.20833107017982,-8.334836210684994L2.8475922141479986,-6.905844123787267L4.968897976798191,-6.58458472801842z" style="fill:rgb(181,181,181);fill-opacity:1"></path><path d="M-5.501514926584443,-7.164117239919413L-3.498975357309546,6.13586676252653L-3.3591305933806233,-7.546496500880067z" style="fill:rgb(211,211,211);fill-opacity:1"></path><path d="M3.315331599396349,-7.544215046104555L4.618512376477249,6.479759219751818L5.456658688020657,-7.1688134074972405z" style="fill:rgb(72,72,72);fill-opacity:1"></path><path d="M-3.783816885637669,-6.7766826063209L0.9322135831616942,-9.304042538836999L-18.204702478676456,-5.331779782652815zM11.181112878033924,-8.426694392568587L3.969311891111413,-6.6760112696205365L5.956265816532114,-6.2635097625848895z" style="fill:rgb(181,181,181);fill-opacity:1"></path><path d="M5.0189350408113755,6.11773498927761L6.6215499989830935,7.200246104804789L6.77537850576825,-7.193209362838745z" style="fill:rgb(0,0,0);fill-opacity:1"></path><path d="M-6.788048969440781,-7.19330510206612L-6.481973396844309,7.323040856506526L-5.145841179277629,5.995035976803247z" style="fill:rgb(207,207,207);fill-opacity:1"></path><path d="M4.548971240773602,6.47783664129371L6.461653462582923,-7.111562760104177L4.461747285089172,-7.140493477322841z" style="fill:rgb(0,0,0);fill-opacity:1"></path><path d="M-6.459348068056351,-6.872581046867911L-4.529841325337979,6.47759314590511L-4.483182595051367,-7.379231695170508z" style="fill:rgb(211,211,211);fill-opacity:1"></path><path d="M11.12983421938309,-8.546869138488686L4.954419489071941,-6.375291853288564L6.777633576481823,-5.8862596882809735zM-9.283879615062702,-8.415581819389297L-14.484235667587644,-7.152478872074374L-18.1118637897389,-5.045865928840716zM18.124028518465852,-5.06758976087837L14.47663927401664,-7.148322852994448L9.279311279906757,-8.398014006431568z" style="fill:rgb(181,181,181);fill-opacity:1"></path><path d="M5.444546850435726,6.906264495397311L7.2435342406083,-6.808703437166108L5.432938489015102,-6.886084109314313z" style="fill:rgb(0,0,0);fill-opacity:1"></path><path d="M-7.2252298131780694,-6.520634189819807L-5.425692170463761,6.90592474997163L-5.470097596417298,-7.173813611234933z" style="fill:rgb(207,207,207);fill-opacity:1"></path><path d="M5.823305038182261,6.539730766769502L7.05787895030404,7.852915300029432L7.338202460447201,-6.852679470120122z" style="fill:rgb(0,0,0);fill-opacity:1"></path><path d="M-7.3473717655577815,-6.8527412560942995L-6.918801523872825,7.935746466673416L-5.953213159502896,6.456961386099694z" style="fill:rgb(200,200,200);fill-opacity:1"></path><path d="M6.170174035105361,7.4116773070340765L7.801436255784993,-6.478281088777396L6.224403114285431,-6.573289595641532z" style="fill:rgb(0,0,0);fill-opacity:1"></path><path d="M-7.749351442517716,-6.102720983766331L-6.151736698838501,7.411265705797001L-6.294925263819567,-6.948438099415521z" style="fill:rgb(200,200,200);fill-opacity:1"></path><path d="M6.481728284893521,7.024710374033585L7.199834444992382,8.554187256097045L7.644231109913942,-6.482558863139943z" style="fill:rgb(0,0,0);fill-opacity:1"></path><path d="M-7.649269227848658,-6.482531331929646L-7.097686698405747,8.585452965739776L-6.57883791354544,6.9934171331805555z" style="fill:rgb(188,188,188);fill-opacity:1"></path><path d="M-4.945960039358457,-6.71553879052573L-2.849695603451108,-7.1047497284397325L-18.21224057834757,-5.378424931931783zM18.067253853134694,-4.959877544515208L16.109667764200925,-6.424033737796978L13.516024726523902,-7.422649038350682zM-13.535118439733735,-7.467114310776774L-16.127449733283633,-6.429522533264287L-18.03037817084215,-4.909923476621806zM-5.905449915850868,-6.413720884992298L-3.971111284835744,-6.937362309429205L-18.21320434502196,-5.3885806187590735z" style="fill:rgb(181,181,181);fill-opacity:1"></path><path d="M6.691721603859237,7.981148158891583L8.09129857435697,-6.155536693159874L6.808810490514003,-6.183769069128959z" style="fill:rgb(0,0,0);fill-opacity:1"></path><path d="M-7.951431500223051,-5.60740465086969L-6.6741961124259195,7.980695933241608L-6.9662030560812385,-6.731448885769168z" style="fill:rgb(188,188,188);fill-opacity:1"></path><path d="M6.97130034243618,7.598081422258178L7.013404700037344,9.24105897612503L7.6636049855502035,-6.094671996208238z" style="fill:rgb(0,0,0);fill-opacity:1"></path><path d="M-7.664291323945334,-6.094645800981252L-6.997404808907795,9.241128618660454L-6.986613895170598,7.59798558449577z" style="fill:rgb(172,172,172);fill-opacity:1"></path><path d="M-6.674277957986516,-6.045823593866819L-4.956097910454954,-6.7296240541340895L-18.21458637652651,-5.406421420463879zM-7.202522285693236,-5.605860072081319L-5.780401185903941,-6.499634665182922L-18.215890408026986,-5.432522840196671z" style="fill:rgb(181,181,181);fill-opacity:1"></path><path d="M6.969462218231794,8.597796794691545L7.859787519634431,-6.044906640586051L7.383698343152585,-5.534647741805532z" style="fill:rgb(0,0,0);fill-opacity:1"></path><path d="M-7.681695707301794,-5.096813870348573L-6.961919531243602,8.597518717049079L-7.569332842473414,-6.482462434400544z" style="fill:rgb(172,172,172);fill-opacity:1"></path><path d="M-18.21631527331075,-5.444691672575921L-6.8630770692254925,-5.037813297600753L-7.000187916000058,-6.34258714962566zM-18.21725088513406,-5.489037902846767L-6.740629937661025,-4.747189512431118L-7.46489689244987,-5.828707451563265zM15.76338553050412,-0.9969520128145699L10.344160276856837,-8.804607940990737L5.856566386074341,-6.136487006867374zM-18.216264297922827,-5.533548850950096L-6.406624524918934,-4.421485852425834L-7.55422989962303,-5.3294633602817925zM15.064723025782428,-0.7873501141908681L17.943830997660953,-5.774014368803048L9.466680803555729,-8.663757020020187zM-18.21380371577529,-5.572328650944803L-5.790394631640993,-4.087033070734355L-7.30756566153878,-4.856190099535754zM-18.210953090260666,-5.601470891638731L-4.878887629027461,-3.7755206382933157L-6.734259381945412,-4.416633519495305zM15.89997127789638,-1.1497812558040907L5.835876436013361,-6.688827922439133L7.267546634260896,-5.844205262082849zM17.835995458293834,-2.628241569413891L18.28871452946639,-4.804712587671587L16.637862066160352,-6.226994748587462zM-16.85049611322824,-6.393250397373706L-18.37056700348488,-4.574800468854331L-17.541508937207457,-2.6918980394449035z" style="fill:rgb(181,181,181);fill-opacity:1"></path><path d="M15.010898388215965,13.245461841362392L16.427594049036475,10.753895343576113L17.849297151547407,-4.592121613202439z" style="fill:rgb(207,207,207);fill-opacity:1"></path><path d="M6.516586284869291,-6.484488980073667L7.46077752324359,-5.32191251044552L15.906796918969894,-1.163487492148307zM7.115397621834285,-6.231417643583884L7.191691105288481,-4.7840462716073375L15.920269456668663,-1.1942678145150882z" style="fill:rgb(181,181,181);fill-opacity:1"></path><path d="M-16.457474018550275,10.755697756345356L-15.033419056127302,13.248522387974969L-16.892630920035376,-3.5967745048544812z" style="fill:rgb(0,0,0);fill-opacity:1"></path><path d="M7.4634201280657235,-5.739347246390819L6.580084252809773,-4.453811358111847L15.938194810135768,-1.2361363220202166z" style="fill:rgb(181,181,181);fill-opacity:1"></path><path d="M-16.14367400319241,11.68860221287296L-16.408812449082372,-2.852829945574121L-18.224886238259337,-4.343037803256162z" style="fill:rgb(0,0,0);fill-opacity:1"></path><path d="M14.390309408780281,-0.8899091167709854L18.378474836546694,-3.461223010530366L17.197306502859682,-6.363212867504516zM-17.328338419433305,-6.4057099241371125L-18.298447273759045,-3.3500945210399427L-14.339305054994306,-0.9585405496288119zM7.307033733893229,-5.178525355066557L5.849191995232357,-4.191909233506237L15.960118748375942,-1.289914095507277z" style="fill:rgb(181,181,181);fill-opacity:1"></path><path d="M15.21459950250112,13.306941655550016L18.073955562236378,-4.5131133557234975L16.590402847307484,-2.680005395384684z" style="fill:rgb(207,207,207);fill-opacity:1"></path><path d="M13.1614976585315,14.70110176769253L15.661991273435914,12.474916956280131L16.961480258539137,-3.588228918699595z" style="fill:rgb(211,211,211);fill-opacity:1"></path><path d="M6.748341492137097,-4.675423232841905L4.899693620053524,-3.913090174209771L15.98064545758939,-1.3499085052408362z" style="fill:rgb(181,181,181);fill-opacity:1"></path><path d="M-15.722387516056111,12.475902618210249L-13.208020493990645,14.708501318700955L-15.055626281936734,-2.6258459588478753z" style="fill:rgb(0,0,0);fill-opacity:1"></path><path d="M5.857900524924547,-4.237204199606759L3.697144378058615,-3.656794160654253L15.996251291207715,-1.4068347159390018zM-18.18619887469923,-5.709492833584585L0.873190144444941,1.0159745516389824L-5.759131660248193,-4.2209498620875845zM4.679443285833742,-3.871751893914899L2.270570722458878,-3.458047063233689L16.006412153790833,-1.4540400310356796z" style="fill:rgb(181,181,181);fill-opacity:1"></path><path d="M-15.280290893886779,13.310282607532455L-14.527507394836224,-2.003376656558909L-17.367959130712023,-3.2221048060116724z" style="fill:rgb(0,0,0);fill-opacity:1"></path><path d="M10.568237199835881,15.99116103198822L14.037786916247512,14.13014300092908L15.173817585387466,-2.6137648574410237z" style="fill:rgb(211,211,211);fill-opacity:1"></path><path d="M14.187154730548716,-1.0857915496278863L17.001489039374057,-2.410496181485109L18.38096234533342,-4.333622299348295zM-18.46618919348735,-4.264224300365097L-16.948757679533063,-2.4188814276087616L-14.154659242235782,-1.146804302487432z" style="fill:rgb(181,181,181);fill-opacity:1"></path><path d="M13.501999444479454,14.863281284238365L17.31230467013315,-3.3965166334571197L14.661313279105153,-1.8227077804113045z" style="fill:rgb(211,211,211);fill-opacity:1"></path><path d="M0.7759711130948819,1.1806054214675845L-4.545565855402742,-4.0517178277638966L-6.759211210508624,-4.247982497487208z" style="fill:rgb(181,181,181);fill-opacity:1"></path><path d="M-14.126028114363134,14.12784961494757L-10.638789514509801,16.00334518710687L-12.301985338470287,-1.7511422810565398z" style="fill:rgb(72,72,72);fill-opacity:1"></path><path d="M0.6996051681525874,1.2601494062112746L-3.07985413332558,-3.927374621661851L-5.553686955536067,-3.934875600317198zM-17.93524605009086,-6.089917005153388L-15.271602887363064,-1.2536192541660938L0.966448923251613,0.7819076774501467zM4.08341682315485,-3.8885326625652126L1.3228894224541974,-3.7583485029504615L-0.4727042954895627,1.409445681474016zM0.533493507828289,1.3823190482551686L-1.3851451402384432,-3.895438671481337L-4.081950317709331,-3.72431586081549zM2.390679194194696,-3.789505550912606L-0.5647505045598855,-3.7580039148050783L-0.15168732508246394,1.4987413006099202zM0.2264298950251474,1.4981411732445875L0.48271683243444885,-3.9068904676866483L-2.3833880920119426,-3.640018870665703z" style="fill:rgb(181,181,181);fill-opacity:1"></path><path d="M-13.619785051275429,14.868320582318846L-11.768994323818255,-1.187562437284864L-15.574864385973378,-2.193419756352153z" style="fill:rgb(72,72,72);fill-opacity:1"></path><path d="M7.284496093669166,17.011358388696355L11.576443973967942,15.601259326879617L12.46499376312131,-1.7383157080204825z" style="fill:rgb(207,207,207);fill-opacity:1"></path><path d="M10.987339930259377,16.249858884387848L15.585422298900895,-2.3334134941167592L11.884828967111426,-1.0393815295843787z" style="fill:rgb(211,211,211);fill-opacity:1"></path><path d="M-11.686852451041604,15.593950998414114L-7.377383156876625,17.02779145208289L-8.710333808815157,-1.0490277678342677z" style="fill:rgb(121,121,121);fill-opacity:1"></path><path d="M3.0822215668073683,-3.941783588295097L-0.8081343847144922,1.0232706805405796L16.007763644848655,-1.623758011128084z" style="fill:rgb(181,181,181);fill-opacity:1"></path><path d="M3.4663933512040686,17.653696554820332L8.370716036305133,16.775306321592005L8.909379808574338,-1.0383907255114966z" style="fill:rgb(200,200,200);fill-opacity:1"></path><path d="M-8.49512170820658,16.762524809963313L-3.577887514224059,17.672834055073395L-4.472632342287438,-0.5913088003811647z" style="fill:rgb(151,151,151);fill-opacity:1"></path><path d="M-11.153670353215075,16.25512008919382L-8.182522821837264,-0.5244868510979688L-12.85699487306669,-1.2826433567802673z" style="fill:rgb(121,121,121);fill-opacity:1"></path><path d="M-0.6381238753916183,17.838490672467078L4.5978474171989685,17.551147979039015L4.695085147049615,-0.5853046339546359z" style="fill:rgb(188,188,188);fill-opacity:1"></path><path d="M7.750516749435366,17.351756431654348L12.910353485906162,-1.394127070461733L8.29750124098806,-0.405115465324327z" style="fill:rgb(207,207,207);fill-opacity:1"></path><path d="M-4.726790525073802,17.533919585989374L0.5139370018304662,17.85798823383659L0.11528429624263146,-0.43019956424159006z" style="fill:rgb(172,172,172);fill-opacity:1"></path><path d="M-15.983502629002965,-1.9039315174120701L-12.325780810620547,-0.6910955250393447L-7.780745402219353,0.1503027914509263zM7.782817597900957,0.16089535992952303L12.328004719818308,-0.6885261491405222L15.979206524123603,-1.9170934617894895z" style="fill:rgb(181,181,181);fill-opacity:1"></path><path d="M-7.955684867279308,17.355911149840782L-3.9551062508775363,-0.09866280326524114L-9.295368312782252,-0.5528838618453z" style="fill:rgb(151,151,151);fill-opacity:1"></path><path d="M3.963382925852276,18.063696167779195L9.378004745538767,-0.6465300821011756L4.071508110687643,0.0005718527376196159z" style="fill:rgb(200,200,200);fill-opacity:1"></path><path d="M-0.9935050293439402,0.6596317125726042L8.773729711456145,0.03547640035499949L16.000352652483908,-1.8306075370332247zM-16.002246244281356,-1.8231175640909134L-8.772232049511922,0.03364381911963925L0.9939009591971637,0.6539743208656529z" style="fill:rgb(181,181,181);fill-opacity:1"></path><path d="M-4.193453927848402,18.065936453105483L0.6190857905183443,0.03207226013440409L-5.080440551526907,-0.0694586230366262z" style="fill:rgb(172,172,172);fill-opacity:1"></path><path d="M-0.11931487168179648,18.310841239308004L5.182581782029862,-0.1555076947471818L-0.5060274484918036,0.12012704485295428z" style="fill:rgb(188,188,188);fill-opacity:1"></path><path d="M-0.9984681068579944,0.6047135089489445L4.56037802939721,0.4362402068248638L9.753416632538766,-0.15208920549584978zM-9.753998957706216,-0.14674888878224995L-4.559963937449383,0.4358658402200655L0.9986363400776147,0.5997475588401429z" style="fill:rgb(181,181,181);fill-opacity:1"></path></svg>