<svg viewBox="-25 -25 50 50" width="50" height="50" style="background-color: rgb(255, 255, 255);"><path d="M0.9995981217529291,-10.56406834994754L-2.6845849584950865,-10.512375317554127L-6.327950159516565,-10.299704152325072zM8.891606418699034,-10.029031037630332L5.330866568934336,-10.372511963829314L1.6854934245169124,-10.548396954564591z" style="fill:rgb(181,181,181);fill-opacity:1"></path><path d="M-0.05425130444556549,-10.441593642495883L-0.48215466724251355,9.403721474640829L2.0905791609091033,9.209249415196089z" style="fill:rgb(172,172,172);fill-opacity:1"></path><path d="M-1.799111262307703,-10.407682251815112L-2.0181520695458897,9.518075970671719L0.5281764500066461,9.094299647193706z" style="fill:rgb(188,188,188);fill-opacity:1"></path><path d="M1.6918418714601828,-10.408893503314031L1.0575402398138045,9.435383622396168L3.60999598741748,9.47048370199657z" style="fill:rgb(151,151,151);fill-opacity:1"></path><path d="M-3.5028369732534608,-10.307449582035115L-3.5117409965544466,9.778881175934417L-1.0400686525767777,9.125258620983276z" style="fill:rgb(200,200,200);fill-opacity:1"></path><path d="M0.9983164097557609,-10.59196325116392L-5.332675972735959,-10.39212953800954L-11.327647585945387,-9.677422493793554zM3.630618154049215,-10.705532379008472L-0.7065654832608721,-11.00134198483499L-0.2403465666652669,-8.76518884234793z" style="fill:rgb(181,181,181);fill-opacity:1"></path><path d="M3.3992749189439286,-10.309758070164303L2.562737176024811,9.610760597586307L5.047886671418464,9.877093901295467z" style="fill:rgb(121,121,121);fill-opacity:1"></path><path d="M11.325896350268826,-9.660464945932251L7.898613793915874,-10.14633244185086L1.6870016326198745,-10.570119015762321z" style="fill:rgb(181,181,181);fill-opacity:1"></path><path d="M-5.124262703609677,-10.14172159154441L-4.922785771568495,10.184655876967485L-2.5775815382961182,9.300510911884794z" style="fill:rgb(207,207,207);fill-opacity:1"></path><path d="M-4.334665723926948,-10.452124240084638L-7.898371645056443,-10.138742145567633L-11.323999195833753,-9.64444103351224z" style="fill:rgb(181,181,181);fill-opacity:1"></path><path d="M5.026906762366688,-10.144904598484885L3.9950152038657487,9.92523980711319L6.363467133825949,10.42675348763654z" style="fill:rgb(72,72,72);fill-opacity:1"></path><path d="M-6.619852562959783,-9.912069790332845L-6.208872085243511,10.731504418186876L-4.0476229677366975,9.617117785253154z" style="fill:rgb(211,211,211);fill-opacity:1"></path><path d="M11.328843066552668,-9.771072718117688L2.3718367471318653,-11.000881624697707L1.050716239854403,-8.905120878694953z" style="fill:rgb(181,181,181);fill-opacity:1"></path><path d="M-2.282306462246411,-9.898984147216995L0.04876139687312303,9.769070107434295L0.49863137274736546,-9.95452859911229z" style="fill:rgb(188,188,188);fill-opacity:1"></path><path d="M-0.5422580252663797,-9.95160180854622L1.592819691742704,9.842781235387088L2.238525215370622,-9.902363984233109z" style="fill:rgb(172,172,172);fill-opacity:1"></path><path d="M-3.9807100358756617,-9.779519714975935L-1.4965948551380532,9.841904229773832L-1.2419642071523722,-9.940536559676989z" style="fill:rgb(200,200,200);fill-opacity:1"></path><path d="M-2.6281384388272024,-9.092919640730782L0.7094370190379404,-9.00016580744472L0.18378772716333952,-11.299968041290347z" style="fill:rgb(181,181,181);fill-opacity:1"></path><path d="M1.1996664506273795,-9.938186333680289L3.0977596712787703,10.062238196708112L3.9379610038834336,-9.783181534381269z" style="fill:rgb(151,151,151);fill-opacity:1"></path><path d="M3.4486686056345097,-11.072457235772399L-0.9647531851195205,-9.229419846187392L1.9347043762340086,-9.044137078394018zM-4.39843504898115,-9.109148974122439L-1.6097481787999246,-9.108707718998726L0.843087318836012,-11.042164283831536z" style="fill:rgb(181,181,181);fill-opacity:1"></path><path d="M-5.59626373584474,-9.592792741959093L-3.005428057029603,10.060578675188314L-2.9436951036955437,-9.861850442188398z" style="fill:rgb(207,207,207);fill-opacity:1"></path><path d="M5.326753009138171,10.183772705732936L7.420765440853588,11.29919851449526L7.932876105908583,-9.62135619789866z" style="fill:rgb(0,0,0);fill-opacity:1"></path><path d="M-7.94292386206801,-9.621165993331024L-7.324743122129629,11.412103539087523L-5.412727571702702,10.070677476573037z" style="fill:rgb(211,211,211);fill-opacity:1"></path><path d="M-6.024900714310541,-8.964430805969224L-3.3969277363911536,-9.176517034096292L0.9467327709763281,-10.854007974492916z" style="fill:rgb(181,181,181);fill-opacity:1"></path><path d="M2.9038832638218097,-9.860146636105265L4.524896068947326,10.424992928118552L5.555741680179774,-9.596526960663219z" style="fill:rgb(121,121,121);fill-opacity:1"></path><path d="M-7.085116456556904,-9.3386572062581L-4.439047959677865,10.422733547088967L-4.566046359682833,-9.720944524048061z" style="fill:rgb(211,211,211);fill-opacity:1"></path><path d="M11.331004741575857,-9.833128024110179L0.7356819693200403,-9.40794037171759L3.4311854548391043,-9.257280715153165z" style="fill:rgb(181,181,181);fill-opacity:1"></path><path d="M4.529853093914609,-9.719900357443032L5.833965753855895,10.926519648560227L7.048016898352171,-9.342227815686657z" style="fill:rgb(72,72,72);fill-opacity:1"></path><path d="M11.327397040935873,-9.874223726636371L2.432277930649359,-9.309091643645491L5.048196964930073,-9.049968578304803z" style="fill:rgb(181,181,181);fill-opacity:1"></path><path d="M6.5378638846434125,10.747005267511666L8.327202882166867,12.122523804796558L9.035076396159349,-9.273465200203148z" style="fill:rgb(0,0,0);fill-opacity:1"></path><path d="M-9.043441800439677,-9.273274153655997L-8.222405764594564,12.214088456452119L-6.634295597935386,10.655249569308953z" style="fill:rgb(207,207,207);fill-opacity:1"></path><path d="M15.546670628582387,-8.563202373095153L12.593793827277755,-9.385123518867974L9.352513590254913,-9.971552668453572zM-9.354763643636858,-9.983350382170395L-12.595101474053553,-9.3863253807574L-15.543112928424645,-8.550202797488906z" style="fill:rgb(181,181,181);fill-opacity:1"></path><path d="M5.76991533870129,10.924255364679745L8.40545306200232,-9.196905683107497L6.04826119637048,-9.342543208107465z" style="fill:rgb(0,0,0);fill-opacity:1"></path><path d="M-8.399650149608046,-9.016977407542962L-5.757172969115608,10.923917862727343L-6.0668064783504345,-9.522133981719598z" style="fill:rgb(211,211,211);fill-opacity:1"></path><path d="M11.313982554443081,-9.957405110005329L4.050245500571905,-9.129766962258145L6.5493336444690105,-8.751299390890454zM0.9907783226037732,-10.662392086480029L-10.359419271008964,-9.903810403726991L-18.37839830523308,-7.184889220245619zM11.262035233645369,-10.120459324013687L5.550669478184496,-8.856074138509507L7.912650838605547,-8.341523002596487z" style="fill:rgb(181,181,181);fill-opacity:1"></path><path d="M7.575764948650999,11.42454181845617L8.955179323035102,13.056910977042351L9.862443435379351,-8.875033555441522z" style="fill:rgb(0,0,0);fill-opacity:1"></path><path d="M-9.86871067549037,-8.874858759237057L-8.852606518670097,13.117839506537523L-7.672070512904987,11.363438492756531z" style="fill:rgb(200,200,200);fill-opacity:1"></path><path d="M-5.031380309784389,-9.07985758218196L0.9740511644277128,-10.7590511933458L-18.401847314897882,-7.282740592664792z" style="fill:rgb(181,181,181);fill-opacity:1"></path><path d="M6.930056062864103,11.557294856890557L9.505490447778707,-8.838978693211972L7.3715402574659015,-9.061506096341699z" style="fill:rgb(0,0,0);fill-opacity:1"></path><path d="M-9.487179407457917,-8.626738665131404L-6.91751732791839,11.556868943532635L-7.402390032732404,-9.273320211064345z" style="fill:rgb(207,207,207);fill-opacity:1"></path><path d="M11.088572076334511,-10.384458245962888L6.905168116154302,-8.459243124407926L9.153485894295752,-7.8352031702594775z" style="fill:rgb(181,181,181);fill-opacity:1"></path><path d="M8.408976497031865,12.211417377074547L9.246456089920922,14.069229356866158L10.36155852487499,-8.43539779745432z" style="fill:rgb(0,0,0);fill-opacity:1"></path><path d="M-10.365341688364133,-8.43525689348774L-9.168698083453041,14.094273793331526L-8.482951340010604,12.186232036642599z" style="fill:rgb(188,188,188);fill-opacity:1"></path><path d="M18.33953925226025,-7.064455318899313L14.616142225274437,-8.923252540101172L9.367654519762551,-10.030113431706605zM-9.371302301567916,-10.04607821890214L-14.622552504238167,-8.927792441501117L-18.32948119149116,-7.043950630303833z" style="fill:rgb(181,181,181);fill-opacity:1"></path><path d="M7.888185847754251,12.311035668821784L10.331126425740344,-8.432269706696996L8.474826198334119,-8.721379926722504z" style="fill:rgb(0,0,0);fill-opacity:1"></path><path d="M-10.286590980226965,-8.16321038069705L-7.875888953277308,12.310541164324462L-8.531658538324441,-8.989944748225128z" style="fill:rgb(200,200,200);fill-opacity:1"></path><path d="M10.754063261812533,-10.636993580059064L8.11980997602382,-7.922310173772052L10.20327778156374,-7.372421355829122zM-6.534562950118443,-8.907644638882868L-4.055472171687655,-9.29090699436078L-18.40501331773629,-7.302519809874713zM10.414386014588414,-10.752863671587555L9.149277737900334,-7.366896391204864L10.84599074590861,-6.972623010424067zM-7.848570862847332,-8.577830218488536L-5.55237585749902,-9.093359287025866L-18.405895570147454,-7.309466939569714z" style="fill:rgb(181,181,181);fill-opacity:1"></path><path d="M8.995599428250905,13.11225529926227L9.157971414604415,15.10340839829508L10.481814951658903,-7.967376309555075z" style="fill:rgb(0,0,0);fill-opacity:1"></path><path d="M-10.482879066598334,-7.967319809150163L-9.133337508616803,15.104583043809736L-9.019169219299085,13.111024153342703z" style="fill:rgb(172,172,172);fill-opacity:1"></path><path d="M8.599059132804355,13.169489218049764L10.828948426121023,-7.9893027889317985L9.305862433555768,-8.32547831408792z" style="fill:rgb(0,0,0);fill-opacity:1"></path><path d="M-10.711946998573051,-7.611754576345602L-8.587040329810772,13.168949191054015L-9.434882664097323,-8.702486499678368z" style="fill:rgb(188,188,188);fill-opacity:1"></path><path d="M18.292549946850237,-6.963049372566532L16.273052773184826,-8.282136204821578L13.64657369385257,-9.165150145231609zM-13.662522790440187,-9.20750249890801L-16.289309808603505,-8.289615565421082L-18.26034381484394,-6.913217658290627zM-8.936441451914693,-8.171130261723818L-6.884367506567265,-8.842615310002651L-18.407903868361004,-7.327758948868257zM-9.737495984090955,-7.6801005625657L-8.010695650517293,-8.553282700620233L-18.41044612485024,-7.360941826438737z" style="fill:rgb(181,181,181);fill-opacity:1"></path><path d="M9.018076748017434,14.110517026307036L10.943175358776468,-7.5599610753336774L9.81689757831052,-7.8462188920131055z" style="fill:rgb(0,0,0);fill-opacity:1"></path><path d="M-10.586789185579194,-6.986913344587876L-9.006520896952356,14.109962672589285L-10.184839602572872,-8.418712269041157z" style="fill:rgb(172,172,172);fill-opacity:1"></path><path d="M-18.41095305584559,-7.380769807571738L-9.794349000501244,-6.938223436410473L-9.28583918210892,-8.435989809198709zM-18.412512122613894,-7.44649885640184L-9.622187212860426,-6.533827310220125L-10.087959980158637,-7.865514347102944zM15.281466208517152,-3.1805672420337574L18.165389991154655,-7.734697079240696L9.534625102247483,-10.290538894591611zM9.854668965109807,-7.224762523213194L15.97391898975719,-3.3298219748631332L10.028876344838213,-10.651218717789739zM-18.409767778313263,-7.520321193145964L-9.22112781114233,-6.139835908490114L-10.329412139030856,-7.236697939239085z" style="fill:rgb(181,181,181);fill-opacity:1"></path><path d="M14.428799093240315,19.427428358040302L15.777766910224473,16.690683380267412L18.06828072888217,-6.749081355830717z" style="fill:rgb(207,207,207);fill-opacity:1"></path><path d="M-18.403437811948816,-7.581597045376997L-8.444390258163843,-5.724746278611351L-10.086330306218565,-6.639688423925282z" style="fill:rgb(181,181,181);fill-opacity:1"></path><path d="M-15.796436104864025,16.692138772099387L-14.444382104832018,19.429346081141187L-17.130070053329348,-5.857786793880776z" style="fill:rgb(0,0,0);fill-opacity:1"></path><path d="M18.087396504837155,-4.79316725895239L18.532961367526646,-6.911588522027527L16.77866897089569,-8.116386203087481zM-17.006965415161226,-8.324754205036434L-18.652764203487084,-6.6168546086650135L-17.73929722461118,-4.879533170365951zM-18.39732993689804,-7.620817071779544L-7.2395028668192305,-5.330964216048104L-9.375360698676166,-6.08695458323302z" style="fill:rgb(181,181,181);fill-opacity:1"></path><path d="M12.634778520075788,21.102447261369996L15.015023992824618,18.615998902569274L17.17341794763027,-5.852701735502707z" style="fill:rgb(211,211,211);fill-opacity:1"></path><path d="M-15.513564658420366,17.638073631457853L-16.625504293653577,-5.153455271217881L-18.46723613802459,-6.459391808561722z" style="fill:rgb(0,0,0);fill-opacity:1"></path><path d="M9.759531419012923,-8.221766606632809L10.108451704963048,-6.7221026887152835L16.074855243089672,-3.455754609797576z" style="fill:rgb(181,181,181);fill-opacity:1"></path><path d="M14.604786349324254,19.475884871685025L18.303512998892025,-6.661818837915248L16.80603538182436,-4.9494449302992125z" style="fill:rgb(207,207,207);fill-opacity:1"></path><path d="M-15.053119363063383,18.61783643179634L-12.666915741491813,21.10679196368816L-15.29034919809962,-4.989368943123482z" style="fill:rgb(0,0,0);fill-opacity:1"></path><path d="M10.269796583941421,-7.687769489562938L9.402746932734159,-6.241243202916732L16.10794326324356,-3.521625739816251zM14.57044424053013,-3.2836283156759354L18.651274489605417,-5.614702185970917L17.378222990472253,-8.28803878641166zM-17.520025227852184,-8.342925021145398L-18.55944256135291,-5.484625635222785L-14.520473931402705,-3.3588186316903297z" style="fill:rgb(181,181,181);fill-opacity:1"></path><path d="M10.128798790252883,22.57348701900842L13.443332188257335,20.47188862772997L15.364281283757187,-4.981867606764657z" style="fill:rgb(211,211,211);fill-opacity:1"></path><path d="M10.113168157277148,-7.0034386065974195L8.489359096234569,-5.884278760263127L16.151810174252194,-3.612097772473842z" style="fill:rgb(181,181,181);fill-opacity:1"></path><path d="M-14.645540516230481,19.478702856820252L-14.756183803284944,-4.39134559267109L-17.595815783327783,-5.45855345987134z" style="fill:rgb(0,0,0);fill-opacity:1"></path><path d="M-13.499767991197412,20.472826138927488L-10.17746006496622,22.580275411802425L-12.515428078454443,-4.207079551218619z" style="fill:rgb(72,72,72);fill-opacity:1"></path><path d="M9.395519228664762,-6.37337529565062L7.245419433086718,-5.502038729934401L16.19143389207464,-3.7171052368964053z" style="fill:rgb(181,181,181);fill-opacity:1"></path><path d="M12.944015884310573,21.237340161967225L17.531302723073008,-5.647697896534202L14.866524053022808,-4.198186643870754z" style="fill:rgb(211,211,211);fill-opacity:1"></path><path d="M-18.38245338513851,-7.68260233886572L0.9375784249819448,-1.6894726778362013L-8.17531757024173,-5.681581180678846zM8.20778538329789,-5.817330295565524L5.612289170652736,-5.151209735341002L16.215857340543703,-3.810651962815277z" style="fill:rgb(181,181,181);fill-opacity:1"></path><path d="M6.9746574542572715,23.726906732445673L11.078298448761938,22.124188799200752L12.617550855847034,-4.198795238730523z" style="fill:rgb(207,207,207);fill-opacity:1"></path><path d="M14.373134721809125,-3.4902667234584848L17.2203935912889,-4.661954137457738L18.639428616818325,-6.457446842487503zM-18.726906941289347,-6.378730541032111L-17.163053040347773,-4.677168086135L-14.342996948279232,-3.553769076236616zM6.595970573901764,-5.3540189924549395L3.628861200395926,-4.879093325410225L16.22721868591256,-3.878147455045534z" style="fill:rgb(181,181,181);fill-opacity:1"></path><path d="M-11.150072220342116,22.12302946782073L-7.038577200073163,23.735577852984434L-8.882515512419253,-3.579256721049447z" style="fill:rgb(121,121,121);fill-opacity:1"></path><path d="M-13.018917361827619,21.24194996613031L-11.981159670284484,-3.6583132891072245L-15.785173342769097,-4.5401520719988016z" style="fill:rgb(72,72,72);fill-opacity:1"></path><path d="M-18.157291714112574,-8.014606239660328L-15.46454758599572,-3.620467307390725L0.973134254978944,-1.8286473914531816z" style="fill:rgb(181,181,181);fill-opacity:1"></path><path d="M3.323400849911779,24.44851128287201L8.009311563431286,23.443293086407884L9.007685214834476,-3.5721577635492765z" style="fill:rgb(200,200,200);fill-opacity:1"></path><path d="M10.5250283190881,22.801957181222L15.777981035376268,-4.68952379330625L12.063966422466239,-3.503352012563199z" style="fill:rgb(211,211,211);fill-opacity:1"></path><path d="M-8.091557833300012,23.439296161455744L-3.399771661718724,24.457961470315244L-4.585760322193423,-3.1701786935429848z" style="fill:rgb(151,151,151);fill-opacity:1"></path><path d="M0.9117819695011037,-1.6236601467838552L-6.5508537022374504,-5.353654904410937L-9.162418113476965,-5.8434112937799885z" style="fill:rgb(181,181,181);fill-opacity:1"></path><path d="M-0.5926485541233505,24.65365393344606L4.405638572188772,24.31557167046197L4.7261267689300785,-3.1660807661915302z" style="fill:rgb(188,188,188);fill-opacity:1"></path><path d="M-4.4921961087171045,24.308759472924717L0.5082735370821042,24.662458342343268L0.07284206827409648,-3.026603927679221z" style="fill:rgb(172,172,172);fill-opacity:1"></path><path d="M0.8789136471790386,-1.5608326427709796L-4.546464828359523,-5.1697843663307275L-7.550057230748747,-5.422177115061969z" style="fill:rgb(181,181,181);fill-opacity:1"></path><path d="M-10.63253847202812,22.807226846343855L-8.35586611350934,-3.063502452954305L-13.035473237712107,-3.725078751659626z" style="fill:rgb(121,121,121);fill-opacity:1"></path><path d="M5.546181005597754,-5.217088840393978L2.1727749343813176,-5.096303625663509L-0.715121039881893,-1.3636551201943283zM0.7620313507034931,-1.4053373434758296L-2.215292875177892,-5.1538241147124815L-5.55057337562278,-5.117886128063504zM3.2100313545494124,-5.119805385573641L-0.5935359859308846,-5.144219379169027L-0.2347085677872263,-1.1653701444554885zM0.3395660999448563,-1.166516355445529L0.4917978123847447,-5.2565340994371486L-3.2131507131609025,-5.00634445431548z" style="fill:rgb(181,181,181);fill-opacity:1"></path><path d="M7.426700356541853,24.042220681438884L13.061877886803455,-3.845770163313392L8.43142480210302,-2.9371233533192287z" style="fill:rgb(207,207,207);fill-opacity:1"></path><path d="M4.549096761415109,-5.230401175390715L-0.9193784947445072,-1.6987985407341633L16.226771880876296,-4.010307651865543z" style="fill:rgb(181,181,181);fill-opacity:1"></path><path d="M-7.560971762797818,24.046757394326825L-4.07084610882569,-2.682028588299436L-9.425535536827725,-3.0709190018839285z" style="fill:rgb(151,151,151);fill-opacity:1"></path><path d="M3.812451275411074,24.84216177100547L9.473604097266227,-3.1748215675799774L4.144405508918178,-2.5739159163834677z" style="fill:rgb(200,200,200);fill-opacity:1"></path><path d="M7.910925473038941,-2.3870016922336896L12.505618412342061,-3.1474657603203915L16.19992817813169,-4.249424300203003zM-16.203389871428595,-4.237465581357963L-12.503800230132391,-3.1499433175062874L-7.909281961951702,-2.396482853892834z" style="fill:rgb(181,181,181);fill-opacity:1"></path><path d="M-3.964262124656284,24.844768347795043L0.5732991204859808,-2.565330113650593L-5.148153782825197,-2.637112564732774z" style="fill:rgb(172,172,172);fill-opacity:1"></path><path d="M-0.07895780381870658,25.119670815529773L5.2102239771528875,-2.7340555695203177L-0.503229889699585,-2.466838160007847z" style="fill:rgb(188,188,188);fill-opacity:1"></path><path d="M-0.9948954353772986,-1.9383944623191451L8.903753954265884,-2.4984237997718703L16.21692762399241,-4.171121801456606zM-16.2184248859946,-4.164438681200757L-8.902564990487882,-2.5001318876131986L0.9952037336014836,-1.9433694947336657zM-0.9987992198953626,-1.9871604299866827L4.630495278931951,-2.1384514469471307L9.887684319197987,-2.665331587739053zM-9.888134499215601,-2.6606676429657883L-4.630174864311512,-2.1387910523408804L0.9989289852925377,-1.9914847693661974z" style="fill:rgb(181,181,181);fill-opacity:1"></path></svg>