<svg viewBox="-25 -25 50 50" width="50" height="50" style="background-color: rgb(255, 255, 255);"><path d="M1.0266544206420656,-9.34176204472869L-1.0174348272407239,-9.328476567275398L-3.0241153397779823,-9.156708882551882zM2.069542831590354,-9.289017503019712L0.02652317736522458,-9.347922415115148L-3.026125290934662,-9.19000757642111zM4.029489652295112,-9.040746385988271L2.0845711440058126,-9.272284524482414L0.07116772354012763,-9.334213040957454zM4.03181210465581,-9.079145775490606L1.0709961442296763,-9.348852968508828L-3.0265860666786635,-9.219245207428706zM-1.0347909297168054,-9.351328288908476L-2.9884496294589065,-9.190565622901536L-4.820388877094979,-8.809965248264282zM5.61397365755572,-8.62675765623255L3.9058196224308155,-9.072966191327948L2.0419824095952217,-9.24750407419047zM-1.0413607882357012,-9.393248779873048L-3.8645589426675935,-9.100915880943136L-6.12574357625606,-8.353289239887587zM-2.881630544961858,-9.277764110894584L-4.68520502638169,-9.037807746842477L-6.015132350100404,-8.127250804643385zM6.579607306653243,-8.07706178290081L4.670747339119999,-8.969262656540979L2.053498511471506,-9.30962943090508zM4.025799892370247,-9.20689934219745L-2.0837306538481566,-9.469891472065363L-6.472880316106619,-7.348355535258135zM6.558061659177519,-8.03110830072881L5.267961758382531,-8.98759332797109L3.668036865835994,-8.832846982276443z" style="fill:rgb(181,181,181);fill-opacity:1"></path><path d="M5.472524374106463,2.9831053102993623L5.520433584807485,1.5841450642355523L5.8812996649452405,-9.162063538699275z" style="fill:rgb(188,188,188);fill-opacity:1"></path><path d="M-5.465788095071611,1.5841975719889443L-5.414353111198474,2.983067148372399L-5.811715827942612,-8.913734635290535z" style="fill:rgb(0,0,0);fill-opacity:1"></path><path d="M-1.0974087935042474,-9.56308593910498L-5.726063660436179,-9.025973018263901L-5.907161156196553,-6.931682132781545zM-4.414785771470514,-9.254037710402836L-6.517565663540187,-8.16807086307324L-5.600003778565133,-7.767999434052893z" style="fill:rgb(181,181,181);fill-opacity:1"></path><path d="M4.986191278723506,3.3113846183859494L5.754193814123342,2.0518171277811206L5.879810185359541,-8.912936093183303z" style="fill:rgb(200,200,200);fill-opacity:1"></path><path d="M-5.43064362580325,2.583578837307608L-5.808770332614574,-8.91382391869482L-5.791322623562673,-8.162533683642533z" style="fill:rgb(0,0,0);fill-opacity:1"></path><path d="M5.2584100809137055,-6.648154655650002L6.366679753466499,-8.79485264921075L2.1698863125488415,-9.519964931805276z" style="fill:rgb(181,181,181);fill-opacity:1"></path><path d="M-5.709193578790118,2.05223362292889L-4.936509895311536,3.311519844469984L-5.557550116428052,-8.666112386664734z" style="fill:rgb(0,0,0);fill-opacity:1"></path><path d="M5.472848706152412,2.983116303561856L5.881484041090852,-9.162057310154239L5.838908153599371,-7.914291255484zM0.08237004861040641,-8.686280001812323L-1.9525654873680485,3.0604011106932907L0.5181426612669265,2.670157679511743z" style="fill:rgb(188,188,188);fill-opacity:1"></path><path d="M1.620885742620845,-8.652213065024268L-0.5268651687176804,2.9748389308789807L1.9650965478584157,2.7551345299237804z" style="fill:rgb(172,172,172);fill-opacity:1"></path><path d="M-3.3941683784547547,3.105350371291875L-0.8858756516788645,2.8372055530051306L-1.446024562177312,-8.650628822739794z" style="fill:rgb(200,200,200);fill-opacity:1"></path><path d="M3.9727355630215095,-9.439052019678465L-6.5300960356714555,-7.573818679693294L0.08436372661579022,-7.475259682956214zM-0.9184002416683003,-7.483188019024163L1.7857020032886892,-7.229324878372987L3.757281688777445,-9.766913962812003zM6.143875171919719,-7.0321485420105425L6.195266324971882,-9.037739565052341L4.983965035073582,-8.409373087277755zM-4.66249401570162,-9.412863984253958L-6.668010568587933,-8.009092112030357L-5.161291002897892,-7.0327131520954085z" style="fill:rgb(181,181,181);fill-opacity:1"></path><path d="M4.389356361893473,3.577289857662017L5.660922064496172,2.5597203015760717L5.646983667866632,-8.664282382180101z" style="fill:rgb(207,207,207);fill-opacity:1"></path><path d="M3.1196430931312076,-8.551793854382433L0.903535270566717,2.998301247344271L3.3729612088821312,2.9455093299071264z" style="fill:rgb(151,151,151);fill-opacity:1"></path><path d="M-5.411191287798889,2.9825301110859694L-5.199986115876363,-8.531748895869999L-6.154014942327764,-8.048294800306813z" style="fill:rgb(0,0,0);fill-opacity:1"></path><path d="M0.7255043030588162,-7.319526923280655L6.039893106132343,-7.121590066874151L2.9535490319170883,-9.77771296524316z" style="fill:rgb(181,181,181);fill-opacity:1"></path><path d="M-5.625418354084766,2.559467666055382L-4.348849678347415,3.5784840225988117L-5.06956876345209,-8.429401558348282z" style="fill:rgb(0,0,0);fill-opacity:1"></path><path d="M-2.961586807046406,-8.554330964308287L-4.638617245913527,3.5584049859164097L-2.350773783804411,2.813529258067464z" style="fill:rgb(207,207,207);fill-opacity:1"></path><path d="M2.986020319511573,-8.552395370217852L2.37283604189146,3.1415765993734786L4.771762437250874,3.228422050519959z" style="fill:rgb(121,121,121);fill-opacity:1"></path><path d="M5.2382066365868765,3.3800376100245506L6.035140268380736,-8.884226075075254L5.439323058214466,-7.696136055080542z" style="fill:rgb(200,200,200);fill-opacity:1"></path><path d="M2.154109678964879,-8.138353758054281L-0.4938922283885132,-8.202012740312574L-0.0402090481606279,3.3316074454730167z" style="fill:rgb(172,172,172);fill-opacity:1"></path><path d="M-4.426215853385643,-8.391986218791478L-4.699689536454901,3.8562163575426043L-3.885316690259072,2.8790318447297283z" style="fill:rgb(211,211,211);fill-opacity:1"></path><path d="M10.485504534850113,-8.02473325773782L8.34874276718076,-8.007507480472889L6.2862346731333085,-7.809629609949545zM12.822050546322112,-7.839893534769235L10.65538148437793,-8.000061144263261L8.48665165266617,-8.00191653940486z" style="fill:rgb(181,181,181);fill-opacity:1"></path><path d="M0.6194746352199587,-8.194671630790337L-2.027669276865084,-8.146407640104586L-1.4714597148202815,3.3860283418077537z" style="fill:rgb(188,188,188);fill-opacity:1"></path><path d="M-8.461253766641546,-8.015630553311823L-10.631336896220855,-7.993378875989692L-12.795877814173096,-7.813073845971887zM-6.2572309775487085,-7.829463127310755L-8.324251198823767,-7.998961532550619L-10.460158421502065,-7.993658615412027z" style="fill:rgb(181,181,181);fill-opacity:1"></path><path d="M-5.230003020356295,3.029158402964541L-3.9821052878664402,3.6433851243376343L-4.755290638915486,-8.331579041337156z" style="fill:rgb(0,0,0);fill-opacity:1"></path><path d="M4.807594989021419,-8.332894890932902L4.288905757630631,3.8654011625493623L5.052219691678644,2.80845821434856z" style="fill:rgb(211,211,211);fill-opacity:1"></path><path d="M0.44399014683053417,-9.180883566618908L-2.4379757660924164,-7.361547639352152L0.5552318788331762,-7.25879293075122zM-0.4869917827999121,-7.202945766164911L2.525052071684471,-7.463211100221297L-0.4179101709696719,-9.135067270336071zM4.558681070007486,-6.6746245504783195L6.727014234002757,-8.034889755829012L5.314827003921611,-9.038205857799847zM-6.155601859185973,-9.02135060091977L-6.089236962529409,-7.039164564171334L-4.859233072055435,-7.683307270100292z" style="fill:rgb(181,181,181);fill-opacity:1"></path><path d="M3.648055059819731,-8.015144176239545L1.0411682197659962,-8.1912613824334L1.3930720061881734,3.3849223245796134z" style="fill:rgb(151,151,151);fill-opacity:1"></path><path d="M0.9413732101022108,-8.843555932403033L-3.9658028122109377,-7.355350737832883L-1.4351485967469448,-7.468749771492524zM1.492958319160878,-7.43916915993675L4.034574390111468,-7.397417847317161L-0.8859826488255694,-8.83106943447453z" style="fill:rgb(181,181,181);fill-opacity:1"></path><path d="M-2.851971103506431,3.5504274035393895L-0.9677815298498731,-8.333001845246551L-3.4846033566947927,-7.878453766781225z" style="fill:rgb(200,200,200);fill-opacity:1"></path><path d="M-5.891239487568867,3.8278809480255602L-3.8777346134152957,3.2497814669925735L-4.656826623876761,-8.341895499209382z" style="fill:rgb(211,211,211);fill-opacity:1"></path><path d="M-5.188106798778654,3.3794846730369126L-4.6160074467396015,-8.171041050302085L-6.012282782304503,-7.925570361867779z" style="fill:rgb(0,0,0);fill-opacity:1"></path><path d="M10.483238135576912,-8.060921902460183L7.273198442668067,-7.9665566546155375L4.4796948529193035,-7.453140154434897zM15.023145273779225,-7.496331137206807L11.827502547291818,-7.945515325593031L8.488074462898835,-8.038773118987882z" style="fill:rgb(181,181,181);fill-opacity:1"></path><path d="M5.84081716393929,-8.157650208604117L3.6294517647804536,3.363596670957974L5.922999568740892,3.6372133217284603z" style="fill:rgb(72,72,72);fill-opacity:1"></path><path d="M-8.462942409848338,-8.046330018600834L-11.804191712776088,-7.939570910166186L-14.996949869687771,-7.474586735982083zM-4.44730578432392,-7.470465554206152L-7.249539295509212,-7.955724882912591L-10.458377348530666,-8.034297227630358zM0.9929037146400785,-8.71590097452393L-5.385895956371197,-7.203166166220633L-2.972926959024039,-7.482955295186199zM3.0326159038175415,-7.466536152351526L5.452048227772708,-7.2241327808458475L-0.9356285698343798,-8.711353502733388z" style="fill:rgb(181,181,181);fill-opacity:1"></path><path d="M4.784035153226384,3.7573842257817383L5.921509676725936,-8.575996633965508L4.842178662906875,-7.520616699584929z" style="fill:rgb(207,207,207);fill-opacity:1"></path><path d="M8.271079687312271,-8.038976321249736L6.293336326570479,-7.851067928174677L4.496162105659968,-7.371082702541844zM15.019263851759739,-7.463565828884589L12.964487389585122,-7.811282477687293L10.828417327548063,-7.986279515671477zM-10.806095397500277,-8.004376236841273L-12.9420276405405,-7.806244645987051L-14.99065982350493,-7.430167239600964zM-4.453673088918691,-7.426320116715426L-6.274310778352122,-7.833445958765412L-8.249768938932712,-7.981022046948448zM6.506925413334584,-6.604464342877343L5.736897847350027,-8.005627438769242L-0.9520410156067236,-8.620738191980713zM1.0022513702382634,-8.670711478522758L-6.184478691549849,-7.9694882331070165L-5.925701111551336,-6.590633907402675z" style="fill:rgb(181,181,181);fill-opacity:1"></path><path d="M-2.42042233993134,-8.11086350148006L-4.938715660275003,-7.833080682480557L-4.181146433592813,3.813681512471588z" style="fill:rgb(207,207,207);fill-opacity:1"></path><path d="M2.499973237927847,-8.109650254383421L4.249790748035587,3.817278104293941L4.97449602719341,-7.837890521399548z" style="fill:rgb(121,121,121);fill-opacity:1"></path><path d="M-4.736367308876096,3.7578940162775067L-4.427988816098509,-8.223505694854918L-5.404520854231096,-7.539915724242993z" style="fill:rgb(0,0,0);fill-opacity:1"></path><path d="M4.323706251907507,-7.693396315139711L4.810580740582803,3.758569121020143L5.619221634667744,-8.070700208700837z" style="fill:rgb(211,211,211);fill-opacity:1"></path><path d="M-6.537291263998045,-7.6649058985544425L-1.4983453168736454,-7.640353204704971L1.0304632091365593,-7.711540256640516zM4.349406925268313,-6.830993050678206L6.543062586475794,-7.830858881354523L5.670661850040889,-8.350429472925205zM4.461154095658452,-7.361034222279541L6.747662572199882,-6.969212725717666L-0.9449496812912243,-8.677335361785246zM1.0028570752000443,-8.678842331660494L-6.682302380192757,-6.960998703861949L-4.39960598981235,-7.367744919665164z" style="fill:rgb(181,181,181);fill-opacity:1"></path><path d="M5.730680402794192,-8.160585399126802L4.905604347845687,3.7040995440105227L7.039601233735683,4.126459215196439z" style="fill:rgb(0,0,0);fill-opacity:1"></path><path d="M-5.702305339362251,-8.161512087402619L-6.835599175043949,4.475301116675154L-4.953165478759376,3.3561806854024714zM-3.8891544124034603,-7.978836349517918L-5.271981876546759,-7.744951029634963L-4.446487585719117,3.9134160572992327z" style="fill:rgb(211,211,211);fill-opacity:1"></path><path d="M-6.536837222889118,-7.685194156539972L-2.9868210925913927,-7.476032012288738L-0.50233957601277,-7.722009052444487z" style="fill:rgb(181,181,181);fill-opacity:1"></path><path d="M6.355848997431611,-7.567533825486927L3.96423341200705,-7.979197020962012L4.1190089659248,3.8109118574753262z" style="fill:rgb(72,72,72);fill-opacity:1"></path><path d="M10.464211367791469,-8.17530683043179L4.520610962843046,-7.774629264039917L5.735724650787621,-6.804370038775375zM-5.486669260850649,-6.5890625965795335L-4.677965859107817,-8.02657765131595L-10.438121680792179,-8.125187574398542zM0.5624082635510614,-7.723416665464333L3.0519137565096726,-7.554319257735045L6.1232276314639025,-7.369676944825897zM-6.523111205256423,-7.796127758295712L-4.397282056378351,-7.128990680932154L-2.011945601232266,-7.692479242543957z" style="fill:rgb(181,181,181);fill-opacity:1"></path><path d="M-5.360345283317782,4.184149425090383L-4.215881423862678,-8.113970513874094L-6.158951038514823,-7.3932882243147136z" style="fill:rgb(211,211,211);fill-opacity:1"></path><path d="M-6.472134504900527,-8.002496658757465L-4.257704855780518,-6.858574996974131L-4.611597850463143,-7.570132616527672zM-6.498342129563031,-7.867258504182874L-4.059749720996058,-6.691223544058052L-4.125825964813619,-7.834203515646072zM2.0556845512941253,-7.60412055816294L4.535813728758158,-7.0769414434995035L6.053536840999908,-7.700713326861457zM6.417422611720126,-7.913451931804359L3.8207663616985488,-7.121550203265021L4.709176861902084,-7.313650738117747zM-3.737450786591216,-6.999601765804911L-4.702810991563434,-7.634939930357388L-6.422319906847835,-7.693784017566696zM17.89324659901929,-6.3161788715787575L14.05692568730955,-7.742116159544732L8.495857793135349,-8.108863720430072zM3.5099341174732537,-7.296589518910981L5.637937453058274,-6.880610469688928L5.249711529026959,-7.979663222039166zM16.791159216003166,-6.8913088665916L15.012062769924402,-7.468299401016775L13.047340145707857,-7.786140681065748zM-8.471700642557787,-8.120096597981588L-14.040378842528149,-7.742614031292092L-17.859641145649302,-6.283016827651492zM-13.033670619290122,-7.832214367198661L-14.998410784875231,-7.471855028485306L-16.7461335486839,-6.820258727234236zM5.706463188342586,-8.197521289449003L3.7219929597042665,-7.208525099441001L6.503200029441409,-6.712093333440089zM-6.399887617584218,-6.620499599774882L-3.6817077527821143,-7.36866328381998L-5.73056597412113,-8.115780963829213zM10.422200058204963,-8.31898636305651L4.781883170779638,-7.11053764911651L6.957014185247553,-6.597305286352931zM-6.880086045371459,-6.528810371752465L-4.725106539518542,-7.205645331329199L-10.401413714138386,-8.285823550431678z" style="fill:rgb(181,181,181);fill-opacity:1"></path><path d="M5.24775388506062,-7.780033384673379L6.502608438000631,4.645825017741441L7.411417179701046,-7.257100528214328z" style="fill:rgb(0,0,0);fill-opacity:1"></path><path d="M-5.167868352923831,-7.783938189273899L-7.370671196479707,-7.250172237050537L-6.4333633938196755,4.642797885773016z" style="fill:rgb(211,211,211);fill-opacity:1"></path><path d="M5.978913136694821,3.8742701773150747L7.778899442524067,4.959819376364823L7.934084267904001,-7.524091823461058z" style="fill:rgb(0,0,0);fill-opacity:1"></path><path d="M-7.8837514517278,-7.524167248289826L-7.588126869904392,5.082077873912052L-6.030075528023958,3.7520871045966144z" style="fill:rgb(207,207,207);fill-opacity:1"></path><path d="M5.48757757059105,-6.830472980428499L7.847597759789808,-6.544981192121872L4.835323620359787,-8.278909911101184zM-4.7866362742511726,-8.304729439142811L-7.760211334304661,-6.4856175559206966L-5.433005235907464,-6.8640207339932005zM10.28741051142544,-8.551143910505344L5.951484355249395,-6.728371274282629L8.001824325099983,-6.114935714388411zM-7.904046048440675,-5.997798474938529L-5.894807498811486,-6.902063471304721L-10.284649924291578,-8.488039049747249zM17.84682243019856,-6.182041979058066L15.874724104876885,-7.297827622736397L13.063552940822019,-7.848218814329104zM-13.052794934152617,-7.895740515454362L-15.88163357781704,-7.313438926981469L-17.77797260644642,-6.096666448808603z" style="fill:rgb(181,181,181);fill-opacity:1"></path><path d="M6.421091141204581,4.642836959988021L8.407184842065618,-7.101680534821986L6.413125297034761,-7.300086920962734z" style="fill:rgb(0,0,0);fill-opacity:1"></path><path d="M-8.317369161473463,-6.860048179544085L-6.3380607360627605,4.642392310867178L-6.3933700472480295,-7.541274627119793z" style="fill:rgb(207,207,207);fill-opacity:1"></path><path d="M-7.80701222385788,-7.530125914449612L-8.18613396009838,5.748253286597456L-7.013896005095571,4.259055175606309z" style="fill:rgb(200,200,200);fill-opacity:1"></path><path d="M-4.503838697008344,-7.936602076287138L-12.610252550216954,-6.568037163877263L-6.779265108795756,-6.656241184184734zM6.844160372449586,-6.651296266770815L12.677008121987186,-6.57721050985641L4.56496030785798,-7.93237364772191z" style="fill:rgb(181,181,181);fill-opacity:1"></path><path d="M8.60022287133559,-7.137102786689824L6.809348519497927,4.603065452294198L8.482369106992849,5.402162514546649z" style="fill:rgb(0,0,0);fill-opacity:1"></path><path d="M-8.71060865437661,-5.433638879974561L-6.910449128598984,-6.530328491169948L-10.090226710070748,-8.689417066992313zM17.80881653192418,-6.107373728013966L16.564382106748667,-7.151168838912356L14.86418908868244,-7.341100898810804zM-14.956950800922103,-7.656511909505708L-16.97476497514221,-7.169356598083586L-17.232989075309277,-5.750811942907661z" style="fill:rgb(181,181,181);fill-opacity:1"></path><path d="M15.882225917020284,6.096767549914374L16.074902587204644,4.615055027900347L17.243389616393483,-7.262230418951188z" style="fill:rgb(200,200,200);fill-opacity:1"></path><path d="M9.612887455600855,7.8188078999073936L11.113549173814324,4.005378983786698L11.778488886370841,-7.664663679998283z" style="fill:rgb(201,201,201);fill-opacity:1"></path><path d="M-16.052321321038285,4.628303075027416L-15.858170447726893,6.110382674854438L-17.170578172929794,-6.944367597466555zM9.049675280096228,-6.388723833280101L7.4136607179908,-7.277184510201879L7.280381364252579,5.188311788745499z" style="fill:rgb(0,0,0);fill-opacity:1"></path><path d="M-12.61439861688114,-6.6438296368864425L-7.665842121799165,-6.194688436425869L-5.959371230966192,-7.237844079883725zM5.939118885402086,-7.075452173864122L7.818265795514739,-6.313497124089008L12.679672448555376,-6.687412855242907z" style="fill:rgb(181,181,181);fill-opacity:1"></path><path d="M-8.52716658180382,6.432941201338304L-7.659294427525115,4.871713111549263L-8.506565747274156,-7.139003133419406z" style="fill:rgb(188,188,188);fill-opacity:1"></path><path d="M-7.3226605273351835,-7.2771454777640034L-8.951012888056882,-6.391949741269331L-7.907995846462259,5.811866262647568z" style="fill:rgb(200,200,200);fill-opacity:1"></path><path d="M15.330361599941762,6.480573726188848L16.23874167373244,5.187971360241273L17.2052615146366,-6.951523340325716z" style="fill:rgb(207,207,207);fill-opacity:1"></path><path d="M7.702890164428948,4.870336130066492L8.577744757579467,6.432281627827091L9.012000365042882,-6.708822496758517zM-15.935918604481293,5.621434346249206L-17.12684372680704,-6.946785478990277L-17.16478935834549,-6.256306101289445z" style="fill:rgb(0,0,0);fill-opacity:1"></path><path d="M11.410746461347458,-4.271202799572769L17.899974569789688,-6.652867503039791L8.723784163767519,-8.488339535000188zM-8.701790215666655,-8.497334418998562L-17.878747763124014,-6.61098554934189L-11.373629047595632,-4.279747026092782zM7.022242693175526,-6.396447832159011L12.380065386773696,-4.24830134294213L9.54810891725266,-8.722429644855564z" style="fill:rgb(181,181,181);fill-opacity:1"></path><path d="M-16.227371123470093,5.2025028663244L-15.315756764679046,6.495886853236141L-16.8374297818504,-6.648614517496842z" style="fill:rgb(0,0,0);fill-opacity:1"></path><path d="M-12.60906216947222,-6.726768960179034L-8.169789167846064,-5.595760471063552L-7.088541610002606,-7.01931600007783zM6.911259443662225,-6.773963245094483L8.493464604341737,-5.756793698935098L12.663278766733477,-6.811088487290835z" style="fill:rgb(181,181,181);fill-opacity:1"></path><path d="M15.897485803995284,6.098496854486232L17.253262497454408,-7.261152844862208L17.08758277538884,-5.958907521663578z" style="fill:rgb(200,200,200);fill-opacity:1"></path><path d="M-10.877850881489756,4.970757115089019L-10.166973753936453,-4.963115578472295L-11.984382277686576,-7.549362112131587zM7.945912146173147,5.812399518519269L9.479642695285792,-6.287421255963454L8.048941032787274,-6.563120504877806z" style="fill:rgb(0,0,0);fill-opacity:1"></path><path d="M-9.427893648114408,-8.83034995654652L-12.31369729614647,-4.198087269955102L-7.7768975478584395,-5.9314093304893625z" style="fill:rgb(181,181,181);fill-opacity:1"></path><path d="M14.625738832358987,6.786450102997323L16.04923248106295,5.771998237315466L16.894002842791505,-6.65367475955544z" style="fill:rgb(211,211,211);fill-opacity:1"></path><path d="M17.284298627459744,-5.0363500572847055L17.637570971141837,-7.0329654141440106L16.250374339430973,-6.732216416267189zM-16.639099546537288,-7.480426450123318L-17.879684867754758,-5.698582872867066L-16.578900433621996,-5.597699562209048z" style="fill:rgb(181,181,181);fill-opacity:1"></path><path d="M-8.249070748442737,6.490318438701691L-8.283503719680203,-7.1007951257609525L-9.100318603698513,-5.750511123534257z" style="fill:rgb(188,188,188);fill-opacity:1"></path><path d="M-16.048824117611836,5.787070422632113L-14.620767938812527,6.80396960754531L-16.230150338968812,-6.3797187942723355zM-15.868605738455472,6.111121805312763L-16.38217954364891,-6.441944381643521L-17.547134585359096,-6.154069772433791z" style="fill:rgb(0,0,0);fill-opacity:1"></path><path d="M7.699147672311345,-6.453269525201422L8.84528662239482,-5.10640310734576L12.617846518064729,-6.963086084709459zM-12.588025807548567,-6.862702227376945L-8.338611516925424,-5.051140917856717L-8.03150476259541,-6.608919541260929z" style="fill:rgb(181,181,181);fill-opacity:1"></path><path d="M-11.109173111219462,4.005566025014197L-9.575572401524983,7.821893668337801L-10.519579647294378,-5.842452160436122zM9.062270723887142,-6.259002331333806L8.144751664158061,5.524830812483056L8.573086661953909,7.169361889800085z" style="fill:rgb(0,0,0);fill-opacity:1"></path><path d="M-8.222868252998259,5.492148231795202L-8.998049170579307,-6.258661678396606L-8.354584001969009,7.2017038175507375z" style="fill:rgb(172,172,172);fill-opacity:1"></path><path d="M15.577127689725845,6.5659036861460045L17.37486030456847,-6.904947816322246L16.604543480930722,-5.709035749127596z" style="fill:rgb(207,207,207);fill-opacity:1"></path><path d="M13.751954807441273,7.046223166120868L15.539705123901419,6.291854281736626L16.307900915551098,-6.383352669665255z" style="fill:rgb(211,211,211);fill-opacity:1"></path><path d="M-15.549287893870817,6.30706263069611L-13.756211443461709,7.0659697071465155L-15.36363215257483,-6.152174353501432z" style="fill:rgb(72,72,72);fill-opacity:1"></path><path d="M15.562677948353363,-4.67081393339044L17.951383748765647,-5.964022670700563L16.701125604618856,-7.292429030176938zM-17.050155244463145,-7.470126726520069L-17.700368641739452,-5.5057660538321995L-15.388188745155283,-4.925602667670365z" style="fill:rgb(181,181,181);fill-opacity:1"></path><path d="M-15.56408608442335,6.5802981860157175L-15.71950152708123,-6.0706130435571035L-17.284479589877645,-5.960671889663932zM9.128124934524392,-5.265374764947632L8.883020895283648,-6.70540015200127L8.30024654392375,6.489882509822811z" style="fill:rgb(0,0,0);fill-opacity:1"></path><path d="M-8.233170701314718,6.4898601114105805L-8.873080957580981,-6.7109949495152925L-8.997657194918109,-5.259765507497463z" style="fill:rgb(172,172,172);fill-opacity:1"></path><path d="M12.703332206041498,7.243230131481341L14.761521684109884,6.722808884918473L15.460574111746599,-6.154842298022136z" style="fill:rgb(207,207,207);fill-opacity:1"></path><path d="M15.003773518625206,6.988740609630946L17.177605276305474,-6.534171753928697L15.8945050135158,-5.514114279660896z" style="fill:rgb(211,211,211);fill-opacity:1"></path><path d="M9.769626284520614,7.851475791636932L11.973356913367512,-7.6127372471261054L10.38652210173194,-4.897103947079884z" style="fill:rgb(201,201,201);fill-opacity:1"></path><path d="M6.955715289080362,-6.983318954619154L8.50926633775521,-6.078565785497219L12.53793797411317,-4.4573679614159705z" style="fill:rgb(181,181,181);fill-opacity:1"></path><path d="M-14.779411169872184,6.7378486504083215L-12.715802092717322,7.26493691394968L-14.26947964532275,-5.978908779205706z" style="fill:rgb(121,121,121);fill-opacity:1"></path><path d="M8.028171763094624,-5.775960442255692L10.87726642453459,-4.134992229406125L12.304411681829764,-7.316159272856377zM-12.353076683963629,-7.245999378343903L-10.618729249026657,-4.075074554315987L-8.02832289097175,-5.906041909429332z" style="fill:rgb(181,181,181);fill-opacity:1"></path><path d="M11.507639843408075,7.3542491839462265L13.76148194454268,7.052551149634071L14.382620213960331,-5.9810984632953135z" style="fill:rgb(200,200,200);fill-opacity:1"></path><path d="M8.823524287900579,-5.985282444217218L7.732145772277465,7.258738543658877L10.019688880783802,7.164433543242844z" style="fill:rgb(151,151,151);fill-opacity:1"></path><path d="M-10.003687973529024,7.371909768706739L-7.626542153286052,7.074684289739317L-8.76683140447129,-5.977485522651177z" style="fill:rgb(200,200,200);fill-opacity:1"></path><path d="M-13.785437405908459,7.0671961229601585L-11.526781235784693,7.377444855670423L-12.99562525886083,-5.870327771638808z" style="fill:rgb(151,151,151);fill-opacity:1"></path><path d="M-15.008743818553501,7.005106311150882L-14.842382951032425,-5.810024258724023L-16.70168072540314,-5.7254397125222924z" style="fill:rgb(72,72,72);fill-opacity:1"></path><path d="M15.395601001164259,-4.815912421445838L17.65240192608563,-5.594130535315274L17.015438200208187,-6.602355927258722zM-17.898131453542376,-6.487033124764229L-16.863538283244527,-5.162789531053597L-15.22375966205926,-5.33583164221574z" style="fill:rgb(181,181,181);fill-opacity:1"></path><path d="M10.214405452249656,7.3628108553994025L12.590694363133561,7.271450408478248L13.121019942989934,-5.872557024040767zM-11.336135946066369,7.387208894600428L-8.911254202637446,7.285205648954173L-10.163888428717975,-5.870132658284747z" style="fill:rgb(188,188,188);fill-opacity:1"></path><path d="M8.885075719680351,7.261015752431339L11.30801968561867,7.3735569930066L11.736559363028555,-5.835994313910781zM-12.618113746491124,7.285590659551383L-10.238227817518162,7.386864836763616L-11.603597929101582,-5.8332581204255725z" style="fill:rgb(172,172,172);fill-opacity:1"></path><path d="M14.192862330693488,7.345361195349672L16.661182732303878,-6.192896957596631L14.971023215039752,-5.358477749615767z" style="fill:rgb(211,211,211);fill-opacity:1"></path><path d="M10.654400965913403,-4.6088091130699755L16.575779218803003,-4.963874581276968L17.504819340299804,-7.244379259590572zM-17.643718876975672,-7.159480888513057L-16.39338893409929,-4.97488967022213L-10.616510337296095,-4.655687602845156zM7.74062946752487,-6.7102396248787555L8.794280117953493,-5.452506046279765L12.562288220389064,-4.537424285547997zM-12.499487784078795,-4.440220652111612L-8.262190165296955,-5.383365334652422L-8.167062193829356,-6.866755709348072z" style="fill:rgb(181,181,181);fill-opacity:1"></path><path d="M-14.215515103992814,7.363514104748958L-13.747479910545366,-5.62766856371586L-15.849714614979307,-5.507636544449347z" style="fill:rgb(121,121,121);fill-opacity:1"></path><path d="M13.175393742743593,7.616211086034523L15.855370403473723,-5.906402550479634L13.848743859397725,-5.2439703638456585z" style="fill:rgb(207,207,207);fill-opacity:1"></path><path d="M-13.213354549764714,7.635750732480083L-12.477075668186705,-5.521449003519445L-14.76558310034533,-5.33260473251228z" style="fill:rgb(151,151,151);fill-opacity:1"></path><path d="M11.99644193064402,7.785594306591584L14.803226602120725,-5.687846385364156L12.562007235499154,-5.180795880779937z" style="fill:rgb(200,200,200);fill-opacity:1"></path><path d="M8.316873541844746,-5.52413059140246L9.490982035784567,7.792667948663043L10.714041340301169,-5.346841971449106z" style="fill:rgb(151,151,151);fill-opacity:1"></path><path d="M-9.444445007108456,7.806478536610912L-8.276598946555259,-5.677242935921535L-10.663584069616062,-5.176213655811721z" style="fill:rgb(200,200,200);fill-opacity:1"></path><path d="M8.399214963428934,-6.396439235334278L8.593257283356932,-4.750587746720518L12.579533488325737,-4.673059643999716zM11.523452571964821,-4.539652185588751L8.198159468431188,-6.3450708817998045L8.819209977218781,-4.9324600704561465zM-8.522681842602001,-4.827345286466179L-8.401552432245268,-6.516628732359172L-11.400792187976467,-4.473217051321381zM-12.53651381612225,-4.552638688077735L-8.072888483040211,-5.00835925213572L-8.790353229929863,-6.249248447328684z" style="fill:rgb(181,181,181);fill-opacity:1"></path><path d="M9.388331949842765,7.785874067752438L12.186364632392175,-5.482892186321708L9.721763066029743,-5.240879239316815zM-12.045783821970653,7.806009390516417L-11.091368157264288,-5.494046721122814L-13.4979112578055,-5.214868619355809z" style="fill:rgb(172,172,172);fill-opacity:1"></path><path d="M10.712672721826385,7.843323613867336L13.558751180597714,-5.545187505036315L11.164323970799614,-5.178208057245685zM-10.768460020573237,7.8640716832374995L-9.660698399622795,-5.546592186548738L-12.107686070979899,-5.162498194004523z" style="fill:rgb(188,188,188);fill-opacity:1"></path><path d="M13.275990798941496,-4.800418811617992L15.367463554012566,-5.053392495553787L17.135693928800116,-5.6975607513593935zM-17.13392885774738,-5.608147533824972L-15.323666553187158,-5.064088647704376L-13.23879022366466,-4.850770466323526zM10.622200637644415,-4.757703043985005L14.272099426186498,-4.894165358680295L17.166710329069872,-5.5814161455416675zM-17.14617178980592,-5.543958184142341L-14.238550665696469,-4.891718828488964L-10.590865793978036,-4.768881003607007zM8.797427780470777,-5.818108176618972L8.079619812592336,-4.517935828609117L12.597042067018347,-4.7598346322137575zM-12.57362024778009,-4.6988503813962845L-7.798356698319301,-4.8319000391638625L-8.922848161123095,-5.549112753815857zM11.561986590167772,-4.804803867107113L8.371875787063479,-5.862269748325636L8.39206133650965,-4.239230728840518zM-7.886679584451451,-4.340159890996609L-8.787835502687777,-5.9535120708773706L-11.431688432673958,-4.61264065892307z" style="fill:rgb(181,181,181);fill-opacity:1"></path><path d="M8.23536684351246,11.423175308925279L10.014600445462628,6.888850492607085L10.680815724486068,-5.839172948869734z" style="fill:rgb(201,201,201);fill-opacity:1"></path><path d="M10.838454377695312,-5.050865019158378L7.951720473147626,-5.340139626712464L8.659412159197892,-4.365769303928358zM-7.890573516008806,-4.30542613903056L-8.639146989020203,-5.716444393208141L-10.646932807739457,-4.712515523271252zM10.618627935816908,-4.803968047669605L13.000742929877479,-4.8358557977358565L15.251933017420074,-5.085000302398595zM7.844999603905027,-5.049940821931006L10.186481102523869,-4.8452929916883765L12.61697621998119,-4.8248469888206875zM-15.225754507397943,-5.051276583284906L-12.96951989797752,-4.828482712182289L-10.587958249407746,-4.815762865038427zM-12.586385811394397,-4.797464255879912L-10.154365449213438,-4.83499216315882L-7.769442676426081,-5.061822218669227zM13.478777974148189,-4.345016850488317L11.226197319085506,-4.808101783645301L8.87122112478779,-5.064185083463505zM-8.755971469302718,-5.076493837105385L-11.109732511116327,-4.799448154976017L-13.354673787689716,-4.31122030428867zM10.816788782163869,-5.201171923044546L8.429981391924802,-5.19923964715285L7.403106990937688,-3.695604942559884zM-7.087811853158913,-3.9431316158056617L-8.579502453658273,-5.187207943487034L-10.71471896969508,-4.9558714942312285zM13.486604768014113,-4.4658204366395955L9.815269162060348,-5.244552050944611L7.115770253695929,-4.100849372199935z" style="fill:rgb(181,181,181);fill-opacity:1"></path><path d="M-9.78874432191576,7.853665060822535L-8.762896412401904,-2.6309162913149833L-10.861975232844877,-5.735429691136614z" style="fill:rgb(0,0,0);fill-opacity:1"></path><path d="M-8.76457472738091,-5.123311381937722L-12.397942771918459,-4.597144663691682L-15.465691697162272,-3.5473017057869907zM-7.0108547364046885,-4.234371176643177L-9.74034814015695,-5.22456741084697L-15.487693627393272,-3.6580669020523775zM13.488698190531416,-4.6032771281566545L7.96598631540861,-4.630933932533414L6.120795522075066,-3.582989243931645zM15.578767164956398,-3.5239637847449368L13.666806243710699,-4.285224437268722L11.524904016006825,-4.758983701255106z" style="fill:rgb(181,181,181);fill-opacity:1"></path><path d="M-10.015066928355623,6.88788605891427L-8.194505703393697,11.426675071978632L-9.098052222773282,-3.52150801413966z" style="fill:rgb(0,0,0);fill-opacity:1"></path><path d="M-11.416800782971944,-4.792964223276743L-13.554865986402277,-4.281025559713764L-15.435962420206582,-3.462080437828836zM9.065299156433515,-1.6129850367491774L11.331790374603532,-5.382127244721239L8.108235480082623,-5.17543657257395zM-8.034731297466937,-5.275698710344902L-11.32859380832046,-5.24371835972729L-8.910492301190352,-1.6511360257649557zM-5.977898997825585,-3.7612761801585575L-7.953660387862997,-4.596590860802355L-15.505522607598916,-3.774930932625057zM13.485894933735018,-4.6400770267138585L6.997460883513029,-4.052470526742041L4.663367538804199,-3.3630928202783714zM9.602841852005506,-1.641922248271015L8.883839617564528,-5.7192386784492175L7.49324135694625,-4.320153207076161zM-7.268372905152649,-4.476837618599409L-9.059575428581619,-5.579145967134575L-9.418359164221407,-1.6253391280349268z" style="fill:rgb(181,181,181);fill-opacity:1"></path><path d="M8.394897780744838,11.455935058578204L10.884735703976324,-5.783838188187031L8.983597620091476,-2.58028771688621z" style="fill:rgb(201,201,201);fill-opacity:1"></path><path d="M-4.568563698311629,-3.454118117149174L-6.9281671066418316,-4.08431095709856L-15.508313071082407,-3.832804701937978z" style="fill:rgb(181,181,181);fill-opacity:1"></path><path d="M-0.05543302488058152,11.500032314852346L0.2873465957131725,9.78799781564779L0.21000204125063343,-3.966793748359433z" style="fill:rgb(188,188,188);fill-opacity:1"></path><path d="M16.812590993941075,-2.500833736961122L14.701679300183352,-4.006510962965851L11.549403427871761,-4.831525551746589z" style="fill:rgb(181,181,181);fill-opacity:1"></path><path d="M-0.16846095547177145,9.769438964895459L0.18254250453676524,11.479983760798119L0.0958646199834247,-3.5059205328129774z" style="fill:rgb(0,0,0);fill-opacity:1"></path><path d="M9.897139079249904,-1.8639979979600214L8.138549288557515,-5.14685533825374L6.239026466850098,-3.8143175721610563zM-6.05191640426583,-4.023792819403603L-8.294830366705522,-5.013890809305222L-9.690663834158519,-1.787491546178806zM-9.182631737990272,10.877915746396171L0.5577687070850059,10.960660269256943L0.29882032091465693,-3.441031587251768zM-0.7525607232536267,10.867465728227147L8.975843062381944,10.960960932977482L9.492254530664315,-3.4308833976504385zM16.748159851098354,-2.3984266704134836L15.517506276140692,-3.6449048187752977L13.714269355530622,-4.208685646977059zM-13.67988242313531,-4.3830217654291594L-15.54389056192318,-3.6482874301647574L-16.380808071820596,-2.1857524413348335z" style="fill:rgb(181,181,181);fill-opacity:1"></path><path d="M14.70679199079071,12.215853644053096L14.951378315189036,10.49210534448266L16.274416411794036,-3.501351168432324zM-0.6718492958744169,12.172292849517815L0.31484846389105847,10.580052395257571L0.06552632592817739,-3.4925566029508874z" style="fill:rgb(200,200,200);fill-opacity:1"></path><path d="M10.097218774750388,-2.1324321752476356L7.022662996915324,-4.4896411648177015L4.726076391028957,-3.441537637422038zM-4.5882337745900035,-3.6113105182037044L-7.059527887816394,-4.405783098710825L-9.957610825471843,-2.046517360572845z" style="fill:rgb(181,181,181);fill-opacity:1"></path><path d="M-0.049118466491561985,10.759681049248782L0.5886451293141063,-3.0878854826624047L-0.5786262563560295,-3.3968401678606566zM-0.2050255863001546,10.560397148625926L0.7905836042433726,12.151324737827172L0.5910805363364778,-3.027465242510754zM-14.833736880702702,10.512267729024869L-14.582250478624237,12.236372482725173L-16.055923089400263,-3.0105655115803445z" style="fill:rgb(0,0,0);fill-opacity:1"></path><path d="M0.04494029294584558,11.5091527289115L0.2907682727282458,-3.960354879362701L-0.03093731963878868,-2.4996924960839753z" style="fill:rgb(188,188,188);fill-opacity:1"></path><path d="M-0.9387690505514604,-2.328919241562607L6.616423745280414,-3.770408639319493L3.9454532225335948,-3.342987173211361zM-2.880143430914543,-3.3162222506402736L-5.5785638131415665,-3.848637129796547L-10.07224124168384,-2.277456838503797zM-5.529731709950677,-3.7320143446146705L-15.504819233986213,-3.907696358617966L0.5474668911999847,-1.8012585806830594zM5.529336148058108,-3.8457736386010373L1.631882387650314,-0.6698007744107981L13.461927098808323,-4.7394283720442525zM3.0458942399222177,-3.2410356112896617L-0.943084664496707,-3.2066594443392256L-0.07739063037507254,-2.780470835735382zM1.0935670653758878,-2.5906823267360237L0.14126383889099514,-3.480348533310119L-2.9599031700993574,-3.1449171458325043zM0.7734731860200601,-3.5234691884103464L-1.0070680309023765,-3.25032350434217L0.18070163530035702,-2.3981321750224582zM0.8362930025864127,-2.321002496680144L-0.04909576195783134,-4.069611173782842L-0.3825807487168328,-2.7705720873977784zM-8.6446123904047,11.378929774923655L0.8140647673340844,-2.9658273087343283L-9.643367383595676,-3.001091996117279zM-0.24165213309536837,11.369625813927128L9.980611974209744,-2.9547956988628075L-0.46543036716442276,-3.002819644992272zM-0.921914989023914,-2.2649954958420944L4.935706031763844,-3.480404528175434L2.028578960162376,-3.2566292299818627zM-0.9740908610967058,-3.1501629097043833L-3.8744411492916733,-3.456171709344517L-10.099781786396537,-2.395700325269745zM0.521839713355846,-1.6960230335781274L-3.837511061516755,-3.4637151575866527L-6.531228582169252,-3.7729943593042803z" style="fill:rgb(181,181,181);fill-opacity:1"></path><path d="M14.091691067426597,12.856077651988333L15.039672030156385,11.290532827513479L16.20212245610996,-3.0224572512718653z" style="fill:rgb(207,207,207);fill-opacity:1"></path><path d="M-13.817216249833043,-4.526313729936859L-16.409370974590665,-3.15568646066655L-16.05567651553834,-1.1319332422506951z" style="fill:rgb(181,181,181);fill-opacity:1"></path><path d="M-1.5275764187672984,12.795228588428222L-0.014968939031393706,11.397968907009446L-0.40503823138195494,-3.0134351111581137z" style="fill:rgb(207,207,207);fill-opacity:1"></path><path d="M-0.41883313369912367,-1.8753953515285722L3.02688466884774,-3.3445810721599596L-0.4740576656154521,-3.5535962423479415zM-10.106086772693208,-2.4469433720969405L1.0396562097128337,-3.1211866296324673L-1.9725227820712676,-3.205448354626319zM-0.9470995783612259,-2.420135668702539L10.176503425563554,-2.3971754174960367L5.637661005201398,-3.8256179026431845zM14.941396194156459,-0.2932911748736476L16.66232800585503,-3.271976027402543L11.73625573925677,-5.07490400348199z" style="fill:rgb(181,181,181);fill-opacity:1"></path><path d="M0.0804573300578063,11.488778205126021L1.0885921557599805,-2.549962676794428L-0.4278204575106854,-2.983763528035587zM-14.696900422875954,11.502881596217717L-15.563115858611681,-2.739775694510121L-16.5572887976912,-2.7620472302482937z" style="fill:rgb(0,0,0);fill-opacity:1"></path><path d="M0.447802587754234,-1.5489864422790207L-1.8746789265596884,-3.492340475902032L-4.837388902569675,-3.451124357666035z" style="fill:rgb(181,181,181);fill-opacity:1"></path><path d="M0.1161919950580199,11.376219707130577L1.6374319082726203,12.774079748974302L1.4146186373569538,-2.5647008458746696zM-14.931468536000915,11.312758867765812L-13.975601995719526,12.878417622983237L-15.615774140948409,-2.5493396109936954z" style="fill:rgb(0,0,0);fill-opacity:1"></path><path d="M-10.106657847605453,-2.4739810365116472L0.8717584141830241,-2.14876238272245L0.20822354218638245,-3.5217095463119343z" style="fill:rgb(181,181,181);fill-opacity:1"></path><path d="M14.729816995775238,12.218545346797853L16.292954138406028,-3.499231373478686L16.077642542990226,-2.0305539149484795z" style="fill:rgb(200,200,200);fill-opacity:1"></path><path d="M-0.32082140438660284,-1.273249396522656L0.9783638887164867,-3.4306350265794356L-2.8484393807349604,-3.431550437016215z" style="fill:rgb(181,181,181);fill-opacity:1"></path><path d="M-0.39860930550465107,12.243461832192876L0.2934017727614182,-3.439364725371225L-0.6594786286935918,-2.0684268424913843z" style="fill:rgb(200,200,200);fill-opacity:1"></path><path d="M6.520567147575928,-3.9800665629349274L3.6628796985208005,-3.699589381503988L1.8949766599212632,-0.38270350962197847z" style="fill:rgb(181,181,181);fill-opacity:1"></path><path d="M13.229492902337439,13.39859616228797L14.75161534322266,12.096851412935905L15.78753951523989,-2.559497992259301z" style="fill:rgb(211,211,211);fill-opacity:1"></path><path d="M4.718945697105106,-3.78817578066982L1.3369315221036309,-3.5596356067948793L2.441808575078031,-0.274266791974222z" style="fill:rgb(181,181,181);fill-opacity:1"></path><path d="M-2.6220806709732605,13.360407107474126L-0.6880668329585422,12.183985403818454L-1.2054430968155136,-2.550491173933101z" style="fill:rgb(211,211,211);fill-opacity:1"></path><path d="M-0.55855791884756,-3.824825715042844L-0.2542014319225765,-2.035462521745333L1.4049426164953343,-1.6532065570706957zM16.201049896119866,-1.0721714450273219L16.76061154320478,-3.0296786714600996L15.25120652681743,-3.411645868421446zM-0.945363403286906,-1.1897063316726726L0.8345539592040392,-2.590872765220149L-0.057630965263474,-3.6944339271365854zM-15.629340472389956,-3.9124725670968434L-16.767915167619396,-2.0958484263232386L-15.42322839634463,-1.4666920306093247zM2.4685896209815565,-3.688063698058518L-0.9964486390602392,-3.1907078245267693L3.0098234895821587,-0.3984945128885376z" style="fill:rgb(181,181,181);fill-opacity:1"></path><path d="M0.7814426735344903,12.159671592426244L2.7232668935389897,13.339371082627046L2.550793883651425,-2.140706820344786zM0.506733065049471,12.22183126002729L1.9100818268724236,-2.0880738218642936L0.05478511702314086,-2.505903173953131zM-14.652452028702696,12.11996656137821L-13.122053041606732,13.423582250888826L-14.829486081924598,-2.1266715943000505zM-14.604357836699341,12.238529085322426L-15.072094139317691,-2.0985050864885673L-16.52529873887658,-2.463993180682595z" style="fill:rgb(0,0,0);fill-opacity:1"></path><path d="M14.310508868183641,12.924117460699819L16.381377578910218,-2.9714236415941295L15.490398114215475,-1.6186522197328999z" style="fill:rgb(207,207,207);fill-opacity:1"></path><path d="M1.5280834738396596,-0.9715530373875001L15.734806389438656,-0.7662480465873168L12.635936827896318,-5.067839435617035z" style="fill:rgb(181,181,181);fill-opacity:1"></path><path d="M-1.1413631453961584,12.95002828748902L-0.07317147029080096,-2.8927373061798063L-1.5715395689179223,-1.6741840719190588z" style="fill:rgb(207,207,207);fill-opacity:1"></path><path d="M12.129878795039017,13.848561692755247L14.094926712382566,12.836864852927949L15.026037293110255,-2.1356978072844504zM-3.9393547650530762,13.838701752379052L-1.6712334160753797,12.897853947977808L-2.3213649267669627,-2.126745815138355z" style="fill:rgb(211,211,211);fill-opacity:1"></path><path d="M-14.459919472872445,-4.647563198573078L-16.756135725952497,-1.7607695438553255L-11.537644777560125,0.06787210108430985zM-15.281162934743485,-4.319745277103367L-12.497812310800661,0.005077536156577092L0.5628161073741731,-2.0257929003973043z" style="fill:rgb(181,181,181);fill-opacity:1"></path><path d="M1.7580873456480473,12.870913449308224L4.032568673110088,13.817776200717315L3.962825759854184,-1.7790238174397894zM-14.00400161446421,12.860205009097243L-12.03059648320976,13.876282372265967L-13.714446680652944,-1.7662284215251922z" style="fill:rgb(72,72,72);fill-opacity:1"></path><path d="M-0.7509115563677384,-3.6862728859418534L0.366747644322146,-1.7494267338081926L3.3843021323794105,-0.7163158875757147zM14.305127168725889,-0.3886293993295419L16.823479038820782,-1.9471881440779124L15.81430928307063,-3.816199154968301z" style="fill:rgb(181,181,181);fill-opacity:1"></path><path d="M1.2316099069550173,12.927011817506598L3.0430287983197695,-1.6745997983511867L0.8661492640488339,-2.0345387660384278zM-14.202438541472874,12.946567921614976L-14.28815581581327,-1.6802729149574291L-16.09764902742989,-1.9981377211840856z" style="fill:rgb(0,0,0);fill-opacity:1"></path><path d="M10.80785038593132,14.184566353089378L13.110634844737561,13.465008523012537L13.93344613307968,-1.774686696380659zM-5.43740673653376,14.19611784262356L-2.9198541840796546,13.506349675280317L-3.7172752820657626,-1.7657195093310007z" style="fill:rgb(207,207,207);fill-opacity:1"></path><path d="M13.578811189598657,13.567445872489616L16.081315917611214,-2.4315247806809843L14.605496301543893,-1.2738853921702036zM-2.1675189781999564,13.59441457924442L-0.807319412299117,-2.3644909816176876L-2.7576142636757526,-1.316777945788037z" style="fill:rgb(211,211,211);fill-opacity:1"></path><path d="M3.0020380966895064,13.477032032089964L5.523818630754812,14.175159417118683L5.591978649900552,-1.501681233154288zM-13.026403564886618,13.488185032410742L-10.715831457557263,14.214607848987265L-12.311199972576146,-1.4900248500124147z" style="fill:rgb(121,121,121);fill-opacity:1"></path><path d="M9.306277825295584,14.378272485854009L11.851653861346499,13.951100122816793L12.548960715915898,-1.4984810496330998zM-7.051969902697081,14.403130129322827L-4.375688667678999,13.980295009367907L-5.335543387965573,-1.4893725410105854z" style="fill:rgb(200,200,200);fill-opacity:1"></path><path d="M4.45540988448656,13.949128656560857L7.13323951484321,14.381936751787238L7.359804809239881,-1.3268514319559173zM-11.771962893993877,13.973848279170477L-9.220222495263837,14.409942846643649L-10.683386169202999,-1.316163201074612z" style="fill:rgb(151,151,151);fill-opacity:1"></path><path d="M2.2407541431731817,13.569903615753647L4.450509788924005,-1.3277504078861253L1.9911592795105373,-1.5977941422981594zM-13.488660786913535,13.592227720633211L-13.177108667572066,-1.3326642249801823L-15.32318123059436,-1.5629928885873148z" style="fill:rgb(72,72,72);fill-opacity:1"></path><path d="M-0.32201445594781214,-2.4781460146524266L1.3268792140617747,-1.442115005800737L3.439280679467099,-0.8196100724501977zM14.120025962203536,-0.5461359366666618L16.148810586986368,-1.3094826310377223L16.410423660073196,-2.8842537162489714zM-3.262615904399862,-0.7294421334460056L-1.144297470179644,-1.4070502304870307L0.4039771365471149,-2.5611564121975903zM-16.720897696268132,-2.65478301772488L-15.694651123898858,-1.248338461457811L-13.851600606773806,-0.7945272969479359z" style="fill:rgb(181,181,181);fill-opacity:1"></path><path d="M7.691948975024486,14.40812198887623L10.382965782956981,14.273109620104732L10.93500909248455,-1.3251519872444244zM-8.703493687328297,14.439252702705641L-5.966607920145165,14.296443287577802L-7.098537781240649,-1.3157319609978746z" style="fill:rgb(188,188,188);fill-opacity:1"></path><path d="M6.046221232848955,14.26418915074439L8.781733822161971,14.417627966644307L9.17366761928316,-1.2665778212383754zM-10.305302216762215,14.295292939476909L-7.610146953388099,14.440555842131348L-8.914028074720667,-1.2566382880890243z" style="fill:rgb(172,172,172);fill-opacity:1"></path><path d="M12.552843331209763,14.113804590242566L15.389941901479718,-1.9327184240186706L13.437746201123614,-0.9894966634857374zM-3.442541777412432,14.141767664606219L-1.8811199363322841,-1.8856268516364332L-4.195702980805586,-1.0116259050177856z" style="fill:rgb(211,211,211);fill-opacity:1"></path><path d="M3.501338251509109,14.115758467297868L6.073587646922326,-1.068580323516095L3.3938720675989567,-1.2200295105235084zM-12.479826605410006,14.140546171469763L-11.7794289089497,-1.0725250516961287L-14.21881642388097,-1.1870371143894072z" style="fill:rgb(121,121,121);fill-opacity:1"></path><path d="M-16.826382241491626,-2.5040888866023803L-14.858750599417666,-0.9126921291788157L-11.326791513463256,-0.22142278230969717zM-6.321085777633371,-0.23826631236712972L-2.2975123436049474,-0.9940293941478201L0.4902716688545295,-2.405908091575944z" style="fill:rgb(181,181,181);fill-opacity:1"></path><path d="M11.271423045914176,14.531102500893386L14.339423006111504,-1.5095194174145323L12.010126286637927,-0.7764425402538779zM-4.913127508610893,14.559819992961978L-3.248919292609263,-1.4798309654090709L-5.838379162089827,-0.7804602743201072z" style="fill:rgb(207,207,207);fill-opacity:1"></path><path d="M4.961450030545879,14.532464882314654L7.833567994606207,-0.9154517179713106L5.016595670678029,-0.9229281674307912zM-11.212930708958858,14.559235104836649L-10.158933741441674,-0.9172956575426346L-12.824284037013102,-0.8928153441891336z" style="fill:rgb(151,151,151);fill-opacity:1"></path><path d="M9.792854297510873,14.793147453696562L12.981482330247047,-1.1839566132239103L10.372429958076275,-0.6527164105434683z" style="fill:rgb(200,200,200);fill-opacity:1"></path><path d="M-13.277849655873606,-0.4283376601802087L-5.328351911522464,-0.3309982787957443L0.5434683347367772,-2.2423987616827135z" style="fill:rgb(181,181,181);fill-opacity:1"></path><path d="M-6.5092525626256865,14.822224466431614L-4.847198841278705,-1.1671208696275444L-7.614093106296132,-0.6432396752532054z" style="fill:rgb(200,200,200);fill-opacity:1"></path><path d="M6.552028680020277,14.793847192186806L9.637377052016982,-0.8811926898158999L6.782138229682296,-0.7236979806734658zM-9.744795808714436,14.822007048519158L-8.3988921729042,-0.8792765497216957L-11.20215225387748,-0.698044785953565z" style="fill:rgb(172,172,172);fill-opacity:1"></path><path d="M8.191528425761305,14.882733833800875L11.38557169681941,-0.9714157028119629L8.599478001338019,-0.6328853969637431zM-8.148856347413126,14.911652679659916L-6.5951540158988005,-0.9635218523065728L-9.434151090224217,-0.6138488284093777z" style="fill:rgb(188,188,188);fill-opacity:1"></path><path d="M1.5015120768733268,-1.2092972333786292L9.068456764264548,-0.12500193221459271L15.900419571504806,-1.2313139705836462zM11.456112271214716,-0.2801218739345731L13.844386980363097,-0.6833532764669148L15.849073157150327,-1.4746829833566357zM1.5234308307627833,-1.370810890072413L3.8817468753484423,-0.725912337944059L6.492561692914571,-0.3414349057416515zM-6.336832294684487,-0.3026062446274341L-3.72733602964381,-0.7073148097679793L-1.3810861308528108,-1.3827832929926627zM-15.727462413188341,-1.4062206766553396L-13.68940654791827,-0.6788363153408372L-11.30110888388711,-0.3076473553918991zM1.512243123310837,-1.3129442647254779L5.497006367054224,-0.42673080752777376L10.060617073125115,-0.19037893340351159zM8.072304164351129,-0.16610828175861705L12.449328085629725,-0.3982315450022326L15.880514496094376,-1.3657141788959137zM-13.28091057958216,-0.5273200419273215L-8.913688783762357,-0.182588710697081L-4.3573599319657985,-0.5374846832257005zM8.066934873709334,-0.22314219316912273L10.823755016863105,-0.28274194379919687L13.422730968714472,-0.6152883208138638zM4.510749777230968,-0.5894118150366029L7.259631388659696,-0.2903540005385114L10.064322283089354,-0.24140664220706903zM-9.912961371047098,-0.21007294738774673L-7.106603062109354,-0.2741105667017664L-4.360502141866105,-0.5896345947012245zM-13.278139004413333,-0.5799180689185831L-10.672788563092285,-0.26858062760673923L-7.91548959694342,-0.22531941226541524z" style="fill:rgb(181,181,181);fill-opacity:1"></path></svg>