<svg viewBox="-25 -25 50 50" width="50" height="50" style="background-color: rgb(255, 255, 255);"><path d="M-1.8160667832324722,5.676153015168544L0.5196459075119078,5.586698108872777L0.04576794482303444,-8.336253642880553z" style="fill:rgb(188,188,188);fill-opacity:1"></path><path d="M-0.569859389114298,5.58213709008662L1.7663013709864714,5.680249693774384L1.4018817997098767,-8.30556316390792z" style="fill:rgb(172,172,172);fill-opacity:1"></path><path d="M-3.0231295340017144,5.874292763097624L-0.7307752214163329,5.5960239629528505L-1.311676925636227,-8.30661163401837z" style="fill:rgb(200,200,200);fill-opacity:1"></path><path d="M0.6815725252553514,5.591227113248953L2.975243104346123,5.877749966869456L2.720925329398045,-8.215016040378629z" style="fill:rgb(151,151,151);fill-opacity:1"></path><path d="M-4.156016535129145,6.1759717586216L-1.951810565699026,5.705390174900281L-2.6347020843531874,-8.217006412498058z" style="fill:rgb(207,207,207);fill-opacity:1"></path><path d="M2.613417505584404,-8.217526573050517L1.9703560367886714,5.918140261870272L4.158719184659862,5.963738707139604z" style="fill:rgb(121,121,121);fill-opacity:1"></path><path d="M-5.17805288098526,6.579024794287876L-3.1111264743027816,5.9098478672983425L-3.8870466492534907,-8.068707083777666z" style="fill:rgb(211,211,211);fill-opacity:1"></path><path d="M5.165130466062922,6.574631792626173L3.8811372019568813,-8.070615863038702L3.1299215097201185,5.9161464943066z" style="fill:rgb(72,72,72);fill-opacity:1"></path><path d="M0.518514063932426,-7.84067004436994L-0.5200723277639762,-7.8406103372083145L0.0015403663715537613,6.107097094690668z" style="fill:rgb(181,181,181);fill-opacity:1"></path><path d="M1.9176720688254654,-7.794637917533994L-0.5199229279347467,-7.85182236296078L-0.05006005315382474,6.102503132399506z" style="fill:rgb(172,172,172);fill-opacity:1"></path><path d="M-1.8515044454259362,-7.800779860631279L-1.2944786707194373,6.157469125154108L0.5476237334481272,-7.848718682314667z" style="fill:rgb(188,188,188);fill-opacity:1"></path><path d="M-0.8331072539710788,-7.810570544269856L-1.8716252178562998,-7.810211791011666L-1.2413338980062392,6.158982163839555z" style="fill:rgb(181,181,181);fill-opacity:1"></path><path d="M3.2315754992339056,-7.68087980612842L0.832823869771694,-7.844840479120053L1.193826049012073,6.154172953956628z" style="fill:rgb(151,151,151);fill-opacity:1"></path><path d="M-3.166539399588077,-7.688034861454343L-2.5017458438159665,6.312878045896121L-0.8065633510172061,-7.841430632799398z" style="fill:rgb(200,200,200);fill-opacity:1"></path><path d="M1.1375279526288584,6.153351116415021L2.77299762501434,-8.214111394077467L2.6598953444317983,-7.220527998364171z" style="fill:rgb(179,179,179);fill-opacity:1"></path><path d="M-2.1506844338235394,-7.758050391072569L-3.186103767303633,-7.682122994693363L-2.4502559515258273,6.313845010180451z" style="fill:rgb(201,201,201);fill-opacity:1"></path><path d="M-6.050098322673907,7.079511828100651L-4.177912677667618,6.2019021080599614L-5.031573698942173,-7.864047033960031z" style="fill:rgb(211,211,211);fill-opacity:1"></path><path d="M-4.408605015094327,-7.514391292987996L-3.6395478717707404,6.56877475275131L-2.127740855204658,-7.776309335166638z" style="fill:rgb(207,207,207);fill-opacity:1"></path><path d="M2.1259062458322235,-7.7761165824897445L3.6431946433190863,6.5686807185422875L4.4067566453250215,-7.514496197114291z" style="fill:rgb(121,121,121);fill-opacity:1"></path><path d="M4.140646404867659,6.198058979182839L6.015969173741181,7.080669202665808L6.089178577389278,-7.603440798875116z" style="fill:rgb(0,0,0);fill-opacity:1"></path><path d="M-3.3951040575415403,-7.609290377235572L-4.430196560729099,-7.5328178009519915L-3.5912776754586857,6.569147190379546z" style="fill:rgb(201,201,201);fill-opacity:1"></path><path d="M-5.540066871132795,-7.280191151978213L-4.673242120482762,6.920593748926294L-3.3804538230055172,-7.656667244271922z" style="fill:rgb(211,211,211);fill-opacity:1"></path><path d="M4.6914486934218305,6.919253490151069L5.53177188301926,-7.490416827013527L3.370504825418092,-7.445107562049123z" style="fill:rgb(72,72,72);fill-opacity:1"></path><path d="M-6.729099733251925,7.670901651111913L-5.124886447141569,6.571446861203146L-6.030175378383752,-7.60667796353825z" style="fill:rgb(207,207,207);fill-opacity:1"></path><path d="M-4.541346840273088,-7.4727755570723815L-5.555330987274559,-7.258608441538354L-4.6294215063441655,6.92040813961555z" style="fill:rgb(211,211,211);fill-opacity:1"></path><path d="M5.212016068312835,-6.891483106321276L4.882916433324344,-7.840558466911677L4.631129295925333,6.921059518891242zM5.094539930665308,6.568457283511555L6.701976614139912,7.67140596839862L6.8894952177936135,-7.298959126370317zM4.608619665954641,6.91864628168566L6.560360528576225,-7.217476229531631L4.543328385291504,-7.254228432139103z" style="fill:rgb(0,0,0);fill-opacity:1"></path><path d="M-6.521437838058009,-6.985768285705424L-5.567753780396723,7.3614142805399085L-4.5293296521633915,-7.488193151765419z" style="fill:rgb(211,211,211);fill-opacity:1"></path><path d="M-7.165832603738929,8.340777074294747L-5.932072828508408,7.008018523465637L-6.844102359125255,-7.301893460043144z" style="fill:rgb(200,200,200);fill-opacity:1"></path><path d="M-5.530744520825679,-7.215145875352055L-6.5441250296686,-7.000215984149056L-5.529898705194995,7.360738426620689z" style="fill:rgb(211,211,211);fill-opacity:1"></path><path d="M6.517359640787189,-6.920361800295138L5.554951076737428,-7.295154263660569L5.532419879875858,7.360886442164035z" style="fill:rgb(0,0,0);fill-opacity:1"></path><path d="M4.457893168119065,-7.6166063351542626L4.6953370857009835,-6.457584475657615L7.004456715733789,-5.930950334159915z" style="fill:rgb(210,210,210);fill-opacity:1"></path><path d="M5.516575401042844,7.35963577649326L7.358046994172045,-6.910877788119767L5.531996350588591,-6.998150790124552zM5.910030213511768,7.006056874452392L7.146653257065869,8.340803927974065L7.4650129926920545,-6.954732542174967z" style="fill:rgb(0,0,0);fill-opacity:1"></path><path d="M-7.310145320445911,-6.630164867908741L-6.2880477104184935,7.881468269911164L-5.540618959634796,-7.280814967419313z" style="fill:rgb(207,207,207);fill-opacity:1"></path><path d="M-6.633857798527253,-7.261379732839578L-7.0490100051623354,-6.3438843847137925L-6.257832581429328,7.880989430776228z" style="fill:rgb(181,181,181);fill-opacity:1"></path><path d="M7.321438635752529,-6.615156300466277L6.359377475643873,-6.989730922014134L6.259845486738071,7.880606189942965z" style="fill:rgb(0,0,0);fill-opacity:1"></path><path d="M-7.306072487814724,9.059927797614948L-6.588344585445087,7.510633120059069L-7.434921469621677,-6.956959349645055z" style="fill:rgb(188,188,188);fill-opacity:1"></path><path d="M6.25285468236876,7.880105649726631L7.9291038584343445,-6.57534841696117L6.338430399360129,-6.6838088408919605zM6.575865953491754,7.509724557893693L7.29549695384712,9.059731296628119L7.779929914022024,-6.5803112187562105z" style="fill:rgb(0,0,0);fill-opacity:1"></path><path d="M-7.855648818290645,-6.207978091239598L-6.8001433089479395,8.467602349635884L-6.388438833439321,-7.052551479702671z" style="fill:rgb(200,200,200);fill-opacity:1"></path><path d="M-7.204857242104828,-6.911543786849803L-7.640921467349153,-6.0031090317088305L-6.778179949968394,8.466953403725615z" style="fill:rgb(181,181,181);fill-opacity:1"></path><path d="M7.640276295488092,-6.003148416904898L7.204250870373654,-6.9115615504722605L6.779391328218237,8.467007454156136z" style="fill:rgb(0,0,0);fill-opacity:1"></path><path d="M-7.116487286327019,9.766239473843656L-7.069358558294512,8.103017321782755L-7.7664985073244495,-6.581374208661497z" style="fill:rgb(172,172,172);fill-opacity:1"></path><path d="M-5.934930247147593,-6.7660700061879915L-8.365328461031428,-5.630775523497644L-9.915073875402527,-4.580009759038792z" style="fill:rgb(103,103,103);fill-opacity:1"></path><path d="M9.945842271209164,-4.628271973036687L8.345415936113243,-5.604297710545454L5.924045203066386,-6.744289130796053z" style="fill:rgb(196,196,196);fill-opacity:1"></path><path d="M6.7828469011629995,8.46685439651016L8.22972401699563,-6.244587150636567L6.933341410628883,-6.294425007418861zM7.067474936368898,8.102924479099512L7.114913853780422,9.766175015768948L7.803467262208771,-6.187632069764651z" style="fill:rgb(0,0,0);fill-opacity:1"></path><path d="M-8.259986983651887,-5.446233023063132L-5.9618712339078055,-6.814760354784096L-6.821065336864538,-6.30311066795354z" style="fill:rgb(181,181,181);fill-opacity:1"></path><path d="M-12.684803531881622,-1.8980280357032406L-8.309703880356345,-5.7614068837817545L-11.375443281361798,-3.324600788943466z" style="fill:rgb(53,53,53);fill-opacity:1"></path><path d="M-8.077167600387625,-5.707854807599842L-7.0727809590908315,9.10279281715543L-7.079804374771828,-6.831740786008262z" style="fill:rgb(188,188,188);fill-opacity:1"></path><path d="M-5.952039058703932,-6.796888882643164L-9.960593094715293,-4.655112647546566L-7.381977865218374,-5.924195797194308z" style="fill:rgb(103,103,103);fill-opacity:1"></path><path d="M7.380911201833253,-5.92217455344771L9.962180999333707,-4.658213812442811L5.951482665997514,-6.795813583742231z" style="fill:rgb(196,196,196);fill-opacity:1"></path><path d="M12.120768154553812,-2.665876218418984L8.325649474894393,-5.77862812249753L9.471925575959416,-4.572929195013394z" style="fill:rgb(206,206,206);fill-opacity:1"></path><path d="M-7.524459024143621,-6.534398312027381L-7.967249443911706,-5.6290773236637595L-7.060038620593919,9.102217646647304z" style="fill:rgb(181,181,181);fill-opacity:1"></path><path d="M7.966616910725466,-5.62911715007704L7.523863595355195,-6.534416947240972L7.061225517372323,9.102272964828998zM-15.962902928017318,4.5979596270115195L-13.452968056133566,-1.0889467820500325L-15.217933976213153,2.467365132232675z" style="fill:rgb(0,0,0);fill-opacity:1"></path><path d="M-7.139985093512264,-5.672924340609972L-6.779257465586858,-6.695419536634129L-9.955095180751522,-4.662625592067944z" style="fill:rgb(119,119,119);fill-opacity:1"></path><path d="M6.762714087234657,-6.6697904283269125L7.127375459820269,-5.6325282254154105L9.98421219895583,-4.728653970077862z" style="fill:rgb(207,207,207);fill-opacity:1"></path><path d="M11.393152670782122,-3.3459970459484607L8.73053033290245,-5.244076480002359L12.691422393921322,-1.9067592020280362z" style="fill:rgb(206,206,206);fill-opacity:1"></path><path d="M15.638589355426912,3.3692805602274065L13.47303425057393,-1.097217671252849L14.13328649318445,0.8117086679174073z" style="fill:rgb(213,213,213);fill-opacity:1"></path><path d="M10.276737292900753,-3.989997007960431L9.206685275667516,-5.317123437584567L6.508019974133394,-6.393970200935057z" style="fill:rgb(204,204,204);fill-opacity:1"></path><path d="M-12.71517039052404,-1.929254255258045L-9.302064458204699,-4.476627255829364L-8.542959100603445,-5.931929126398799z" style="fill:rgb(53,53,53);fill-opacity:1"></path><path d="M-6.662821331429524,-6.589172958165396L-9.985813574375525,-4.710400245847414L-7.547696985201433,-5.355851481664339z" style="fill:rgb(114,114,114);fill-opacity:1"></path><path d="M7.067161128247117,9.102608658128629L8.021013447149087,-6.126647543513221L7.497083587255347,-5.643635689293326z" style="fill:rgb(0,0,0);fill-opacity:1"></path><path d="M-9.220363602078523,-5.362318185411442L-10.28003643840183,-3.995224942897996L-6.813068433633727,-5.968001501614332z" style="fill:rgb(114,114,114);fill-opacity:1"></path><path d="M-14.629231322362928,1.671212719302706L-11.388081472488258,-3.4074281299166067L-14.030205630976173,-0.2630476113669977z" style="fill:rgb(0,0,0);fill-opacity:1"></path><path d="M15.252239286208846,2.4504800497777093L13.739708224806098,-0.1078433796501217L15.973845299272948,4.592155404289726z" style="fill:rgb(213,213,213);fill-opacity:1"></path><path d="M-7.823622985641252,-5.190233771291541L-7.079801844364358,9.765850795249833L-7.699086276421152,-6.579904023679754z" style="fill:rgb(172,172,172);fill-opacity:1"></path><path d="M-16.104052914419373,12.236634524208924L-16.316773957092323,5.666579085007299L-16.390943011897107,9.6275658761962z" style="fill:rgb(0,0,0);fill-opacity:1"></path><path d="M14.553174024562374,0.5467657157186266L11.448961963013684,-3.440522967086804L12.022786286851437,-1.7460764157988593z" style="fill:rgb(216,216,216);fill-opacity:1"></path><path d="M7.584947203058013,-5.419819425249432L10.385978335319733,-4.132453338090164L6.670546893009651,-6.615953671227052z" style="fill:rgb(204,204,204);fill-opacity:1"></path><path d="M-16.006916771537156,4.5799402887784115L-14.099589547577123,0.8136622514619816L-13.565381787831523,-1.1287768520526833z" style="fill:rgb(0,0,0);fill-opacity:1"></path><path d="M16.417087312144904,10.61842999421131L16.339558295098634,5.66799465518699L16.024389300651432,8.13212668153825z" style="fill:rgb(206,206,206);fill-opacity:1"></path><path d="M-7.561765995963783,-6.1423727422578756L-7.9972912519609665,-5.233926949294994L-7.077006335713879,9.765599286906912z" style="fill:rgb(181,181,181);fill-opacity:1"></path><path d="M7.996690001438118,-5.233964684057727L7.561199484807159,-6.14239102273652L7.078132066031895,9.765652084280816z" style="fill:rgb(0,0,0);fill-opacity:1"></path><path d="M7.08597089172692,-6.3002087055813165L7.4593689215068215,-5.281305141610838L10.418126464505916,-4.211167813063686z" style="fill:rgb(207,207,207);fill-opacity:1"></path><path d="M-12.643772007629117,-1.0169565703415948L-8.79094468569693,-5.312968372224637L-12.235158300333492,-2.7563804615936296z" style="fill:rgb(86,86,86);fill-opacity:1"></path><path d="M14.088473222883273,-0.3091665889546942L11.517048819990999,-2.6079225305398066L14.65489446481454,1.6487344900631966z" style="fill:rgb(216,216,216);fill-opacity:1"></path><path d="M12.790077615595823,-2.0301531710949465L8.88402454543029,-5.380767788076678L9.426269047918957,-3.92347699639513z" style="fill:rgb(215,215,215);fill-opacity:1"></path><path d="M-14.75548641909017,1.6088621945772363L-11.746785310774882,-1.778268786624107L-11.854680796860212,-3.512021037964111zM-16.1329902904591,9.118873664637082L-15.424960540258219,2.6850001853189305L-16.48288627254222,6.659578740889558z" style="fill:rgb(0,0,0);fill-opacity:1"></path><path d="M16.462380517690917,9.624737419168069L16.065777464988376,7.131825834140426L16.12135514698925,12.235456952026711z" style="fill:rgb(206,206,206);fill-opacity:1"></path><path d="M7.287102494553202,-4.8404666448927L10.44391136031532,-4.257463977927212L7.266004630486918,-6.301164331621968z" style="fill:rgb(210,210,210);fill-opacity:1"></path><path d="M-6.934671552620173,-6.177391514390493L-10.347474855166107,-4.7085957800933045L-9.571526698943915,-3.436146381578327z" style="fill:rgb(127,127,127);fill-opacity:1"></path><path d="M-10.402224939337712,-3.4977446710230855L-6.933518573903668,-6.196386062931981L-7.7227871647801765,-5.5823382104515975z" style="fill:rgb(112,112,112);fill-opacity:1"></path><path d="M12.280824597187335,-2.8118943038589332L8.810144871397144,-4.704596028328883L12.67390643534343,-1.0536022176594813z" style="fill:rgb(215,215,215);fill-opacity:1"></path><path d="M16.676411662719012,7.58210045517648L15.49982090405581,2.6834352226685994L15.126676392403612,4.988300902023731z" style="fill:rgb(216,216,216);fill-opacity:1"></path><path d="M-16.15895659038109,12.239449262834263L-16.051766720430457,8.120231775687976L-16.409306660372707,5.674123692066501z" style="fill:rgb(0,0,0);fill-opacity:1"></path><path d="M-12.865927470543408,-1.139959065677925L-8.820257705091457,-4.164235811503582L-9.627133664482159,-5.299299275551659z" style="fill:rgb(86,86,86);fill-opacity:1"></path><path d="M6.83441212015838,-5.54199549045265L10.328769992006125,-3.4489301829099666L9.72400900088381,-4.9376221724278215z" style="fill:rgb(210,210,210);fill-opacity:1"></path><path d="M7.637834036012578,-6.5787256854848915L7.841264138541503,-4.1923669538293185L7.756325488016553,-5.18875298298095z" style="fill:rgb(181,181,181);fill-opacity:1"></path><path d="M-10.395410035187636,-3.5037925778778356L-6.853048976003217,-5.27122917008099L-7.843624153614762,-6.1078605839071285z" style="fill:rgb(127,127,127);fill-opacity:1"></path><path d="M7.707972020059319,-4.832754619444311L7.293856931335208,-5.750252698450813L6.811757038208138,10.43182765919223zM-15.444772438241126,5.888379399789422L-13.859576062967005,-0.15882943017756918L-15.898999823372423,3.6347859986815347z" style="fill:rgb(0,0,0);fill-opacity:1"></path><path d="M16.61986809715572,6.618438644354043L15.047696912076425,3.9900659098278517L16.18382383658949,9.103448806011658z" style="fill:rgb(216,216,216);fill-opacity:1"></path><path d="M16.164368642248125,4.473254036963985L13.994330097667074,-0.17382685656732932L13.612020336498592,1.9284286829046526z" style="fill:rgb(221,221,221);fill-opacity:1"></path><path d="M-7.510088050129554,-4.939872046715239L-7.144770236513282,-5.940234895713212L-10.470777355374645,-3.6091887943620002z" style="fill:rgb(119,119,119);fill-opacity:1"></path><path d="M-16.298251897226763,9.112960844859456L-15.108329980642806,4.895561927467295L-15.734123200399107,2.7065384221294893z" style="fill:rgb(0,0,0);fill-opacity:1"></path><path d="M-14.05190868265447,2.7102462886516867L-11.668351266027106,-2.7171472830385177L-14.639033243594206,0.7015692148452406z" style="fill:rgb(66,66,66);fill-opacity:1"></path><path d="M14.920979999818922,1.4571948962854995L11.865737881617504,-2.7604755214263736L11.508285171236054,-0.8904488102839136z" style="fill:rgb(223,223,223);fill-opacity:1"></path><path d="M-10.490348533344726,-3.6612858748820227L-6.527148741694922,-4.789401727667703L-7.830860655476603,-5.641892682364221z" style="fill:rgb(140,140,140);fill-opacity:1"></path><path d="M6.729765684472109,-4.524940948947788L10.531712926695667,-3.7269209915550268L7.586839226326588,-5.840720996467295z" style="fill:rgb(215,215,215);fill-opacity:1"></path><path d="M13.00816955973104,-1.3153679872577828L9.186967510994647,-4.938554480657464L8.922288753732344,-3.307146082802217z" style="fill:rgb(221,221,221);fill-opacity:1"></path><path d="M-12.01901827497391,-0.24787061550873923L-8.941686427554105,-4.847870397066124L-12.742273424681866,-1.9866606375390008z" style="fill:rgb(111,111,111);fill-opacity:1"></path><path d="M16.027835401062948,3.5605751256889695L13.422350874190004,0.9550520926479582L15.519981735219192,5.853331888166066z" style="fill:rgb(221,221,221);fill-opacity:1"></path><path d="M-15.71938786906008,5.861154266101752L-13.451322941440008,1.7167628521973533L-14.410608498512538,-0.10157400970493496zM-14.928378710308879,13.802705160114813L-16.2402701802315,7.135783036741063L-16.421946537649127,11.310908638474936z" style="fill:rgb(0,0,0);fill-opacity:1"></path><path d="M8.329201948339856,-6.008394556909487L6.906169943263436,-3.9723961103704672L7.4790469161395645,-4.792037436321761z" style="fill:rgb(181,181,181);fill-opacity:1"></path><path d="M14.731519684482686,0.6138699961653664L11.217235171054432,-1.8211350808535673L14.135668054757742,2.6587256244706765z" style="fill:rgb(223,223,223);fill-opacity:1"></path><path d="M-10.343123956306863,-4.441706673249084L-9.4290114036949,-2.7897896746084614L-6.641949091254675,-5.2579123243377826z" style="fill:rgb(140,140,140);fill-opacity:1"></path><path d="M6.56914831597782,-5.15736395580559L9.819049540813316,-2.817955140499251L10.02584999713011,-4.514089951311752z" style="fill:rgb(215,215,215);fill-opacity:1"></path><path d="M12.796027565808759,-2.070250013677728L8.523507709526312,-4.179560158857138L12.092523464606213,-0.30637430149582157z" style="fill:rgb(221,221,221);fill-opacity:1"></path><path d="M-14.441625135508385,2.655126083473038L-11.191693440775058,-1.2505885197025035L-12.428556370019471,-2.5936546148417023z" style="fill:rgb(66,66,66);fill-opacity:1"></path><path d="M16.459509217281415,12.153035154266624L16.342481573821242,7.1716123853005165L14.758134151965836,9.655655522492276z" style="fill:rgb(213,213,213);fill-opacity:1"></path><path d="M-12.533176456331375,-0.33667920778884647L-8.47920964714993,-3.798368373551014L-9.830225366283337,-4.669235218840754z" style="fill:rgb(111,111,111);fill-opacity:1"></path><path d="M-6.620418676653607,-4.727122161767415L-7.542936240290541,-5.438671029553595L-10.116834632012248,-3.003858412186425z" style="fill:rgb(151,151,151);fill-opacity:1"></path><path d="M-14.94769876471229,10.526800549005944L-15.32607180837276,3.9274489133382824L-16.517772232076144,8.204183401420659z" style="fill:rgb(0,0,0);fill-opacity:1"></path><path d="M16.693196546687197,11.254789558870472L14.959448219094972,8.679989069686203L15.040268103386932,13.799883553809629z" style="fill:rgb(213,213,213);fill-opacity:1"></path><path d="M-10.185593089106534,-3.1125304843682557L-5.917623445284372,-4.467609080974635L-7.57882718144875,-5.206915519510099z" style="fill:rgb(153,153,153);fill-opacity:1"></path><path d="M16.60482251285885,8.971532850110572L15.495328948910391,3.9737148638387843L13.961740028003705,6.281665546514109z" style="fill:rgb(222,222,222);fill-opacity:1"></path><path d="M-15.17543829726419,13.870923051024374L-14.902380123749216,9.481617556791445L-16.584421866143906,7.269875757080474z" style="fill:rgb(0,0,0);fill-opacity:1"></path><path d="M8.46090968316218,-2.337598170489992L10.188315582225284,-3.693876784378112L6.775726857497707,-5.418529647783973z" style="fill:rgb(218,218,218);fill-opacity:1"></path><path d="M12.718862049859423,-0.5436719681780462L9.143820243462178,-4.397021753421159L7.990801747785849,-2.8241816997682174z" style="fill:rgb(225,225,225);fill-opacity:1"></path><path d="M-14.26763681572788,7.070856769176933L-13.720420718452477,0.8228335617151477L-15.903355642654265,4.987104591668217z" style="fill:rgb(63,63,63);fill-opacity:1"></path><path d="M6.072260114080498,-4.430365429239404L9.323518188073475,-2.3702898364679172L7.588019070828992,-5.473211365685105z" style="fill:rgb(218,218,218);fill-opacity:1"></path><path d="M16.005421399859138,5.6815922368641445L13.968783654990258,0.8704992157100271L12.510000452480721,2.9366528309281454z" style="fill:rgb(227,227,227);fill-opacity:1"></path><path d="M-10.972908600368857,0.4168129453753397L-8.732696323091224,-4.382485707719777L-12.625748341216838,-1.08400172004576z" style="fill:rgb(133,133,133);fill-opacity:1"></path><path d="M-10.20526018312764,-3.742786869262586L-8.538145402581556,-2.3897327258171344L-6.083438809309842,-4.93488837798602z" style="fill:rgb(153,153,153);fill-opacity:1"></path><path d="M14.687358752962037,2.452014124337127L11.820307139437013,-1.9704357132836434L10.473443028559938,-0.16417643050522163z" style="fill:rgb(228,228,228);fill-opacity:1"></path><path d="M-12.914946967286667,3.6335404394227964L-11.485842114413364,-2.0026359359930956L-14.58657531210035,1.832947682190337z" style="fill:rgb(106,106,106);fill-opacity:1"></path><path d="M16.745775513501115,8.098787592317299L14.06165505758176,5.315676230764332L15.094718794163358,10.507330264849044z" style="fill:rgb(222,222,222);fill-opacity:1"></path><path d="M-6.038351475144957,-4.375356069444951L-6.974015124675346,-5.08142357589828L-9.373327288753952,-2.4344878586002365z" style="fill:rgb(151,151,151);fill-opacity:1"></path><path d="M-15.30786028056865,10.600252329335563L-14.016762214926256,5.999645837093882L-15.83965742380016,4.1122612851387155z" style="fill:rgb(0,0,0);fill-opacity:1"></path><path d="M-11.640959943751822,0.46942567043861977L-7.791580238156472,-3.372895866410305L-9.615086387532525,-4.111682798511039z" style="fill:rgb(133,133,133);fill-opacity:1"></path><path d="M12.697191664773179,-1.1964888928219812L7.845215183255994,-3.6866276401482416L11.090707516473598,0.34663759097448626z" style="fill:rgb(225,225,225);fill-opacity:1"></path><path d="M16.073024341236543,4.85929451239037L12.526567651865602,1.997789021797411L14.427857106885567,7.031498122950269z" style="fill:rgb(227,227,227);fill-opacity:1"></path><path d="M-9.460913013537297,-2.560076364427204L-5.003598878913854,-4.171069926646946L-7.008534844792139,-4.81047750514273z" style="fill:rgb(165,165,165);fill-opacity:1"></path><path d="M5.047503224522583,-4.020489015330348L9.505320844757797,-2.616031822092688L6.920179058965216,-4.905103813708387z" style="fill:rgb(220,220,220);fill-opacity:1"></path><path d="M14.701927062247035,1.7038665790989573L10.414379666002349,-1.0658010219293255L13.065135855686506,3.5755169238967857z" style="fill:rgb(228,228,228);fill-opacity:1"></path><path d="M-14.735196195213629,7.142350278924022L-12.472219776844295,2.5571398780045516L-14.387460535537322,1.0525991141871684z" style="fill:rgb(63,63,63);fill-opacity:1"></path><path d="M-13.485094936450196,3.698979389322318L-10.354678759755773,-0.6327679450098568L-12.277435673413656,-1.7410355399447022z" style="fill:rgb(106,106,106);fill-opacity:1"></path><path d="M-7.81473170108692,-4.767192829908092L-5.034452867277435,-3.7020422141057754L-5.968268422371671,-4.059795750872495z" style="fill:rgb(181,181,181);fill-opacity:1"></path><path d="M-13.034284873458876,15.256064384923985L-15.424819525091094,8.640299366151318L-15.639793408024591,13.059358391246537z" style="fill:rgb(0,0,0);fill-opacity:1"></path><path d="M15.641461798885503,13.727193293979758L15.569577307013597,8.736832847537865L12.859534258058376,11.071507932506151z" style="fill:rgb(217,217,217);fill-opacity:1"></path><path d="M-9.554408685126724,-3.101480412970314L-7.333043032275793,-1.9836399088803436L-5.222641442318778,-4.645480798582193z" style="fill:rgb(165,165,165);fill-opacity:1"></path><path d="M5.123784696354183,-4.540405271190334L7.545527248512574,-1.885274639594358L9.440738738736368,-3.304919493059588z" style="fill:rgb(220,220,220);fill-opacity:1"></path><path d="M11.881176593245865,0.245036099360087L8.623678823375773,-3.811200993069026L6.738628372727417,-2.461821550341884z" style="fill:rgb(227,227,227);fill-opacity:1"></path><path d="M-5.090492490578899,-4.213100280661809L-6.168927705967683,-4.62277580490752L-8.195079216667448,-1.882132033533004z" style="fill:rgb(171,171,171);fill-opacity:1"></path><path d="M-9.461452614004736,1.0523280915836886L-8.149266548988434,-3.9329050971838315L-11.86314685428514,-0.2032812038366827z" style="fill:rgb(152,152,152);fill-opacity:1"></path><path d="M-8.312043678705122,-2.031151042333622L-3.807620095286022,-3.926255900853679L-6.1337152068332115,-4.463077976814679z" style="fill:rgb(177,177,177);fill-opacity:1"></path><path d="M15.99593991642948,12.920791505740798L13.160286947911736,10.17814169136278L13.248643769095754,15.284649736481196z" style="fill:rgb(217,217,217);fill-opacity:1"></path><path d="M-13.055616637370813,11.834060105305138L-14.532848273460367,5.1972650425101525L-15.722096919146107,9.803565572353191z" style="fill:rgb(76,76,76);fill-opacity:1"></path><path d="M15.732861527683253,10.421949856793981L14.746591767625898,5.321525258380579L12.154663283568393,7.44121761234318z" style="fill:rgb(225,225,225);fill-opacity:1"></path><path d="M-10.167473797228352,1.2303243767348373L-6.716754325914694,-2.9702181022077534L-9.005901769522207,-3.585196527450075z" style="fill:rgb(152,152,152);fill-opacity:1"></path><path d="M13.799739016165866,3.47743375416857L11.179981908850381,-1.1386562188224414L8.978167559617656,0.4390291398102135z" style="fill:rgb(231,231,231);fill-opacity:1"></path><path d="M-13.407232856302793,15.428918045097312L-13.107835468820749,10.780474209735392L-15.859413910137123,8.905077654958049z" style="fill:rgb(0,0,0);fill-opacity:1"></path><path d="M5.548467046358094,-1.559264278785315L8.41861271916802,-2.456715521475903L5.550087210425349,-4.833530389411756zM3.97224475318168,-4.0170117714333715L6.426532333625929,-1.3085144828305104L6.367574489342143,-4.687840705020648z" style="fill:rgb(220,220,220);fill-opacity:1"></path><path d="M11.961068304995015,-0.33778054238411975L6.775358055983181,-3.2488294980972263L9.631497885525086,0.9767287130644461z" style="fill:rgb(227,227,227);fill-opacity:1"></path><path d="M-11.205468046797558,4.497126670833739L-10.79758254876685,-1.288888165684462L-13.784578221026932,2.969499425623336z" style="fill:rgb(135,135,135);fill-opacity:1"></path><path d="M15.11055419639822,6.937928662203036L13.259484643791033,1.963788028915241L10.830956418783765,3.81453882135359z" style="fill:rgb(230,230,230);fill-opacity:1"></path><path d="M-12.434540089888571,8.169559925002222L-12.965959652726545,1.8187381598634111L-15.096860268335563,6.372798608361665z" style="fill:rgb(111,111,111);fill-opacity:1"></path><path d="M-8.459240521624265,-2.5322226991439662L-5.757285677070767,-1.604837047796746L-4.099566045925398,-4.414928872983688z" style="fill:rgb(177,177,177);fill-opacity:1"></path><path d="M5.009582524467161,-4.266803173283986L3.891858755940996,-4.013720651064255L6.663789536697425,-1.435320066188806z" style="fill:rgb(218,218,218);fill-opacity:1"></path><path d="M15.997573680638677,9.639607108988155L12.383383465799994,6.564704915763919L13.28879550504951,11.83976156855188z" style="fill:rgb(225,225,225);fill-opacity:1"></path><path d="M-6.758618124108273,-1.5545863825646382L-2.3768636143434474,-3.7556426580666136L-4.987365350996287,-4.178053608092811z" style="fill:rgb(187,187,187);fill-opacity:1"></path><path d="M-11.838706809236198,4.68537870924406L-9.018039804973863,-0.013115819075156729L-11.571265545276065,-0.9380805611083475z" style="fill:rgb(135,135,135);fill-opacity:1"></path><path d="M-13.524741101638359,12.018431788243054L-12.321312016531111,7.090251306823801L-15.094125472702807,5.503850518205316z" style="fill:rgb(76,76,76);fill-opacity:1"></path><path d="M13.931373308061294,2.810697907996193L9.085185085702406,-0.3762265002400554L11.417639173249738,4.44617092516992z" style="fill:rgb(231,231,231);fill-opacity:1"></path><path d="M10.47918200237654,1.0011455935529832L7.629515774940679,-3.278079801665793L5.188507172228797,-2.167063295624851z" style="fill:rgb(227,227,227);fill-opacity:1"></path><path d="M15.302326194293753,6.203676035244901L10.997892694028781,2.966170276144117L12.667185974067031,8.147639443995333z" style="fill:rgb(230,230,230);fill-opacity:1"></path><path d="M-12.989695970547572,8.358859672621035L-10.929720074554437,3.411999262996524L-13.640851299025522,2.1545626985188897z" style="fill:rgb(111,111,111);fill-opacity:1"></path><path d="M2.593471657844853,-3.8945269066840726L4.391840342999202,-0.9419993262618042L5.326630895175551,-4.337981266342934zM3.589553486081977,-1.3115512594359695L6.9053885921936295,-1.9537756453004718L4.523266405838426,-4.565768739906929z" style="fill:rgb(218,218,218);fill-opacity:1"></path><path d="M-2.536582246095742,-3.9433407150982682L-3.708672858448932,-4.021058008051337L-4.6243053268965335,-0.9825475541009782z" style="fill:rgb(208,208,208);fill-opacity:1"></path><path d="M3.6554978334220403,-4.07996308741361L2.5002761949828436,-3.8376858625669463L4.713736877284668,-1.029296546331527z" style="fill:rgb(218,218,218);fill-opacity:1"></path><path d="M-7.44344024877186,1.6114659834902847L-7.192715018843037,-3.512855033177306L-10.499367557386352,0.6063557528516892z" style="fill:rgb(169,169,169);fill-opacity:1"></path><path d="M-10.406209745600915,16.536807137168964L-13.804253905322788,10.096251760699086L-14.000294354017292,14.736289096792886z" style="fill:rgb(93,93,93);fill-opacity:1"></path><path d="M-8.13431681189571,1.8893069401422076L-5.278955851115056,-2.6302047156309096L-8.00492625405514,-3.091149953907237z" style="fill:rgb(169,169,169);fill-opacity:1"></path><path d="M-4.848507353522636,-1.161215784261737L-0.7806473390707644,-3.677955645767253L-3.623766699811993,-3.964790433978011z" style="fill:rgb(196,196,196);fill-opacity:1"></path><path d="M-6.965973116841561,-2.043550824064436L-3.8400632553512124,-1.3050026032730848L-2.7697890872504227,-4.254981613534412z" style="fill:rgb(187,187,187);fill-opacity:1"></path><path d="M1.078075194006129,-3.8438874747845535L2.103395941185197,-0.7385426327953503L4.023906554260562,-4.02330747106596z" style="fill:rgb(215,215,215);fill-opacity:1"></path><path d="M13.972827632233544,15.27416769955704L13.953944226367932,10.250792552388399L10.259964537907598,12.289357094551926z" style="fill:rgb(217,217,217);fill-opacity:1"></path><path d="M10.630087928612499,0.4537474822224048L5.343671453085516,-2.89119134877663L7.674735069373567,1.5495319532519223z" style="fill:rgb(227,227,227);fill-opacity:1"></path><path d="M-1.0100533588837588,-3.850841160897917L-2.218424806229996,-3.891619145172515L-2.360310654864288,-0.7202933275760448zM2.1594256919440635,-3.889355180242011L0.962675807746658,-3.8273707847597405L2.4666372425903145,-0.7460273432974833z" style="fill:rgb(207,207,207);fill-opacity:1"></path><path d="M-2.661367500236812,-0.8838101669593326L0.8933399099898335,-3.707100815500987L-2.11269192224089,-3.8230605403117273z" style="fill:rgb(204,204,204);fill-opacity:1"></path><path d="M12.22888145328624,4.466396505298168L9.93232886368605,-0.3643365810584632L7.0343125134360935,0.9469799965484692z" style="fill:rgb(231,231,231);fill-opacity:1"></path><path d="M-0.31012132940560183,-0.7519928756996695L2.5445737319441672,-3.85028330632756L-0.5264082772452033,-3.7438768809400855z" style="fill:rgb(210,210,210);fill-opacity:1"></path><path d="M1.4242049335001683,-1.198534340490375L5.045062665684046,-1.547699700299625L3.248159265487663,-4.3453017046760145z" style="fill:rgb(215,215,215);fill-opacity:1"></path><path d="M0.5805940523127766,-3.836404641007952L-0.6387271900296001,-3.8233159896160807L0.058107850041094436,-0.6376503214688523z" style="fill:rgb(207,207,207);fill-opacity:1"></path><path d="M8.530722956821554,1.6765032941210454L6.229948642161963,-2.8388524722971153L3.359642733506182,-1.9488042458108594z" style="fill:rgb(225,225,225);fill-opacity:1"></path><path d="M-5.136017409032547,-1.6516730424406534L-1.6655570637667148,-1.1312084376616696L-1.2992639050824344,-4.165670958405852z" style="fill:rgb(196,196,196);fill-opacity:1"></path><path d="M14.396093365569147,14.541190676336733L10.624507435091182,11.491175136738464L10.69638711029233,16.608976509530265z" style="fill:rgb(217,217,217);fill-opacity:1"></path><path d="M-8.883238354083105,5.256829046536866L-9.581380783791547,-0.6070230563850939L-12.256323596385245,4.029106383247751z" style="fill:rgb(158,158,158);fill-opacity:1"></path><path d="M-10.428980145255323,12.989330712764046L-12.986882415851419,6.4251370340271645L-14.066244279864327,11.32943290420973z" style="fill:rgb(122,122,122);fill-opacity:1"></path><path d="M14.035921052589773,11.840057404946696L13.196552117872432,6.617523706547206L9.677488129656888,8.436923444842764z" style="fill:rgb(225,225,225);fill-opacity:1"></path><path d="M-0.8298797325634543,-1.2203507395970712L2.919418094591891,-1.2601952021396934L1.791130519016334,-4.201963894502494z" style="fill:rgb(210,210,210);fill-opacity:1"></path><path d="M13.444162229199671,8.158513968001342L11.829411979973715,3.0016736147111263L8.573355876057828,4.56351421674322z" style="fill:rgb(230,230,230);fill-opacity:1"></path><path d="M-3.055282011490303,-1.373351880731394L0.6372601426117541,-1.1151642288687431L0.24537096472184491,-4.145211941111934z" style="fill:rgb(204,204,204);fill-opacity:1"></path><path d="M-10.847556531714396,16.808087672068986L-10.575966530358462,11.960388525608984L-14.265242787683553,10.452659645089462z" style="fill:rgb(93,93,93);fill-opacity:1"></path><path d="M-9.909253782652298,9.139586195280058L-11.553194451718522,2.7778833743285594L-13.474830830557888,7.681969433985992z" style="fill:rgb(143,143,143);fill-opacity:1"></path><path d="M-5.619241094614397,2.3896417355613906L-3.5372824212722995,-2.380072672687414L-6.6277869964767495,-2.6438128913407484z" style="fill:rgb(184,184,184);fill-opacity:1"></path><path d="M-9.519504816845831,5.543738988927008L-7.17687131569749,0.5330431990870683L-10.315813391844756,-0.18585339702427572z" style="fill:rgb(158,158,158);fill-opacity:1"></path><path d="M-4.9748356435967,2.027635488305065L-5.880517533742781,-3.1363990076871837L-8.578085637474254,1.309712973591677z" style="fill:rgb(184,184,184);fill-opacity:1"></path><path d="M12.438794702119502,3.8528152317750406L7.249636950167546,0.2081956220215196L9.153414092922565,5.229858290608759z" style="fill:rgb(231,231,231);fill-opacity:1"></path><path d="M14.37706032689176,11.131800675283332L9.990625706267666,7.6541447846247355L10.724961742501067,13.030753990061008zM8.74946142509079,1.144449481871422L3.6118758226729226,-2.6364641723141022L5.261192949967287,2.0067413898629836z" style="fill:rgb(225,225,225);fill-opacity:1"></path><path d="M6.098537272740687,2.2230760557455076L4.5069033397205605,-2.5099583866813213L1.320468675614818,-1.8353615793744826z" style="fill:rgb(221,221,221);fill-opacity:1"></path><path d="M-10.943524839962931,13.270973524877169L-9.924666559849578,8.082998901706556L-13.54810858203814,6.812508673830502z" style="fill:rgb(122,122,122);fill-opacity:1"></path><path d="M-10.487681599930252,9.42668708995784L-8.76516470924003,4.183056114533501L-12.204724802996004,3.186742140078402z" style="fill:rgb(143,143,143);fill-opacity:1"></path><path d="M13.716030273243312,7.4910767814403965L8.838711065879865,3.8024340587198764L10.199109111226926,9.147828894461515z" style="fill:rgb(230,230,230);fill-opacity:1"></path><path d="M-2.755899711996808,2.6868856926556757L-1.578968458445595,-2.2369845881435286L-4.915303868091159,-2.2684660533280327z" style="fill:rgb(196,196,196);fill-opacity:1"></path><path d="M-7.096487613797568,17.540501871441986L-11.371969910481702,11.401163041035195L-11.527796655943646,16.22431364696784z" style="fill:rgb(133,133,133);fill-opacity:1"></path><path d="M9.987105830441063,5.350110645856831L8.133564601726025,0.29620144542536664L4.676362798947024,1.333485342439877z" style="fill:rgb(228,228,228);fill-opacity:1"></path><path d="M3.295496282998246,2.5952406383369024L2.557216850753581,-2.299452644613339L-0.8227142383300301,-1.8483099474467966z" style="fill:rgb(215,215,215);fill-opacity:1"></path><path d="M0.2807449970100159,2.7563241612219533L0.4903833987072756,-2.209032139212409L-2.9437811396159326,-1.9954863240683323z" style="fill:rgb(206,206,206);fill-opacity:1"></path><path d="M-2.1834488252393522,2.254757580463125L-4.252465869802289,-2.8242170938176017L-6.174825659896505,1.8647763514449252z" style="fill:rgb(196,196,196);fill-opacity:1"></path><path d="M11.481249789975335,16.67181006864727L11.506125525060495,11.599977153917898L6.991318107390787,13.231872636055044z" style="fill:rgb(213,213,213);fill-opacity:1"></path><path d="M6.394177299628113,1.6987224709998474L1.6711078126058574,-2.500636887478694L2.4979046386613764,2.2954565555047273z" style="fill:rgb(221,221,221);fill-opacity:1"></path><path d="M-6.0055870887051395,5.836930518679585L-7.847839528313433,0.0034598751094346847L-10.04295652157772,4.954544919677975zM-6.612133136419702,6.204285413693821L-4.8947644979016935,0.9534123541127881L-8.528058702635898,0.4842726414407506z" style="fill:rgb(177,177,177);fill-opacity:1"></path><path d="M11.943684171465915,16.004489085291407L7.396025219570453,12.517075031152984L7.440183412081045,17.65495002011017z" style="fill:rgb(213,213,213);fill-opacity:1"></path><path d="M0.7624763413010258,2.273308052374478L-2.3805379605889154,-2.601852838542555L-3.4119940208233714,2.230094501741602z" style="fill:rgb(206,206,206);fill-opacity:1"></path><path d="M11.013397941129478,9.253618053786774L9.71765527813072,3.906654908399419L5.7809581258606935,5.140286855957022z" style="fill:rgb(227,227,227);fill-opacity:1"></path><path d="M-7.119331837880902,13.893769122310024L-10.685172329431962,7.52558864582715L-11.578192453884373,12.679848253919733z" style="fill:rgb(152,152,152);fill-opacity:1"></path><path d="M10.264137685343087,4.771673489185153L4.976600809793146,0.6478771969804953L6.319539970770268,5.852299486128224z" style="fill:rgb(228,228,228);fill-opacity:1"></path><path d="M3.680634724017157,2.0833755684469946L-0.3666607009133197,-2.4901041342522805L-0.45660225661470666,2.37609713400728z" style="fill:rgb(215,215,215);fill-opacity:1"></path><path d="M-7.573133551399611,17.894632364022424L-7.344518317573737,12.901558702857617L-11.838339941810817,11.825277222441166z" style="fill:rgb(133,133,133);fill-opacity:1"></path><path d="M11.522809750815437,13.117267228696512L10.86740550850834,7.7636110987422295L6.575414622471104,9.207746425494753z" style="fill:rgb(222,222,222);fill-opacity:1"></path><path d="M-6.745580491756563,9.892971611685267L-9.485758891871571,3.636460644242952L-11.071951260056096,8.83403509334779z" style="fill:rgb(167,167,167);fill-opacity:1"></path><path d="M7.147126776005552,6.059522106197891L5.872452553824016,0.8064995056231319L2.0034765655131017,1.5565438755072547z" style="fill:rgb(223,223,223);fill-opacity:1"></path><path d="M-7.313124933016278,10.258924670283625L-6.037819531081769,4.788876042036895L-10.099911415888009,4.102100188262464z" style="fill:rgb(167,167,167);fill-opacity:1"></path><path d="M11.91635003933595,12.471291980530665L6.947011245460729,8.502658980125359L7.458062729320742,13.974609224820512z" style="fill:rgb(222,222,222);fill-opacity:1"></path><path d="M11.34708917487714,8.637609870518915L6.11904769258831,4.446498064623548L7.074967433558817,9.941542007680049z" style="fill:rgb(227,227,227);fill-opacity:1"></path><path d="M-7.644619333720953,14.254805162310586L-6.875185345783069,8.871499726785743L-11.229590556289217,7.972841040847227z" style="fill:rgb(152,152,152);fill-opacity:1"></path><path d="M-3.2697343582552207,6.609325037119797L-2.286147381421467,1.2088678709000633L-6.268685013043316,1.0288225064660361z" style="fill:rgb(193,193,193);fill-opacity:1"></path><path d="M-3.2602141997072183,18.160219377871737L-8.204251748080564,12.445151203870113L-8.314827478902425,17.410771228696223z" style="fill:rgb(160,160,160);fill-opacity:1"></path><path d="M-2.715014058916508,6.176289810685215L-5.654275504428396,0.49676654291652955L-7.230364868943959,5.685419349364735z" style="fill:rgb(193,193,193);fill-opacity:1"></path><path d="M3.8501060063477666,6.532032230374781L3.2737417777720066,1.138394538727049L-0.8325314896524482,1.5845985667063571z" style="fill:rgb(216,216,216);fill-opacity:1"></path><path d="M8.253289977838346,17.79504877102945L8.316447993439617,12.676965770802989L3.200232225100938,13.812458390644716zM8.737917316219217,17.189001987532706L3.630304445460448,13.167038998743687L3.641347252021592,18.31257298116012z" style="fill:rgb(206,206,206);fill-opacity:1"></path><path d="M7.491877171566991,5.508614334592537L2.3836549240984475,0.9094445196247549L3.0482774721818755,6.244099307968063z" style="fill:rgb(223,223,223);fill-opacity:1"></path><path d="M0.29813455157669255,6.721884821617222L0.49526359269276726,1.2740077580819025L-3.650829139811428,1.405457417345337z" style="fill:rgb(205,205,205);fill-opacity:1"></path><path d="M7.895836865924467,10.132364539614198L7.016481014462341,4.617490231911385L2.5778072139277133,5.486678200304663z" style="fill:rgb(221,221,221);fill-opacity:1"></path><path d="M-3.75373943493042,18.58489313148135L-3.5702475823124544,13.49589560223483L-8.668156223891945,12.925496520222415z" style="fill:rgb(160,160,160);fill-opacity:1"></path><path d="M-3.283830814169628,14.449554570768678L-7.701447704820337,8.406871047263637L-8.350261720834816,13.755126022676064z" style="fill:rgb(175,175,175);fill-opacity:1"></path><path d="M0.7866533652701929,6.237721581143483L-3.1108585609296666,0.829745915380087L-3.9671685960866543,6.1654664125269285z" style="fill:rgb(205,205,205);fill-opacity:1"></path><path d="M-3.0961920568863572,10.348812601613727L-6.83190576769234,4.325105583533222L-7.978903103341758,9.748096212278138z" style="fill:rgb(186,186,186);fill-opacity:1"></path><path d="M0.8573205088065052,18.318283497166522L-4.471049061149748,13.12790533816872L-4.537692938128947,18.194046467717346z" style="fill:rgb(180,180,180);fill-opacity:1"></path><path d="M8.274393276487922,14.143183021148337L7.851358991331678,8.673146895826223L2.9894139506966617,9.679193060678704zM4.266310551145813,6.01008119652027L-0.3719570183131292,0.971708343018161L-0.46043710418383843,6.35547320747991z" style="fill:rgb(216,216,216);fill-opacity:1"></path><path d="M4.957279266890265,17.985644126025228L-0.4255115834177985,13.377784597620513L-0.4514844811793256,18.50260172658587z" style="fill:rgb(195,195,195);fill-opacity:1"></path><path d="M-3.632533828026369,10.779441081042162L-2.884531264178348,5.165386778450895L-7.400161189657546,4.83872624453516z" style="fill:rgb(186,186,186);fill-opacity:1"></path><path d="M8.708486119958934,13.552460173078238L3.4064976085112084,9.036357110691254L3.6475292916168063,14.569764162950039z" style="fill:rgb(216,216,216);fill-opacity:1"></path><path d="M8.285052043584157,9.559923440006147L2.978846982852676,4.84464977133479L3.4444938530471423,10.441897362777018z" style="fill:rgb(221,221,221);fill-opacity:1"></path><path d="M4.461270758510088,18.532651457454993L4.562047051110807,13.387913959482427L-0.8719698094121255,13.96398586135862z" style="fill:rgb(195,195,195);fill-opacity:1"></path><path d="M-3.8003389021937095,14.876868807988947L-3.3240942286507944,9.367004182694957L-8.221147564805666,8.90411356619903z" style="fill:rgb(175,175,175);fill-opacity:1"></path><path d="M0.35829457384991586,18.80591014666237L0.49885627380376435,13.667887718745185L-4.92825467320457,13.660558844293941z" style="fill:rgb(180,180,180);fill-opacity:1"></path><path d="M4.2517745897453,10.712817516586048L3.8755782432799086,5.083188681551536L-0.8426753458269196,5.558326977545636z" style="fill:rgb(213,213,213);fill-opacity:1"></path><path d="M0.3158823277352844,10.93628350057055L0.4973603058296454,5.26927323124598L-4.247216745414179,5.33782922641027zM0.8086234076931742,10.451898256494726L-3.730886442839039,4.781014044891368L-4.3624758872506595,10.349633563337841z" style="fill:rgb(201,201,201);fill-opacity:1"></path><path d="M0.8316227973681287,14.5869512088152L-4.194947500315519,8.98573875303363L-4.55854132909152,14.464151614913225z" style="fill:rgb(193,193,193);fill-opacity:1"></path><path d="M4.461172213164292,14.81840933434922L4.316118788357618,9.271796777950778L-0.8554990647611831,9.793862230086647z" style="fill:rgb(206,206,206);fill-opacity:1"></path><path d="M4.694236072352186,10.182503188293687L-0.38249783233196255,4.960012881239817L-0.46100849711587055,10.58635640535214z" style="fill:rgb(213,213,213);fill-opacity:1"></path><path d="M4.929083964315439,14.28004371810642L-0.3997344455375692,9.203176680359881L-0.4583214192176791,14.742676740537492z" style="fill:rgb(206,206,206);fill-opacity:1"></path><path d="M0.3356489038256769,15.072070633179306L0.4983661123161831,9.508469751761377L-4.6848139209853175,9.529320793059243z" style="fill:rgb(193,193,193);fill-opacity:1"></path></svg>