<svg viewBox="-25 -25 50 50" width="50" height="50" style="background-color: rgb(255, 255, 255);"><path d="M9.035485996952593,6.474923492522806L9.864129290868917,4.109732794209762L9.468902370022976,1.7154703548351433z" style="fill:rgb(204,204,204);fill-opacity:1"></path><path d="M-10.174416949896667,4.698550322264724L-8.353505221343829,4.309717734579446L-9.762474863286748,1.8025853790202677z" style="fill:rgb(0,0,0);fill-opacity:1"></path><path d="M8.956062629724704,4.983744923248284L9.819526790479552,2.70280373555412L9.313993560534453,0.3020549147419111z" style="fill:rgb(205,205,205);fill-opacity:1"></path><path d="M-10.069058343029026,3.3785573676151963L-8.22875459646952,2.69661902966258L-9.667298381833414,0.4024196940992476zM-10.241834112175265,3.717891006065173L-9.065922949007515,6.47676157904683L-8.663649326844098,3.411849319175187z" style="fill:rgb(0,0,0);fill-opacity:1"></path><path d="M9.208602685454466,6.490595777059238L9.71542100146792,1.7187815685283427L8.97000101404427,3.9939620898541834z" style="fill:rgb(204,204,204);fill-opacity:1"></path><path d="M8.820167614288703,3.46938621762852L9.708582732303698,1.2863661050337916L9.183639750175036,-1.1531669746586233z" style="fill:rgb(205,205,205);fill-opacity:1"></path><path d="M-10.155246616756676,2.3837904793303473L-8.988913481643047,4.9851721106044655L-8.54727231984294,1.8340961576363877zM-9.884984327024402,2.046089150887333L-8.115779320590587,1.0407031562887827L-9.581430972517145,-1.0326241744670663z" style="fill:rgb(0,0,0);fill-opacity:1"></path><path d="M9.15502612310709,5.000018269985998L9.589843590136752,0.30014886989681816L8.82313033827051,2.483804214213685z" style="fill:rgb(205,205,205);fill-opacity:1"></path><path d="M8.700477511005976,1.9181926537536556L9.648070617915833,-0.18590351828140234L8.852767204271698,-2.5856910136110898z" style="fill:rgb(208,208,208);fill-opacity:1"></path><path d="M-10.010942187903877,1.0401624472927604L-8.853044387823447,3.4708848525523557L-8.449346339744974,0.21349935678945578zM-9.771384339033814,0.5975119787888743L-7.845566869312073,-0.5501305416927444L-9.331545377513754,-2.4569635909303402z" style="fill:rgb(0,0,0);fill-opacity:1"></path><path d="M9.032734418455561,3.48868714290106L9.467704293125026,-1.1538696918971612L8.6836053460555,0.9338058557320358z" style="fill:rgb(205,205,205);fill-opacity:1"></path><path d="M10.853139107080903,7.735311078338193L13.350136322449535,5.696058799456797L12.688367144390984,3.158243969813472z" style="fill:rgb(214,214,214);fill-opacity:1"></path><path d="M8.444460069949232,0.3564728879497719L9.440755358473771,-1.6451417571727012L8.484937743957035,-4.047868371106683z" style="fill:rgb(210,210,210);fill-opacity:1"></path><path d="M-9.88955378167294,-0.4045239063981856L-8.738384699003399,1.918036607968874L-8.173091352990577,-1.349486885824767zM-13.342961668319774,6.154066959092272L-10.380612431760227,5.534973955249031L-13.066473345715023,3.3217789786070178z" style="fill:rgb(0,0,0);fill-opacity:1"></path><path d="M-0.5686371945832718,5.955054985664731L1.829655266190058,6.05705306791857L1.4786096328538132,-8.72088712460151z" style="fill:rgb(172,172,172);fill-opacity:1"></path><path d="M-1.4975539072286872,-8.72106689228018L-1.771705066860126,6.231215746074416L0.5296312696282136,5.781072075187553z" style="fill:rgb(188,188,188);fill-opacity:1"></path><path d="M-9.503010342949546,-0.8245877866006776L-7.511518292073475,-2.1998690445093163L-9.028324673527221,-3.8969595717097008z" style="fill:rgb(0,0,0);fill-opacity:1"></path><path d="M8.967873268935387,1.9339691044809462L9.197061318509062,-2.6065313610635537L8.384504817120051,-0.6150585886207198z" style="fill:rgb(208,208,208);fill-opacity:1"></path><path d="M1.36893547892513,-8.722340673937431L0.8274497697358778,6.162302340028552L3.1389921243858487,6.071913559957803z" style="fill:rgb(151,151,151);fill-opacity:1"></path><path d="M-2.8917447658977666,-8.627946723284987L-3.0307317342792977,6.433142593520388L-0.8005874875609024,5.799394350370292z" style="fill:rgb(200,200,200);fill-opacity:1"></path><path d="M10.746927507464003,6.147826447780046L13.271437838712215,4.203764888641976L12.48951205521006,1.6481828208915519z" style="fill:rgb(216,216,216);fill-opacity:1"></path><path d="M2.7676184384815237,-8.6303638439655L2.096127727917229,6.2931740950646375L4.3495048966952945,6.37975609933738z" style="fill:rgb(121,121,121);fill-opacity:1"></path><path d="M-13.239664669811582,4.6901282236542885L-10.213699478578368,3.877419363488984L-12.892822241207464,1.825259208518526zM-13.649935164949603,5.337452439785575L-10.972552447553886,7.7667624015859795L-10.875865780835513,4.746323519557682zM-9.637465838806298,-1.8233512447774525L-8.48414678549511,0.35526105437684674L-7.847708169099428,-2.960590092988178z" style="fill:rgb(0,0,0);fill-opacity:1"></path><path d="M-4.210180493637015,-8.474613432926748L-4.213881941081037,6.745062593951794L-2.1031609964564026,5.925277309675431z" style="fill:rgb(207,207,207);fill-opacity:1"></path><path d="M8.136126204205627,-1.2373763123411423L9.199854047550147,-3.1532394256980476L7.8535987775341525,-5.474709467486342zM11.262705100631528,7.875075093007042L13.239538463281717,3.2643426333846874L10.887299975449233,5.216646667359662z" style="fill:rgb(214,214,214);fill-opacity:1"></path><path d="M8.7534883995532,0.37210625267403674L8.861960555047341,-4.0808481581321825L8.027118854423108,-2.1952468034767914z" style="fill:rgb(210,210,210);fill-opacity:1"></path><path d="M10.572450316814605,4.52777500688733L13.107569522844699,2.700077328526546L12.311491827594695,0.09437269617840793z" style="fill:rgb(216,216,216);fill-opacity:1"></path><path d="M-9.227844355932826,-2.318955043400185L-6.950555054613878,-3.823373195508168L-8.486259025574327,-5.315184379360133z" style="fill:rgb(0,0,0);fill-opacity:1"></path><path d="M4.0935551040970966,-8.477920911701446L3.2967608509229676,6.529466494361024L5.44985074265912,6.792442439788096z" style="fill:rgb(72,72,72);fill-opacity:1"></path><path d="M-13.544806570914583,3.8804902088383155L-10.873998364116204,6.178699678972438L-10.707452464416429,3.1111131896287203zM-13.05129975337766,3.2117770476245258L-10.04325607985999,2.1735914298074546L-12.728074307141528,0.2920841977983823z" style="fill:rgb(0,0,0);fill-opacity:1"></path><path d="M0.5177018497642172,-8.093924334555533L-0.5191063266474009,-8.093872598003866L0.0014046240046303934,6.480198024264144z" style="fill:rgb(181,181,181);fill-opacity:1"></path><path d="M-0.498101358043701,-8.050707506864526L-0.05167534272953837,6.478199148346671L1.9740080569376421,-8.266751030809955z" style="fill:rgb(172,172,172);fill-opacity:1"></path><path d="M-1.9759481391579876,-8.266480136004116L0.05558460680400637,6.477990455482297L0.4961323233110252,-8.050769708805992z" style="fill:rgb(188,188,188);fill-opacity:1"></path><path d="M-5.414282704880866,-8.263355534878269L-5.282842153852526,7.163027914471557L-3.3450247475861317,6.155676061025636z" style="fill:rgb(211,211,211);fill-opacity:1"></path><path d="M11.1862841824475,6.2958451702030995L13.067712646692886,1.7522382872900861L10.698900379874608,3.6056478514893877z" style="fill:rgb(216,216,216);fill-opacity:1"></path><path d="M-1.2642795388508212,6.534010487274558L-1.0256809075251914,-8.522310611457565L-2.6253492750633707,-7.877047483600825z" style="fill:rgb(200,200,200);fill-opacity:1"></path><path d="M-9.336730079691366,-3.3023317290822343L-8.180691009767044,-1.2423630592582027L-7.272926262566545,-4.536360495827537z" style="fill:rgb(0,0,0);fill-opacity:1"></path><path d="M-1.2446104334235841,6.53371705343496L-2.1727748818161476,-8.673380857451853L-2.3263506720878695,-7.547567880753069z" style="fill:rgb(200,200,200);fill-opacity:1"></path><path d="M2.7445967884934332,-7.942671927652119L0.8745122293271412,-8.327277571661643L2.6535295446058815,6.697799849034398z" style="fill:rgb(151,151,151);fill-opacity:1"></path><path d="M-1.777528340325119,-7.9719390669767485L-3.3805065756493446,-8.203105959836487L-1.2219368781084197,6.5303219513824615z" style="fill:rgb(200,200,200);fill-opacity:1"></path><path d="M1.9443835095008397,-7.644155228864976L2.6185442470274687,6.701266341360468L2.620913456922691,-8.568380913821837z" style="fill:rgb(151,151,151);fill-opacity:1"></path><path d="M10.413525980904208,2.8771343939113607L12.984893118648895,1.1347608679396441L11.8908545643938,-1.4509810002380639z" style="fill:rgb(219,219,219);fill-opacity:1"></path><path d="M2.610250491793228,6.700954011727027L3.1796410864204177,-8.4804996138287L1.9532097741741767,-7.817125127681773z" style="fill:rgb(151,151,151);fill-opacity:1"></path><path d="M7.604002638890234,-2.842870024923104L8.720234600064277,-4.626840299038221L7.181895452415544,-6.9646552176590575z" style="fill:rgb(215,215,215);fill-opacity:1"></path><path d="M-13.37229319907115,2.40846006320041L-10.701329917352641,4.559411922870994L-10.548701553927517,1.4341196048974716z" style="fill:rgb(0,0,0);fill-opacity:1"></path><path d="M8.528232622731421,-1.2348185447923212L8.292180388346292,-5.549585464202493L7.443413046064117,-3.7652516523328443z" style="fill:rgb(214,214,214);fill-opacity:1"></path><path d="M5.308191950421598,-8.267195041985461L4.393519918766476,6.864040475728067L6.402975975380266,7.3055886742224425zM-12.903119173457775,1.6690004925381163L-9.71143715209404,0.4692777805434409L-12.347481021020368,-1.2433306791993666z" style="fill:rgb(0,0,0);fill-opacity:1"></path><path d="M-4.6802785539684235,-7.919637147702538L-2.5281991968817175,6.698097914685646L-2.3250799332846572,-8.190136230898847z" style="fill:rgb(207,207,207);fill-opacity:1"></path><path d="M11.026013416473964,4.688298717471286L12.895752060072548,0.20726510110702162L10.519244661893604,1.952417776777955z" style="fill:rgb(216,216,216);fill-opacity:1"></path><path d="M2.278591607472174,-8.18734633571503L3.831827468509216,6.972787388209315L4.632972510340875,-7.9244288062873744z" style="fill:rgb(121,121,121);fill-opacity:1"></path><path d="M-8.696971415946885,-3.7690744473952473L-6.310547463152925,-5.538801684830107L-7.872538727253421,-6.760374819381073z" style="fill:rgb(0,0,0);fill-opacity:1"></path><path d="M-6.464155837033642,-7.997727253160518L-6.197610855856958,7.680053595401328L-4.493350342378668,6.486137688730994z" style="fill:rgb(211,211,211);fill-opacity:1"></path><path d="M1.7829789646538408,-8.72708720964249L-0.8802603660407784,-7.594960844908642L1.9948705160867064,-7.259392326365326zM-1.7675025010417267,-8.781081142146125L-1.961156650417347,-7.054502159571351L0.8310706424144824,-7.7458570791989825z" style="fill:rgb(181,181,181);fill-opacity:1"></path><path d="M-3.7704894028069336,6.973538779997649L-4.004051661035233,-8.461663577996397L-4.441210971545996,-7.46985131521832zM-3.7645251331092364,6.973360643882888L-4.25728431605728,-8.449842224088378L-4.428817628475742,-7.3012778709008455z" style="fill:rgb(211,211,211);fill-opacity:1"></path><path d="M0.8559987302941436,-8.820052799287868L1.0743983920724414,-6.957577737107124L3.0415148176301114,-7.724776474397755zM-0.9221226823599787,-8.834545934791741L-3.104073578492053,-7.326148372304717L-0.9457151636682575,-7.341712703696288z" style="fill:rgb(181,181,181);fill-opacity:1"></path><path d="M10.08769752825118,1.1997172835865655L12.665617854534878,-0.42502723879791743L11.401013309168075,-3.033804018168944z" style="fill:rgb(220,220,220);fill-opacity:1"></path><path d="M-13.197668210623421,0.8803320628105006L-10.558507636152608,2.9036671153505305L-10.188716447414544,-0.24675660689744042zM-8.822338033479642,-4.73891243778638L-7.647340204637719,-2.849236890688008L-6.64315214083875,-6.187579155582272z" style="fill:rgb(0,0,0);fill-opacity:1"></path><path d="M4.750487923854932,-7.495390818368253L3.687624189865525,-8.282659991046513L4.957236744884574,7.348012103281065z" style="fill:rgb(72,72,72);fill-opacity:1"></path><path d="M-3.865775826651111,-7.815877057590155L-5.9031731600828605,-7.746827430763647L-3.7252729185631352,6.968453935106653z" style="fill:rgb(211,211,211);fill-opacity:1"></path><path d="M4.948200530672317,7.348997766452277L4.46701303849361,-8.422796004332945L4.291272988852226,-7.301529077411475z" style="fill:rgb(72,72,72);fill-opacity:1"></path><path d="M-12.559705259200513,0.1287916929548535L-9.288454080227948,-1.2824804734143112L-11.883908945198934,-2.8053687398693437z" style="fill:rgb(0,0,0);fill-opacity:1"></path><path d="M2.4127100311884893,-7.821177219301319L-0.8578498291688528,-7.963147705920451L-0.0292694442359403,-7.290536370995372z" style="fill:rgb(172,172,172);fill-opacity:1"></path><path d="M0.7602166737382423,-7.089447471223115L0.09136858103727818,-8.374082939621761L-2.3771755653215623,-7.611330885372266z" style="fill:rgb(188,188,188);fill-opacity:1"></path><path d="M10.925283025675913,3.041736698657146L12.527493769474294,-1.3583566576870472L10.140073554519285,0.29133411228868317z" style="fill:rgb(219,219,219);fill-opacity:1"></path><path d="M5.0118449597750265,-8.120312059144862L1.3412142808605014,-7.571074928080659L2.829256216695093,-7.522115392136249zM-2.8316804396566173,-7.456885854116264L-1.3389629398794565,-7.649246537500957L-5.011671042029321,-8.107369987744548z" style="fill:rgb(181,181,181);fill-opacity:1"></path><path d="M4.926006983701498,7.348485584502092L5.810861993692871,-7.945470113272722L3.9367249493790264,-7.747197454121145z" style="fill:rgb(72,72,72);fill-opacity:1"></path><path d="M3.00038905646615,-7.019473729045769L2.3147710550919807,-8.40818500639743L0.5374110091982892,-7.52171374866892z" style="fill:rgb(151,151,151);fill-opacity:1"></path><path d="M8.052430788046323,-2.8404174925848302L7.638750615882427,-7.055193143299554L6.7896445251595114,-5.388370394364486z" style="fill:rgb(215,215,215);fill-opacity:1"></path><path d="M-1.8452274779178597,-7.662557661816305L-4.815277414398491,-8.432760990951872L-4.312266071090245,-6.9331884607258845zM4.431059537436252,-8.51931234071989L1.8248394940710457,-7.532117095652384L4.7168727575702984,-6.977077677121787z" style="fill:rgb(181,181,181);fill-opacity:1"></path><path d="M-1.464532042364314,-7.1230354752140075L-2.4273947456855645,-8.533266516991509L-3.508082160588636,-7.189682033614395z" style="fill:rgb(200,200,200);fill-opacity:1"></path><path d="M-12.849134955024118,-0.6452899771261713L-10.240278588128849,1.2221484302262335L-9.753940081815069,-1.9680545145205357z" style="fill:rgb(0,0,0);fill-opacity:1"></path><path d="M11.964589237112722,9.301877452015756L15.848470383879524,7.794459420791163L15.170538707777661,5.0662146018420104z" style="fill:rgb(216,216,216);fill-opacity:1"></path><path d="M-3.792595471735141,-8.855532026864237L-4.84391974860076,-6.629936055086498L-3.8086161921365926,-7.362027390967306zM3.633592954169467,-7.066615956668468L5.178432888307296,-7.067870637327754L3.633107703436604,-8.713008782548249z" style="fill:rgb(181,181,181);fill-opacity:1"></path><path d="M9.696337115231252,-0.5066995469312101L12.273553413794739,-2.037714328175318L10.575922089973089,-4.605881923971508z" style="fill:rgb(223,223,223);fill-opacity:1"></path><path d="M5.397223185518252,7.026018352475499L7.04668778068267,8.169877917321989L7.307398815707873,-7.682908687316468z" style="fill:rgb(0,0,0);fill-opacity:1"></path><path d="M-7.3188882553049375,-7.682899848651539L-6.916860804332085,8.284776535951776L-5.515560722271772,6.911110895180783z" style="fill:rgb(207,207,207);fill-opacity:1"></path><path d="M-4.835737479557657,7.346230154966224L-4.975104616329371,-8.106752192355247L-6.5255335564887496,-7.2315115776653895z" style="fill:rgb(211,211,211);fill-opacity:1"></path><path d="M-15.7310816234665,8.144052644571671L-11.63548101214714,7.056496212355888L-15.496802907076072,5.270789065003605z" style="fill:rgb(91,91,91);fill-opacity:1"></path><path d="M10.638855385864678,1.3738984059175097L12.062629256216862,-2.948336187444738L9.686202272789526,-1.4082914291509232z" style="fill:rgb(220,220,220);fill-opacity:1"></path><path d="M-5.364296031990119,-6.9083452678025985L-6.5477012335710585,-8.410997859510251L-8.183636891825975,-5.380570208853871z" style="fill:rgb(0,0,0);fill-opacity:1"></path><path d="M8.292743568958189,-5.452495940978243L6.177697328772484,-8.448102509829907L5.625195065153233,-6.799314682414451z" style="fill:rgb(220,220,220);fill-opacity:1"></path><path d="M-12.160240575106402,-1.4722749351160742L-8.60862865345678,-3.0394426260893646L-11.102955645764695,-4.360934929642174z" style="fill:rgb(0,0,0);fill-opacity:1"></path><path d="M-4.81547197837978,7.345426129127184L-6.132213719266102,-8.071067320055887L-6.220296597946707,-6.912884855537098z" style="fill:rgb(211,211,211);fill-opacity:1"></path><path d="M6.645117469758551,-7.218902203152525L4.83279340606534,-7.9630457933577405L5.877563880410463,7.819432824017645z" style="fill:rgb(0,0,0);fill-opacity:1"></path><path d="M-5.726716010154899,-7.228559786754882L-6.9132846439117674,-7.68320953138543L-4.806474315851688,7.343773854173596z" style="fill:rgb(211,211,211);fill-opacity:1"></path><path d="M-8.254292930973996,-6.291439449144659L-7.076477822427109,-4.523599315770201L-5.529643657122794,-7.598239710296926z" style="fill:rgb(0,0,0);fill-opacity:1"></path><path d="M5.424972481334994,-7.532880606189861L7.376813625028931,-4.506291682719217L8.058628407245347,-6.374107797543433z" style="fill:rgb(220,220,220);fill-opacity:1"></path><path d="M5.057157637449865,-6.688183146313587L3.982238867515689,-8.392950111163511L3.7315389991183303,-7.150869487947773z" style="fill:rgb(72,72,72);fill-opacity:1"></path><path d="M11.845031990054588,7.60453637846153L15.732775472427088,6.178449176728416L14.927140210962593,3.421369615404428z" style="fill:rgb(217,217,217);fill-opacity:1"></path><path d="M5.846366496791978,7.821056256077901L6.320441162240953,-8.033410551580369L6.09673496365066,-6.920185223681168z" style="fill:rgb(0,0,0);fill-opacity:1"></path><path d="M-16.13641433724264,7.467327088745651L-12.179977366381124,9.3956847277715L-12.204390156774995,6.3755633872994775z" style="fill:rgb(91,91,91);fill-opacity:1"></path><path d="M7.243276126799266,-7.68646944326735L6.137704046577069,7.769080279059569L7.709614631673574,8.617731957997005z" style="fill:rgb(0,0,0);fill-opacity:1"></path><path d="M7.424428384742497,-7.729897314342052L3.440006568480326,-7.439967134983792L5.349172936614501,-7.072479800679999zM-3.452317771599167,-7.513740374292164L-7.438848401015764,-7.672947088889468L-5.322440869991547,-7.055656786824212z" style="fill:rgb(181,181,181);fill-opacity:1"></path><path d="M5.841674879875745,7.820900063094001L6.560591421792369,-7.974683950281663L6.080098765414219,-7.066231666337103zM-12.404416823689758,-2.2157922860390973L-9.865032541398941,-0.4996582343644048L-9.021989397784427,-3.6895789289927308z" style="fill:rgb(0,0,0);fill-opacity:1"></path><path d="M-15.607063569585945,6.5416019281214215L-11.444326479534071,5.298479704583303L-15.262475012463868,3.6362587715035044z" style="fill:rgb(96,96,96);fill-opacity:1"></path><path d="M12.46165709317413,9.570448079447067L15.82869154957508,5.3123718431029205L12.092087749376914,6.737819283593912z" style="fill:rgb(216,216,216);fill-opacity:1"></path><path d="M-3.6014344594478733,-6.854760655853528L-4.329649562295332,-8.192158903712562L-6.194582204007775,-6.946861417191757z" style="fill:rgb(211,211,211);fill-opacity:1"></path><path d="M-8.364716051884454,-5.506574024237843L-5.24881976308736,-7.304532847258505L-6.192872035162899,-7.255591866773247z" style="fill:rgb(0,0,0);fill-opacity:1"></path><path d="M8.398637143171028,-5.556688183455056L5.322596983653728,-7.697932948183335L6.085174784661237,-6.812079014927809z" style="fill:rgb(220,220,220);fill-opacity:1"></path><path d="M9.036925513558224,-2.2445745060903084L11.570561094148417,-3.6300175778753854L9.662702853611155,-6.239267800750665z" style="fill:rgb(225,225,225);fill-opacity:1"></path><path d="M10.326106776709404,-0.3370675222369955L11.28465747266088,-4.560412068325846L8.950085557971494,-3.107254988324949z" style="fill:rgb(223,223,223);fill-opacity:1"></path><path d="M-7.937567370611295,-7.326062884332716L-7.399641225802926,8.959531737976226L-6.378988689060367,7.424635697057156z" style="fill:rgb(200,200,200);fill-opacity:1"></path><path d="M-7.237652663703007,-8.034554905647958L-6.115130503846156,-6.278801506786855L-4.523605600659695,-7.5768394697336685zM6.266242671269381,-6.479756626180217L7.195040923931624,-8.168470410738419L4.415106978504608,-7.241968642305724z" style="fill:rgb(181,181,181);fill-opacity:1"></path><path d="M5.815254907060131,7.818752041940281L7.777281443325387,-7.282724891983236L5.89050340275458,-7.404468805882186z" style="fill:rgb(0,0,0);fill-opacity:1"></path><path d="M-7.757860437051113,-7.016338331490084L-5.798170076213154,7.81837555473696L-5.927009239875832,-7.670478879172017z" style="fill:rgb(207,207,207);fill-opacity:1"></path><path d="M11.649027938296095,5.865574831592221L15.515069295812472,4.5410334507014545L14.699978167113683,1.7337240088465702z" style="fill:rgb(217,217,217);fill-opacity:1"></path><path d="M-11.439997226406968,-3.0557639917099757L-7.812019416582656,-4.862917453489917L-10.219467055431057,-5.960545080630886z" style="fill:rgb(29,29,29);fill-opacity:1"></path><path d="M-15.998208920203826,5.874176163620266L-12.073012055349205,7.6972690455386745L-11.999900018632513,4.629965677881049zM-15.380072350845754,4.913587310473926L-11.24679129309883,3.497831733550661L-15.03798363424256,1.962882844551927z" style="fill:rgb(96,96,96);fill-opacity:1"></path><path d="M12.36557348713891,7.880857752240004L15.607008392341468,3.6661216176367732L11.878466713732358,5.00538476349915z" style="fill:rgb(217,217,217);fill-opacity:1"></path><path d="M-11.677665641628657,-3.775162197767795L-9.20408994264974,-2.2466770506070173L-8.206400715495068,-5.470618663396975z" style="fill:rgb(29,29,29);fill-opacity:1"></path><path d="M6.797241593171034,-6.254086791099897L6.37786894138377,-7.748878729125697L4.412052987752894,-7.254017172342365z" style="fill:rgb(0,0,0);fill-opacity:1"></path><path d="M11.464156532043646,4.101610490805287L15.335147211805168,2.841320639848633L14.191126659456334,0.03010488583889248z" style="fill:rgb(220,220,220);fill-opacity:1"></path><path d="M-15.7764262475583,4.254428038626097L-11.87927671524432,5.958869551236064L-11.805034895514627,2.8450213745638906z" style="fill:rgb(96,96,96);fill-opacity:1"></path><path d="M7.882868960181726,-7.328826142854023L6.747834070171866,8.264747914459093L7.955302176693831,9.4364163623876z" style="fill:rgb(0,0,0);fill-opacity:1"></path><path d="M-7.716767746392537,9.648710923802964L-6.970732035201274,8.05199208590068L-7.898505425453612,-7.328364875710973z" style="fill:rgb(188,188,188);fill-opacity:1"></path><path d="M9.711649025271203,-2.065408075254605L10.38137917174799,-6.20555296983668L8.124081645275533,-4.862999131057689z" style="fill:rgb(225,225,225);fill-opacity:1"></path><path d="M-15.196424159172727,3.2297909674024634L-10.861764400854405,1.6672822464960344L-14.547229086675637,0.27064830803640977z" style="fill:rgb(105,105,105);fill-opacity:1"></path><path d="M-6.591048571021123,8.377160717410584L-7.111291488926767,-7.664797435456844L-7.628113356097099,-6.587329325808355z" style="fill:rgb(200,200,200);fill-opacity:1"></path><path d="M12.176085742578675,6.152984075005204L15.380998805267824,1.9872170645634535L11.67393605108192,3.231156465453472z" style="fill:rgb(217,217,217);fill-opacity:1"></path><path d="M-5.3979798051920795,-6.449413455651683L-6.625768926229146,-7.947522882928173L-6.749974312892584,-6.559538607941065z" style="fill:rgb(211,211,211);fill-opacity:1"></path><path d="M-7.610709526093645,-6.424202655288265L-6.587782545189109,8.377065872372613L-7.373221365725109,-7.555152080162501z" style="fill:rgb(200,200,200);fill-opacity:1"></path><path d="M9.428661379012212,-7.012948208184632L5.2370674640107815,-7.077978237710025L6.377287982445052,-6.961218842372566zM-6.363618875779896,-6.855003125190788L-5.252032813986354,-7.189521958710847L-9.427365178284187,-7.007620102423225z" style="fill:rgb(181,181,181);fill-opacity:1"></path><path d="M-6.534833096755562,-6.563571414319226L-8.63731980766224,-7.651713643498684L-10.631376240311278,-4.74289989283519z" style="fill:rgb(84,84,84);fill-opacity:1"></path><path d="M10.734619443865894,-4.838565548901865L8.400737538312487,-7.7709094721117244L6.668172719931576,-6.348709712657625z" style="fill:rgb(228,228,228);fill-opacity:1"></path><path d="M7.829520111405737,-6.539558423148834L6.8952708263645315,-7.561478858889527L7.197107350725389,9.008145988225976z" style="fill:rgb(0,0,0);fill-opacity:1"></path><path d="M-15.54828983513493,2.586359008493755L-11.721729247519116,4.185753825157094L-11.376760636636888,1.0278998742496437z" style="fill:rgb(105,105,105);fill-opacity:1"></path><path d="M11.08883102008436,2.2933711069567257L14.914858976128764,1.126536439882481L13.584000139401908,-1.717083631913524z" style="fill:rgb(222,222,222);fill-opacity:1"></path><path d="M-7.003763985591619,-7.0223100062022485L-8.412553352226348,-6.717401220419089L-6.570348789417655,8.374720234171738z" style="fill:rgb(200,200,200);fill-opacity:1"></path><path d="M-10.833140539946248,-5.424807020443354L-8.503113383196334,-4.068487844964903L-6.814568857561963,-7.061159669853006z" style="fill:rgb(84,84,84);fill-opacity:1"></path><path d="M6.700701283823848,-6.973004393635849L8.722972398213635,-3.9836664132406447L10.727149228112557,-5.59778538625853z" style="fill:rgb(228,228,228);fill-opacity:1"></path><path d="M7.188410448738052,9.008476150070184L7.571695327039729,-7.5238196058561515L7.444026449278882,-6.416147466859416z" style="fill:rgb(0,0,0);fill-opacity:1"></path><path d="M-5.425872172006445,-7.213480987075876L-9.419756880358403,-7.107329562226342L-7.1980624591609645,-6.379760841365381zM9.398667091285258,-7.183692444044547L5.391115863588326,-7.113087284600328L7.2539085566522274,-6.403791662022724z" style="fill:rgb(181,181,181);fill-opacity:1"></path><path d="M-14.770922271270367,1.5266193398635204L-10.369298328389396,-0.211675711642968L-13.952642057754234,-1.45804378302606z" style="fill:rgb(110,110,110);fill-opacity:1"></path><path d="M12.041589461870561,4.391555096102994L14.920013147722296,0.263588522334945L11.240477494204908,1.4305645767827722z" style="fill:rgb(220,220,220);fill-opacity:1"></path><path d="M-10.827188518104778,-4.947048970450605L-6.519601653691669,-6.657644253279918L-7.505841079449069,-6.75710232402218z" style="fill:rgb(84,84,84);fill-opacity:1"></path><path d="M10.84629763779059,-4.9882836823460615L6.5988214084298065,-7.085827912946186L7.4075128918514945,-6.287685393352332z" style="fill:rgb(228,228,228);fill-opacity:1"></path><path d="M7.18632551560898,9.008135937843326L8.270188686465852,-7.147660135167448L7.13196035299814,-6.70688049131252z" style="fill:rgb(0,0,0);fill-opacity:1"></path><path d="M-15.102595220511908,0.8979526248726165L-11.358758788340351,2.3687985529997952L-10.860885860142092,-0.8322815469407943z" style="fill:rgb(110,110,110);fill-opacity:1"></path><path d="M10.63245798530647,0.4585144452803791L14.395586307880258,-0.6485446106889914L12.579034602131642,-3.483418240054449z" style="fill:rgb(225,225,225);fill-opacity:1"></path><path d="M-9.381996341108993,-7.264907606514767L-6.691803010660487,-5.960455862792656L-7.038855311759325,-7.039224407175435zM6.31655349083081,-6.817929771935052L7.571188583303901,-5.92622746621285L9.224913146774972,-7.520430421353071z" style="fill:rgb(181,181,181);fill-opacity:1"></path><path d="M8.24918595014577,-6.756629271864443L7.376563855305739,8.706083480538451L7.642442743606406,10.39544248760674z" style="fill:rgb(0,0,0);fill-opacity:1"></path><path d="M11.696025384431236,2.5900656361287266L14.334367766784894,-1.4919671499768514L10.718818822183655,-0.41422194954970243z" style="fill:rgb(222,222,222);fill-opacity:1"></path><path d="M-14.261986245219711,-0.23936148984630573L-9.584065142375657,-2.124184148729074L-12.975814106675314,-3.197822273153324z" style="fill:rgb(121,121,121);fill-opacity:1"></path><path d="M8.007754778197665,-5.671311846451083L7.493736296263224,-7.5353344590477676L6.660266382410728,-6.4615536089754855z" style="fill:rgb(0,0,0);fill-opacity:1"></path><path d="M-8.315945930807231,-6.527506916361544L-7.521636442038578,10.408796652119245L-7.487678524111451,8.692293605702316z" style="fill:rgb(172,172,172);fill-opacity:1"></path><path d="M-14.532599565764585,-0.8368641760756619L-10.928764753220852,0.5045516692989371L-10.007806775165625,-2.717654532617934z" style="fill:rgb(121,121,121);fill-opacity:1"></path><path d="M9.876280844174573,-1.4281517384305649L13.502079338401574,-2.4280015802126274L11.452070604747872,-5.30804097664015z" style="fill:rgb(226,226,226);fill-opacity:1"></path><path d="M12.014003011295458,11.117337832216558L17.103707261487816,10.296998211025747L16.472649692889302,7.377057735140173z" style="fill:rgb(209,209,209);fill-opacity:1"></path><path d="M7.6088811445016695,-7.253314825961691L7.481395852640725,9.692346109986705L8.495941091621555,-5.832865604136623z" style="fill:rgb(0,0,0);fill-opacity:1"></path><path d="M-8.496358856315958,-5.83284871158339L-7.480583562505689,9.692317163733012L-7.609275669942303,-7.253302772261231z" style="fill:rgb(188,188,188);fill-opacity:1"></path><path d="M11.306313072377936,0.7487357731635489L13.375768055256966,-3.2994465541848426L9.8743341000151,-2.2790114147014746z" style="fill:rgb(225,225,225);fill-opacity:1"></path><path d="M-13.365834983919298,-2.0112568395848665L-8.665583450977916,-4.094491191951137L-11.875752150461619,-4.98981078630063z" style="fill:rgb(125,125,125);fill-opacity:1"></path><path d="M-16.950168057039274,10.573132595087513L-11.781106793665018,8.802625032495447L-16.72942274817035,7.595174093606981z" style="fill:rgb(149,149,149);fill-opacity:1"></path><path d="M-6.810431956611086,-6.018007775089182L-7.567469125379275,-7.479257362872987L-8.481042341397142,-5.772235039290509z" style="fill:rgb(200,200,200);fill-opacity:1"></path><path d="M-17.39292812394543,9.999024946964319L-12.305302065914477,11.287500082668792L-12.377178431073697,8.211944988746948z" style="fill:rgb(149,149,149);fill-opacity:1"></path><path d="M-13.617543511896393,-2.5879876607292025L-10.16905485334628,-1.4024718757240289L-9.061343259394453,-4.658546688088471z" style="fill:rgb(125,125,125);fill-opacity:1"></path><path d="M7.46860003053276,9.691887887075993L8.255399960584834,-6.756370750397621L8.20761969462949,-5.757512911312344z" style="fill:rgb(0,0,0);fill-opacity:1"></path><path d="M-7.99792366602474,-6.703329987117174L-8.466155670671517,-5.810365689914369L-7.467540349050824,9.69169990239757zM10.769107346930559,-6.3041073953344755L6.540094790114252,-6.707520236357915L7.843474174295914,-6.168739910725795zM-7.797938414579353,-6.040174979593154L-6.59163770642442,-6.856272299552891L-10.763100216890448,-6.2839202087379125z" style="fill:rgb(181,181,181);fill-opacity:1"></path><path d="M11.888536078233653,9.29750898025871L16.961044614931055,8.52405851522093L16.19304756129454,5.5634957497675055z" style="fill:rgb(210,210,210);fill-opacity:1"></path><path d="M12.538572685068711,11.48802875465109L17.156277531473638,7.740611617971647L12.218998871985013,8.498542369334562z" style="fill:rgb(209,209,209);fill-opacity:1"></path><path d="M-9.473215938705524,-7.177434391750849L-12.454566726464751,-4.157140484695841L-9.068657365640991,-3.431419106750294z" style="fill:rgb(142,142,142);fill-opacity:1"></path><path d="M10.583434217263294,-1.132636595998802L12.258860117311643,-5.140660478462127L8.926968449616586,-4.198780377307302z" style="fill:rgb(226,226,226);fill-opacity:1"></path><path d="M-16.806948218717864,8.809695684868165L-11.577412685825292,6.917997821869347L-16.452526109209575,5.789490075178882z" style="fill:rgb(152,152,152);fill-opacity:1"></path><path d="M12.42318153952778,-3.945441649517407L9.852057794957304,-6.931162275066665L7.290499740383002,-5.894191831580162z" style="fill:rgb(230,230,230);fill-opacity:1"></path><path d="M7.500451590001575,10.408422417923816L8.26777906406388,-6.909335453701952L8.203256869872375,-5.757721644527595z" style="fill:rgb(0,0,0);fill-opacity:1"></path><path d="M-8.41654333062091,-5.544163579279312L-7.466138522189569,9.691764440461785L-8.106006197325396,-6.7409099580705485z" style="fill:rgb(172,172,172);fill-opacity:1"></path><path d="M-17.229529084428236,8.241622063998594L-12.194654505790734,9.464721781294537L-12.154261890803944,6.332497176140873z" style="fill:rgb(152,152,152);fill-opacity:1"></path><path d="M11.683271033005042,7.425610097691135L16.704070838025817,6.7160549227437425L15.925923981309223,3.7083834564019575z" style="fill:rgb(210,210,210);fill-opacity:1"></path><path d="M7.425727585529343,-6.313778177277391L9.491081945928709,-3.3314624573989784L12.515641624801983,-4.552962948843351z" style="fill:rgb(230,230,230);fill-opacity:1"></path><path d="M8.004268068157453,-5.458318907519905L10.758790544249504,-6.4577945377206L7.061238293314251,-6.70609436229129zM-7.062250901265606,-6.730435205895955L-10.764421597052873,-6.40870763559957L-7.997624407402728,-5.483064966036269z" style="fill:rgb(181,181,181);fill-opacity:1"></path><path d="M12.432226820678762,9.672175240741074L16.895496441610547,5.922935280069284L11.994212406724452,6.629149301103616z" style="fill:rgb(210,210,210);fill-opacity:1"></path><path d="M-16.546630545242728,7.007288921344057L-11.366424528257284,4.992739643460036L-16.186128226968307,3.9442722887578205z" style="fill:rgb(152,152,152);fill-opacity:1"></path><path d="M12.536487567547764,-4.120510404792599L7.353586247422327,-6.49411268501591L8.111676385346763,-5.588382266678462z" style="fill:rgb(230,230,230);fill-opacity:1"></path><path d="M-10.276126869891597,-6.987119113043649L-9.847403912207175,-3.0354714068539694L-7.476868660059302,-6.022977001755922z" style="fill:rgb(142,142,142);fill-opacity:1"></path><path d="M7.505602908056609,10.408588651695535L8.541848811652837,-6.459469652138019L7.981104152127731,-5.979067034683978z" style="fill:rgb(0,0,0);fill-opacity:1"></path><path d="M-16.969864780505333,6.443956039166545L-11.990637810095144,7.591368587685667L-11.941609285835002,4.415307908456089z" style="fill:rgb(152,152,152);fill-opacity:1"></path><path d="M8.598093807776253,-4.901889306459729L8.601449840907403,-6.680360158132635L7.060764382486322,-6.472167943262166z" style="fill:rgb(0,0,0);fill-opacity:1"></path><path d="M-7.37085381689443,-7.174894393404792L-8.97317299323151,-5.372685697490563L-7.916281221044038,-5.506837316959175z" style="fill:rgb(188,188,188);fill-opacity:1"></path><path d="M-7.802180407230162,-5.03340693138485L-7.6516493180398335,-6.50907630601269L-10.715868760944897,-6.50788605722325z" style="fill:rgb(142,142,142);fill-opacity:1"></path><path d="M11.484037997785078,5.531195489267174L16.482479194853436,4.8477171198581805L15.350314373578541,1.8073400568615243z" style="fill:rgb(213,213,213);fill-opacity:1"></path><path d="M12.229542623098984,7.806601379536108L16.627549850397795,4.072377174604723L11.777908053535207,4.719100075607946z" style="fill:rgb(210,210,210);fill-opacity:1"></path><path d="M-16.330696270131916,5.15261840872431L-10.95566140881802,3.010738324784192L-15.617986955050458,2.055523485730493z" style="fill:rgb(157,157,157);fill-opacity:1"></path><path d="M-8.110476838923516,-5.6930983309052365L-7.686528387447773,-6.607125885194485L-10.239405357725003,-3.1775528733099243z" style="fill:rgb(0,0,0);fill-opacity:1"></path><path d="M-16.702107992919366,4.601696401233247L-11.824718103695893,5.683959007198049L-11.481604946328293,2.4393031512946743z" style="fill:rgb(157,157,157);fill-opacity:1"></path><path d="M7.798943069351165,-5.738210854718963L8.601549368032211,-4.84052725793991L8.234422223243623,-6.846789038561579z" style="fill:rgb(0,0,0);fill-opacity:1"></path><path d="M11.084118780282987,3.5711088405846647L15.988514672938551,2.936746860544889L14.656118020307835,-0.145269372201422z" style="fill:rgb(215,215,215);fill-opacity:1"></path><path d="M12.074747216130941,5.911126399688863L16.097339095339336,2.1500414563756665L11.321104346625512,2.758296421645932z" style="fill:rgb(213,213,213);fill-opacity:1"></path><path d="M-15.83819404487734,3.2514648821404597L-10.431344159156936,0.975361093840674L-14.931448221887731,0.12022032075930261z" style="fill:rgb(160,160,160);fill-opacity:1"></path><path d="M-7.969803279556909,-5.7179508098258225L-8.255695666363618,-6.908945583778375L-8.466484079095263,-4.569944079870355z" style="fill:rgb(172,172,172);fill-opacity:1"></path><path d="M-16.184134881569207,2.7114893059585574L-11.438773572544244,3.7105556603934247L-10.930030224158312,0.41450683242290126z" style="fill:rgb(160,160,160);fill-opacity:1"></path><path d="M10.59285218628459,1.5816494491908157L15.377974656365081,0.9582245487844181L13.52617606104219,-2.1506937448438865z" style="fill:rgb(218,218,218);fill-opacity:1"></path><path d="M11.698963389902827,3.952992086537167L15.423649981420063,0.18591630955334598L10.769972531325614,0.7468437943890169z" style="fill:rgb(215,215,215);fill-opacity:1"></path><path d="M-15.24274725775926,1.2821759934345516L-9.601168072530635,-1.1208062671967167L-13.82104141180921,-1.8528646054391462zM-15.523894647804594,0.769311048681133L-10.97919970241538,1.6825046054472097L-10.02968034322841,-1.6622786281691668z" style="fill:rgb(166,166,166);fill-opacity:1"></path><path d="M-7.687401213116378,-6.499477330119803L-11.25779036532978,-5.425407912240643L-7.805541457764005,-5.047739474772533zM7.8080165984730945,-5.02959024220535L11.261003972682643,-5.461367727521414L7.681712465054428,-6.481666747406216z" style="fill:rgb(181,181,181);fill-opacity:1"></path><path d="M9.793255381527544,-0.481795039852554L14.351195054262949,-1.0551347083678877L12.256379751192043,-4.211615923239723z" style="fill:rgb(219,219,219);fill-opacity:1"></path><path d="M11.265392059593381,1.954363599151851L14.340934775823714,-1.8607910779238799L9.882817111424401,-1.3111019305825309z" style="fill:rgb(218,218,218);fill-opacity:1"></path><path d="M-14.216944113489781,-0.7220126066696875L-8.6367757340267,-3.2694304982114977L-12.577216018016628,-3.8800243087739466zM-14.476045204652168,-1.2195188447928103L-10.174649961268544,-0.4103605899999713L-9.036508297878605,-3.7912468490894033z" style="fill:rgb(168,168,168);fill-opacity:1"></path><path d="M-10.060617416677658,-6.372805558092841L-13.155084193825363,-3.051083891841756L-8.953085928015524,-2.614569056089529z" style="fill:rgb(178,178,178);fill-opacity:1"></path><path d="M13.116507658402602,-2.8637388521678218L10.394800850047563,-6.047727996312119L7.175774931078392,-5.3442310292444635z" style="fill:rgb(224,224,224);fill-opacity:1"></path><path d="M10.491990527125747,-0.10840545991565237L13.083601156380785,-3.9424868351243605L8.891115971783101,-3.42021834578729z" style="fill:rgb(219,219,219);fill-opacity:1"></path><path d="M-11.262465946648677,-5.551933230605735L-7.155091756241529,-5.058542255633476L-8.226191523924896,-5.757758301560055zM8.050568561939599,-6.005158498219264L7.347265532502304,-4.7660151205027494L11.245915163286744,-5.5970601055885725z" style="fill:rgb(181,181,181);fill-opacity:1"></path><path d="M7.3296975108714575,-5.7293179829783245L9.411358038737585,-2.5409666411312113L13.25130632876392,-3.3762838084187896zM13.23223045479379,-3.035802692599895L7.276660822417273,-5.836254666014006L8.001766502171913,-4.991750445614701z" style="fill:rgb(224,224,224);fill-opacity:1"></path><path d="M-10.891789688197688,-6.099454530552906L-9.699866909416984,-2.1670361508254556L-7.359052303321184,-5.497084422419924zM-7.542680840612011,-4.502242234275898L-7.685181108954487,-5.865170879407555L-11.241142821465825,-5.613401425303792z" style="fill:rgb(178,178,178);fill-opacity:1"></path><path d="M10.710433101843273,12.991644276612405L16.726258606623553,13.057215818956639L16.163628319748092,9.937224754893794z" style="fill:rgb(192,192,192);fill-opacity:1"></path><path d="M-17.015636143623205,12.79559694830015L-11.053073438465411,13.238466806810928L-11.162160247935553,10.075661670545202zM-16.558138396151367,13.28512111537763L-10.558029212409005,10.584807021579493L-16.359719443625398,10.161363541823006z" style="fill:rgb(183,183,183);fill-opacity:1"></path><path d="M11.237938288357086,13.450537543709869L16.8392544684957,10.398459161864952L10.982711289502927,10.314725774082126z" style="fill:rgb(192,192,192);fill-opacity:1"></path><path d="M10.591654298862805,11.045879153104554L16.57180451619553,11.106004631542167L15.870594928082557,7.929009930961436z" style="fill:rgb(193,193,193);fill-opacity:1"></path><path d="M-16.842922241619807,10.854212925668909L-10.948403969219425,11.286189047133108L-10.947023257212471,8.054549826568485zM-16.406377932661314,11.342310548355176L-10.362968490475984,8.56419758564208L-16.067585717728733,8.160408073007165z" style="fill:rgb(185,185,185);fill-opacity:1"></path><path d="M11.134961540363246,11.504698595410488L16.563025619571132,8.382842482372805L10.769494782740901,8.30301570441457zM10.39784155073154,9.036592047043055L16.30009598941174,9.102815085191908L15.586813269506186,5.88138906499128z" style="fill:rgb(193,193,193);fill-opacity:1"></path><path d="M-16.569284298385803,8.856477722087222L-10.754305582902731,9.27178521973188L-10.742071548887841,5.997061041985284z" style="fill:rgb(185,185,185);fill-opacity:1"></path><path d="M10.69890954698445,-4.472648650890632L7.217564677820919,-5.732527567028582L7.875083603060093,-4.868926307263924zM-7.2032107979564195,-4.759741525314135L-7.95385389942476,-5.960226265853963L-10.634492763096402,-4.354134478597351z" style="fill:rgb(181,181,181);fill-opacity:1"></path><path d="M-16.133513016315717,9.344287722284303L-10.16102593699878,6.504647763012421L-15.78551294611093,6.120605422139778z" style="fill:rgb(185,185,185);fill-opacity:1"></path><path d="M10.94237005560999,9.496727380048759L16.278443096383626,6.334704880863164L10.56353447234262,6.252166730286924z" style="fill:rgb(193,193,193);fill-opacity:1"></path><path d="M10.20691549488749,7.005886418256951L16.059887850672617,7.044002071666231L14.991440658085931,3.7514406941598355z" style="fill:rgb(197,197,197);fill-opacity:1"></path><path d="M-16.28716185361908,6.817326518006646L-10.595572488603741,7.224060380276705L-10.303701670578606,3.853270349195843zM-15.90192941518712,7.2982653401822235L-9.769596312435574,4.360965697543992L-15.193505574712571,4.00441169242689z" style="fill:rgb(189,189,189);fill-opacity:1"></path><path d="M10.78924222948356,7.462158960659379L15.724771699419604,4.182927130658516L10.131927993959009,4.123084425413353z" style="fill:rgb(197,197,197);fill-opacity:1"></path><path d="M6.458169025600613,-4.409962648459756L10.721677018819756,-4.608944447658196L7.886000964496828,-5.509790829943057zM-10.705183912870968,-4.544138652160175L-6.382926638649651,-4.5482684551464825L-7.97773645739658,-5.436290818754352z" style="fill:rgb(181,181,181);fill-opacity:1"></path><path d="M9.826736486283117,4.885569284968895L15.538797956602242,4.908372216840193L14.270384689627594,1.5613618408192504z" style="fill:rgb(198,198,198);fill-opacity:1"></path><path d="M-15.744008603708236,4.697098527683029L-10.227322441198268,5.0860612587757394L-9.780570675047333,1.653774765248937zM-15.383802630780542,5.172594423092337L-9.271995012661845,2.157726039569112L-14.479293987473,1.831433368873258z" style="fill:rgb(190,190,190);fill-opacity:1"></path><path d="M10.4289033958368,5.339784177290568L15.023318886692673,1.978601011409085L9.611061357541303,1.9366967062312312z" style="fill:rgb(198,198,198);fill-opacity:1"></path><path d="M9.357979193554536,2.7297497056313222L14.896459421124069,2.6987603133501694L13.113021896138848,-0.7185030955369583z" style="fill:rgb(203,203,203);fill-opacity:1"></path><path d="M7.322603004162461,-4.922193120935792L6.261601032580769,-4.450707121666515L10.72765922332142,-4.706365302623999zM-10.729810618745553,-4.699303931678403L-6.229635946236072,-4.612938496345191L-7.352416695083024,-4.767023117202711z" style="fill:rgb(181,181,181);fill-opacity:1"></path><path d="M-15.054779872286534,2.517430145323908L-9.78781067152526,2.887757450874766L-8.935437084811477,-0.6268612076219108zM-14.755405583464402,2.973937892258395L-8.4898036521616,-0.13333965387362687L-13.337822765341514,-0.4137973102007241z" style="fill:rgb(195,195,195);fill-opacity:1"></path><path d="M-6.487653782199014,-3.9195201517561062L-6.913442203974816,-5.223014351249152L-10.713264459980563,-4.7019435963316685z" style="fill:rgb(203,203,203);fill-opacity:1"></path><path d="M12.554486329463678,-1.6755845836004648L9.897648480950915,-5.1776039679563315L6.288950717104527,-4.792989172828841z" style="fill:rgb(210,210,210);fill-opacity:1"></path><path d="M10.008878305361506,3.1739509575984024L13.911931002010993,-0.3404865509791582L8.778205281035902,-0.32503226935583346z" style="fill:rgb(203,203,203);fill-opacity:1"></path><path d="M12.68512220163342,-1.8487063954750649L6.452398162514591,-5.270137176435533L7.03037083532637,-4.303451007823864z" style="fill:rgb(210,210,210);fill-opacity:1"></path><path d="M8.604948598172275,0.4768572116124697L13.833577903395078,0.41811322925735156L11.81783922208162,-3.0472887810892217z" style="fill:rgb(204,204,204);fill-opacity:1"></path><path d="M-10.4458704649777,-5.188102500282284L-8.515305734390653,-1.3146303478683312L-6.460756022363094,-4.901562484069149zM-9.625451863948962,-5.532836667847522L-12.604763352861717,-1.852849734503565L-7.818442086285497,-1.820308554917388z" style="fill:rgb(203,203,203);fill-opacity:1"></path><path d="M-13.693046258214663,0.7050632262172563L-7.588738296353067,-2.471317703886882L-12.068056795619867,-2.7083318044229663zM-13.971271461057865,0.25710881805104824L-9.02770182317782,0.5999306113708361L-8.009088420861403,-2.9540812292921537z" style="fill:rgb(197,197,197);fill-opacity:1"></path><path d="M6.443885246754521,-5.11831689465093L8.302467298471047,-1.7182706256129259L12.729110429825871,-2.1455242923534428z" style="fill:rgb(210,210,210);fill-opacity:1"></path><path d="M9.277120577710043,0.9180804126312259L12.631125087821708,-2.6927143251132675L7.852162802461665,-2.6316329044783195zM-14.64028528272394,15.581333089372242L-8.31166411882619,14.961307769528783L-8.476280474883827,11.710223909836785z" style="fill:rgb(204,204,204);fill-opacity:1"></path><path d="M8.971599084380552,-3.575296804786152L6.940806403712603,-5.347636375318713L5.6494517512410045,-3.9655997806307446zM-7.1439263858261635,-5.138465134922871L-8.948283858253832,-3.4723461884836118L-5.469645028513353,-4.277721361966584z" style="fill:rgb(181,181,181);fill-opacity:1"></path><path d="M8.45114557038786,15.187933254967332L14.540869082637185,13.022331347040048L8.279117554298043,11.919213525138748zM7.938602235797168,14.642150958518897L14.35919117239507,15.794729536117087L13.892337094431419,12.4693453458584z" style="fill:rgb(163,163,163);fill-opacity:1"></path><path d="M-14.483376044917295,13.454555675364482L-8.227653149579643,12.892297657987575L-8.301838642082682,9.560284494614278z" style="fill:rgb(205,205,205);fill-opacity:1"></path><path d="M-14.179316526617415,15.988775139492647L-7.874970044096322,12.135688951120931L-14.035815143719828,12.705787712724186z" style="fill:rgb(204,204,204);fill-opacity:1"></path><path d="M8.368894720492303,13.127123443204079L14.287837143151728,10.802400589106862L8.107764481985955,9.779304779727003z" style="fill:rgb(165,165,165);fill-opacity:1"></path><path d="M-9.045251297060465,-3.741347650053634L-4.453014225130417,-4.083425021611497L-6.40553113583687,-4.560176525888347zM4.471279914257072,-4.001242235103082L9.057128969688812,-3.7872111063143805L6.375388834186056,-4.5964958561360145z" style="fill:rgb(181,181,181);fill-opacity:1"></path><path d="M7.8438290383760165,12.585338075166934L14.21623311538518,13.66311358177343L13.624570400611866,10.260104488877328z" style="fill:rgb(165,165,165);fill-opacity:1"></path><path d="M-14.23439645831959,11.25394825248368L-8.071551935624464,10.750484778590696L-8.136290718199625,7.37529340643477z" style="fill:rgb(205,205,205);fill-opacity:1"></path><path d="M-4.659513810327233,-3.4251992743869377L-5.16997461447778,-4.699041563226018L-9.049829504152935,-3.8440066391704817z" style="fill:rgb(220,220,220);fill-opacity:1"></path><path d="M-14.039539245142326,13.865757459513013L-7.717029226499163,9.991084910650676L-13.769828500178196,10.50534751363083z" style="fill:rgb(205,205,205);fill-opacity:1"></path><path d="M8.21621316282337,10.992171670764856L14.026885544147259,8.551276761237547L7.941864236451921,7.60205105452696z" style="fill:rgb(165,165,165);fill-opacity:1"></path><path d="M-8.846647664707172,-4.3301187152684L-6.290839527007974,-0.5823556915672128L-4.7296442528585985,-4.421219232613912z" style="fill:rgb(220,220,220);fill-opacity:1"></path><path d="M10.718714632896026,-0.6766834429206011L4.737347593232161,-4.795408095182423L5.219870609793873,-3.7679138723593586z" style="fill:rgb(188,188,188);fill-opacity:1"></path><path d="M7.689575427926783,10.453988037111122L13.968227258576297,11.460738889184238L13.362946625645842,8.014926990590986z" style="fill:rgb(165,165,165);fill-opacity:1"></path><path d="M-13.977687003728844,9.015440771306707L-7.94372026187633,8.576329413307455L-7.7852989590632085,5.078193664147469z" style="fill:rgb(208,208,208);fill-opacity:1"></path><path d="M4.735327156018833,-4.646066016628998L6.136281291783074,-0.9947931417037058L10.79213790373595,-0.9645924147957665zM10.563055522105678,-0.512156332849415L8.29164854589175,-4.39149288661949L4.527108294301239,-4.333459907015742z" style="fill:rgb(188,188,188);fill-opacity:1"></path><path d="M8.093218876815452,8.834646834924301L13.523472559215186,6.161253038607639L7.597627944599465,5.320226497000217z" style="fill:rgb(170,170,170);fill-opacity:1"></path><path d="M-13.790697288765998,11.669576543004233L-7.553737297079872,7.809379304850801L-13.512293075370122,8.267961956525687z" style="fill:rgb(205,205,205);fill-opacity:1"></path><path d="M-8.071709629520017,-4.758813531998793L-10.631902987066772,-0.6867589621286712L-5.666012201223488,-1.1569827950232694z" style="fill:rgb(220,220,220);fill-opacity:1"></path><path d="M6.900423246445414,1.817998456538453L10.752918483333053,-1.5177693258512388L5.794402509405988,-1.955348967329615z" style="fill:rgb(180,180,180);fill-opacity:1"></path><path d="M-13.48416644890788,6.6597564856678275L-7.6482846401178,6.289145090183638L-7.368990948469641,2.7190208482747305zM5.699809947222279,-3.9838612872681693L4.90750698334762,-4.992833697423899L5.392807457262525,-2.3415069492070755z" style="fill:rgb(210,210,210);fill-opacity:1"></path><path d="M7.8070265679119535,6.5649567172693155L12.888014131122508,3.708524553969876L7.182713443240786,2.975425031462677z" style="fill:rgb(172,172,172);fill-opacity:1"></path><path d="M-11.887541488015048,1.698823197478612L-6.692668297116506,1.4741940606177215L-5.976004992097277,-2.256051823288915z" style="fill:rgb(215,215,215);fill-opacity:1"></path><path d="M7.537591168135144,8.302442660647003L13.745313984565358,9.209839310999367L12.824159495756081,5.646571403525097z" style="fill:rgb(170,170,170);fill-opacity:1"></path><path d="M7.474350913077601,4.249117257840392L11.891391639243688,1.1087476051294736L6.52338209168651,0.5284274523989702z" style="fill:rgb(178,178,178);fill-opacity:1"></path><path d="M5.649665455697339,-2.3827618684720213L5.345140004915221,-5.058637534771733L4.750248541529789,-3.979782750437021zM-4.400070279317126,-4.360087328086515L-5.979422759284856,-4.645534068104059L-5.36555885947091,-2.4155606110356445z" style="fill:rgb(181,181,181);fill-opacity:1"></path><path d="M-12.860422604882261,4.237030595980161L-7.296002297668419,3.938092043065228L-6.7018669834331535,0.2509673561891455z" style="fill:rgb(214,214,214);fill-opacity:1"></path><path d="M-13.575536939615816,9.43163690237912L-7.240010843595238,5.517939807687113L-12.977281797424295,5.916477139843126z" style="fill:rgb(208,208,208);fill-opacity:1"></path><path d="M5.061522842157447,-3.2487340261142603L6.8974722233217065,-0.5946857816703719L5.194738297389549,-4.880878217893491z" style="fill:rgb(210,210,210);fill-opacity:1"></path><path d="M-11.572709313244568,2.10931809718274L-5.516771781630956,-1.816623188538363L-10.185228687192437,-1.5949227126996328z" style="fill:rgb(215,215,215);fill-opacity:1"></path><path d="M7.235796126751963,6.038168175102515L13.270164271321176,6.844374858972091L12.170794443303857,3.210657216180954z" style="fill:rgb(172,172,172);fill-opacity:1"></path><path d="M6.273814989793323,1.3063379634651064L11.733457883393365,1.8469708647470133L9.979526794682377,-1.9536216380294373z" style="fill:rgb(180,180,180);fill-opacity:1"></path><path d="M-13.102158811030558,7.077462374790126L-6.843170560907868,3.1614217234184046L-12.332783194125023,3.498911730903174z" style="fill:rgb(210,210,210);fill-opacity:1"></path><path d="M2.601972066874935,-3.780427545961183L6.166299748049951,-2.809957059872279L5.261018045338133,-4.547843902650645zM-5.967345399545527,-2.704626191640803L-2.583131226728751,-3.8914091627445972L-5.478812138078149,-4.542193154098708z" style="fill:rgb(181,181,181);fill-opacity:1"></path><path d="M-12.528482143716191,4.647602621289631L-6.224037184631672,0.6926825306504614L-11.311918119541613,0.9712849895581072z" style="fill:rgb(214,214,214);fill-opacity:1"></path><path d="M6.865282180405685,3.731647150672001L12.687008675619131,4.4004586468377545L11.132966572842523,0.6468762303119232z" style="fill:rgb(178,178,178);fill-opacity:1"></path><path d="M-6.923312487940516,0.6125215477287507L-4.9292434523030435,-5.009508446287723L-5.389642267690024,-3.9381194859904363zM-5.014895433972286,-4.8640523543453185L-6.662993846525556,-1.5211361766882425L-6.717918910630886,0.6439859082506176z" style="fill:rgb(0,0,0);fill-opacity:1"></path><path d="M3.5884583103697105,-3.9895822370196834L1.982635665432375,-3.761374670430279L6.326589735457849,-3.095376622740712zM-6.325955769501458,-3.082071340850989L-1.9844510908734316,-3.84372551805938L-3.587275512032413,-3.920536519300648z" style="fill:rgb(181,181,181);fill-opacity:1"></path><path d="M-2.1031839713832055,-3.1608069081140164L-2.781941077112026,-4.346262611001376L-6.319768233936549,-3.1261170182405493z" style="fill:rgb(228,228,228);fill-opacity:1"></path><path d="M-10.169170600006067,17.938531873019773L-4.271011564088898,16.127317835389693L-4.517675199245365,12.821106034189299z" style="fill:rgb(214,214,214);fill-opacity:1"></path><path d="M-7.4582874269604655,1.969912638310497L-6.391323491661362,-0.2966417892538218L-6.3301956409043,-2.4641418826781543z" style="fill:rgb(0,0,0);fill-opacity:1"></path><path d="M4.357020440484437,16.381344155886087L10.189909110675654,15.226297448171488L4.2979241159174855,13.00599853853805z" style="fill:rgb(117,117,117);fill-opacity:1"></path><path d="M7.566729356273114,3.4407479116711284L7.220018962825347,1.0048461040334296L6.168825747120863,-2.443151230293646z" style="fill:rgb(204,204,204);fill-opacity:1"></path><path d="M-8.063605957253424,4.442468662824471L-7.218796719230277,2.4929041298417585L-7.006081256514592,0.036396873306098976z" style="fill:rgb(0,0,0);fill-opacity:1"></path><path d="M-6.165071997895702,-3.640874190849219L-3.199987232871113,-0.08438684142904745L-2.33042743001123,-4.140092856585709z" style="fill:rgb(228,228,228);fill-opacity:1"></path><path d="M8.666173723171472,8.837313839368292L8.168108250293992,5.844554418563302L7.601276304446537,2.503393423034615z" style="fill:rgb(198,198,198);fill-opacity:1"></path><path d="M-8.33724851540702,6.830133056221231L-8.050639868350592,5.231163541910391L-7.604328127102085,2.5028880595393495z" style="fill:rgb(0,0,0);fill-opacity:1"></path><path d="M-0.4472492381879942,-4.496333224699691L0.027146089758798137,0.20890396418697205L0.2890548080618707,-3.477303764135415z" style="fill:rgb(230,230,230);fill-opacity:1"></path><path d="M8.24580761663527,6.211813294338567L7.817445669731862,3.4785604082383954L6.909500968201152,0.050994647626674994z" style="fill:rgb(203,203,203);fill-opacity:1"></path><path d="M3.6105134392373746,-3.3513647937484317L2.7386131648829473,-4.579780857614733L1.1800618880848337,-2.347490025037262z" style="fill:rgb(224,224,224);fill-opacity:1"></path><path d="M7.349552034417088,0.3253834151688586L2.3826976240278985,-4.526200636887352L2.7147202827653545,-3.449276420764318z" style="fill:rgb(156,156,156);fill-opacity:1"></path><path d="M-1.272471281758096,-4.092178101622099L-3.71131972520669,-4.01090200039691L-1.505419049960575,-2.237399706675024zM1.5757069235837975,-2.1670434330459845L3.641584146136576,-4.185052436297429L1.2719196736146512,-3.9883839393506193z" style="fill:rgb(181,181,181);fill-opacity:1"></path><path d="M-10.060336215832347,15.655336758338326L-4.222556194720944,13.976279314965808L-4.416755152302661,10.579794934281292z" style="fill:rgb(216,216,216);fill-opacity:1"></path><path d="M-6.9262664524548,0.6096726142030142L-4.978337150641889,-3.3131404178258297L-5.330073893493679,-5.019346683177456z" style="fill:rgb(0,0,0);fill-opacity:1"></path><path d="M1.1380660342932094,-3.116582066333078L3.9216825404666933,-0.10079121138459485L3.1589183451603957,-4.31079582101245z" style="fill:rgb(224,224,224);fill-opacity:1"></path><path d="M-2.2937488295529103,-4.205221725212833L-2.3376779639626326,-2.215475824287232L0.788721285276111,-3.789331438422093zM2.373855327443579,-2.285126097247594L2.2733408867708667,-4.294179203699299L-0.8044898995548051,-3.630723686975265z" style="fill:rgb(181,181,181);fill-opacity:1"></path><path d="M4.312819929084849,14.244026969804212L10.010368550165621,12.827477452241382L4.198109434253107,10.776838936572988z" style="fill:rgb(120,120,120);fill-opacity:1"></path><path d="M4.892910641599453,-4.198146276367075L6.897569582677486,0.6168997986015738L6.597808351419164,-1.5476642472683046z" style="fill:rgb(210,210,210);fill-opacity:1"></path><path d="M2.9522047792668857,19.61466940658182L5.160002884504198,15.859184795089156L4.8341742096542655,12.670634931865138z" style="fill:rgb(209,209,209);fill-opacity:1"></path><path d="M2.3838729983420044,-4.39267967509662L3.0787996356147826,-0.5090947354883724L7.474890442657778,0.019513568573804818z" style="fill:rgb(156,156,156);fill-opacity:1"></path><path d="M-5.3676315888954305,16.147658666214326L-2.5146536706956093,16.897191328217566L-5.0226490515277575,12.738959593499446z" style="fill:rgb(0,0,0);fill-opacity:1"></path><path d="M3.882840327677136,15.737771886077889L9.914596302758609,18.089269089534106L9.589260897147621,14.572999742865317z" style="fill:rgb(117,117,117);fill-opacity:1"></path><path d="M7.16248192364884,0.46203667010308835L5.66332723541081,-3.7863648244903048L2.1038948800978003,-4.064084554382918z" style="fill:rgb(156,156,156);fill-opacity:1"></path><path d="M-2.182032469544301,1.140393117629194L-2.806720680787222,-4.717825345703026L-2.9859073582383524,-3.5714398806057255z" style="fill:rgb(0,0,0);fill-opacity:1"></path><path d="M-9.885860470326207,13.282222783830049L-4.132497238869298,11.745260284386335L-4.321940399645566,8.304469555018475z" style="fill:rgb(216,216,216);fill-opacity:1"></path><path d="M-9.718638316856858,18.252786238792392L-3.935281394072045,13.148108152188689L-9.6765030488702,14.837356544921432z" style="fill:rgb(214,214,214);fill-opacity:1"></path><path d="M3.537885578007884,2.444768517102733L7.4996717326724065,-0.5785427540469605L2.8884349735147627,-1.513493990750536z" style="fill:rgb(143,143,143);fill-opacity:1"></path><path d="M4.2300010917449,12.023221013949879L9.824496054406724,10.399520137167421L4.101457570298686,8.512006663263112z" style="fill:rgb(120,120,120);fill-opacity:1"></path><path d="M-2.859259699465606,-4.5556064800784535L-4.024238444172411,-0.7099886197281589L-1.780641060660628,0.8671895687973583z" style="fill:rgb(0,0,0);fill-opacity:1"></path><path d="M-3.9986808941989067,19.400830160982128L0.5076057432573688,16.45854517504897L0.17412720055616138,13.167075183031947z" style="fill:rgb(216,216,216);fill-opacity:1"></path><path d="M-5.480350217502793,-4.164339554853595L-7.264519150438876,0.2858028003506035L-2.6754267107094143,-0.7420431537955199z" style="fill:rgb(228,228,228);fill-opacity:1"></path><path d="M2.9000777759395304,17.24795969382182L5.122986370491913,13.702226783846394L4.736664060465732,10.43139397525293z" style="fill:rgb(210,210,210);fill-opacity:1"></path><path d="M2.867856721973988,0.9890188564369236L-0.21513948218035717,-4.514188678653251L-0.19742193492432836,-3.2981229662516247z" style="fill:rgb(109,109,109);fill-opacity:1"></path><path d="M-8.228079437066683,2.9111548873936126L-3.355379802975775,2.0454713878019906L-3.1183005508457913,-1.8105806838579759z" style="fill:rgb(225,225,225);fill-opacity:1"></path><path d="M7.628443118819434,3.4270042073336L6.235146845134458,-2.4592022187325324L6.542541427446235,-0.3203036390319082z" style="fill:rgb(204,204,204);fill-opacity:1"></path><path d="M-5.335110559733386,14.07309202272648L-2.407063018507397,14.334226823588908L-4.952204308524859,10.51485413892614zM-7.2723536799455495,0.9850280909193465L-7.576807732592349,3.438242627161333L-6.269059864663332,-1.2738573742735815z" style="fill:rgb(0,0,0);fill-opacity:1"></path><path d="M-9.705005766369668,10.874964641533433L-4.06007782158069,9.482268470319633L-4.122745476103991,5.898152072111089z" style="fill:rgb(219,219,219);fill-opacity:1"></path><path d="M-0.5144995038980078,16.754504320227056L4.20402196085241,16.596871889414405L-0.4140220717645267,13.314394763816814z" style="fill:rgb(0,0,0);fill-opacity:1"></path><path d="M3.8289299022864483,13.608133956314186L9.813500211007604,15.805128956647657L9.396639300889918,12.18860477397069z" style="fill:rgb(120,120,120);fill-opacity:1"></path><path d="M4.1661046339898045,9.78455045934712L9.465131223702793,7.79927267048397L3.9049164660568625,6.123535630898302z" style="fill:rgb(127,127,127);fill-opacity:1"></path><path d="M3.8407569268645485,4.99764484389542L8.303493188691416,2.283557226041345L3.2972692663187413,1.0922377399351757z" style="fill:rgb(139,139,139);fill-opacity:1"></path><path d="M-0.2817871105547358,-4.295626342920013L-0.49121874266865573,-0.38383178567279885L3.097252239470459,0.6572337047881456z" style="fill:rgb(109,109,109);fill-opacity:1"></path><path d="M-9.618455301888416,15.9785243742475L-3.8429188117180484,10.916108514124268L-9.488763964140148,12.466795446125364z" style="fill:rgb(216,216,216);fill-opacity:1"></path><path d="M-9.35557854062225,8.317609031279837L-3.8924590155400884,7.090287364916098L-3.889325791274378,3.4254041450541615z" style="fill:rgb(220,220,220);fill-opacity:1"></path><path d="M-8.913817741049696,5.687365837666153L-3.6939873695258503,4.632396189901167L-3.51798404614426,0.8232764665359291z" style="fill:rgb(223,223,223);fill-opacity:1"></path><path d="M0.06874966701023044,-4.520170077118982L-3.0183376623712648,0.8173688752535626L0.4942929609341789,-0.5284332393728326z" style="fill:rgb(230,230,230);fill-opacity:1"></path><path d="M4.0129948507175985,7.415010961042321L9.011882678078841,5.128679136661702L3.669144598312865,3.668533420250836z" style="fill:rgb(131,131,131);fill-opacity:1"></path><path d="M-4.266001806586607,2.5049674974877796L-1.522642166676224,0.029877324754431778L-3.8639244495314014,-1.6982599476528268z" style="fill:rgb(0,0,0);fill-opacity:1"></path><path d="M2.818846073755258,14.780172391898676L5.049200506708372,11.468998477296816L4.6453315016395065,8.156611380662312z" style="fill:rgb(210,210,210);fill-opacity:1"></path><path d="M8.286988785342025,6.203153184996384L6.9564519498703765,0.040569824698097445L7.334818370252017,2.468602837376316z" style="fill:rgb(203,203,203);fill-opacity:1"></path><path d="M-7.878373692900751,3.4576328054425356L-8.25415069678326,6.209928786754836L-7.066554696758272,1.5121761411969037zM-8.17230984572867,5.843822053056764L-8.666477911930047,8.83726260080306L-7.886545692719409,4.244733208204855z" style="fill:rgb(0,0,0);fill-opacity:1"></path><path d="M-3.967143140257841,17.027547860384754L0.5129161665864145,14.277509782678841L0.17872659299393528,10.893040698996677z" style="fill:rgb(217,217,217);fill-opacity:1"></path><path d="M8.667429298394852,8.837102843059336L7.602772726932958,2.5031414672561936L8.056489149736764,5.230169130605292z" style="fill:rgb(198,198,198);fill-opacity:1"></path><path d="M-5.246632322352501,11.91239744527868L-2.3131638362726306,11.744822899528371L-4.886119319786098,8.256297741033475zM-2.299924177427304,1.136850390939474L-1.3239445234267404,-3.349836881264569L-3.3567046504985654,-4.337019894507934z" style="fill:rgb(0,0,0);fill-opacity:1"></path><path d="M-7.858302623773726,3.278292708035343L-2.6094571137856657,-1.4347371443835983L-6.970380252706308,-0.6877263973472904z" style="fill:rgb(225,225,225);fill-opacity:1"></path><path d="M2.168301277562638,3.93543913229342L4.34659036748987,1.7593424334765277L3.4178151731160753,-1.9365633054235296z" style="fill:rgb(219,219,219);fill-opacity:1"></path><path d="M-0.5109879936940571,14.602826580693172L4.147186614388167,14.079893903686193L-0.42604854823443594,11.055970390001288z" style="fill:rgb(0,0,0);fill-opacity:1"></path><path d="M3.742186725636751,11.395595265950154L9.63860560421992,13.432867710679663L9.206652706146805,9.772692900046025z" style="fill:rgb(120,120,120);fill-opacity:1"></path><path d="M2.978243461491617,1.8515570636689405L8.060252933936544,3.030341151800718L6.793902007576423,-1.0972128824711405z" style="fill:rgb(143,143,143);fill-opacity:1"></path><path d="M0.5991710375972701,-4.185096139301546L-2.355062529318724,-3.313410642683011L-2.578177310945226,1.0789512179234038z" style="fill:rgb(230,230,230);fill-opacity:1"></path><path d="M2.666179746548803,1.0657972293717088L2.3070899251456414,-3.438855996796122L-0.6392003485205335,-4.04649679663674z" style="fill:rgb(109,109,109);fill-opacity:1"></path><path d="M-0.3869091775203127,2.68311353004402L3.2117042958242705,-0.033278590966414L-0.5005489376301138,-1.40508626141348z" style="fill:rgb(80,80,80);fill-opacity:1"></path><path d="M-4.661184450590406,5.050090730164974L-1.7875465977837885,3.0549765784432914L-4.223734814055954,0.8805451702724656z" style="fill:rgb(0,0,0);fill-opacity:1"></path><path d="M-9.441211144817828,13.614645721386703L-3.7473557493919145,8.64900027759233L-9.306809673568583,10.061558494748486z" style="fill:rgb(216,216,216);fill-opacity:1"></path><path d="M2.7438146948779583,12.280737374778539L4.988591995555156,9.198471797521542L4.445383135582152,5.754946283124189z" style="fill:rgb(213,213,213);fill-opacity:1"></path><path d="M-5.1418116942321115,9.752995085167228L-2.1734420047675536,8.940212238693277L-4.734071133044421,5.879009617962129z" style="fill:rgb(0,0,0);fill-opacity:1"></path><path d="M1.468241007902766,-3.840402829710225L2.118425519915192,1.0626538282288163L4.083385651746479,-1.0217908056813163z" style="fill:rgb(224,224,224);fill-opacity:1"></path><path d="M-3.9130458192462982,14.553648987475796L0.5209223766364127,12.015405274068048L0.18197339626275427,8.585093360746434z" style="fill:rgb(217,217,217);fill-opacity:1"></path><path d="M2.4330888959219044,6.857116345493429L4.658277951803543,4.342206350366641L3.8294263209205806,0.690284262796206z" style="fill:rgb(218,218,218);fill-opacity:1"></path><path d="M-4.92912491219197,7.438884211525719L-2.017202241170781,6.082041233837812L-4.542697892222998,3.437866537144355z" style="fill:rgb(0,0,0);fill-opacity:1"></path><path d="M3.6593840077013553,9.164999394634892L9.479271229893468,11.019985546806243L8.820701197487855,7.194988320197172z" style="fill:rgb(127,127,127);fill-opacity:1"></path><path d="M2.601098092033159,9.607883636010333L4.83991555580682,6.8042815459397215L4.209522754616254,3.285993540393286z" style="fill:rgb(215,215,215);fill-opacity:1"></path><path d="M-3.3319773325968827,3.69915955134234L0.5455509144905,2.1685618480128506L0.18204148166127032,-1.7013393359340314z" style="fill:rgb(226,226,226);fill-opacity:1"></path><path d="M-8.535485852693913,6.044578550707958L-3.0003068159884703,1.1940735371641846L-7.756643562585388,2.1089457483900746z" style="fill:rgb(223,223,223);fill-opacity:1"></path><path d="M-0.5049696284793518,12.362955547404157L4.085242884310208,11.535889575872112L-0.43758577286426376,8.76303833499673zM-5.560375700850057,15.239031626135533L-3.048732774602875,19.630903541213826L-2.8261942062566754,15.957808387401021z" style="fill:rgb(0,0,0);fill-opacity:1"></path><path d="M3.2964885423743717,4.395651108137582L8.729806904949642,5.8161513523412465L7.611641962191327,1.734333427623637z" style="fill:rgb(139,139,139);fill-opacity:1"></path><path d="M-9.285231813554041,11.21617989405506L-3.5691888865941803,6.252918465111629L-8.928878550763644,7.507463655003686z" style="fill:rgb(219,219,219);fill-opacity:1"></path><path d="M3.4941955767385493,6.804171393342278L9.142236718664895,8.458127682217754L8.35184844815123,4.545159492080341z" style="fill:rgb(131,131,131);fill-opacity:1"></path><path d="M-8.946288703456917,8.668170089624915L-3.3452795505432156,3.7885904658056484L-8.473980697412612,4.880051040198449z" style="fill:rgb(220,220,220);fill-opacity:1"></path><path d="M-0.42948859069709044,5.274907932176024L3.5181808012309648,2.9765095086475024L-0.4843073123409641,1.2361909758881136z" style="fill:rgb(71,71,71);fill-opacity:1"></path><path d="M3.204759890054689,19.66946113906526L5.157788266629406,12.722954545922466L3.0164797572412487,16.27353808718786z" style="fill:rgb(209,209,209);fill-opacity:1"></path><path d="M-3.8533104087685626,12.048360478625934L0.5246040351919762,9.720000652184034L0.18601891543180382,6.139911440181992z" style="fill:rgb(220,220,220);fill-opacity:1"></path><path d="M-0.9032581552029932,15.987973084087908L3.8031832405458808,19.478452010549404L3.692523250232364,15.81789424365823z" style="fill:rgb(0,0,0);fill-opacity:1"></path><path d="M-0.4893035124891385,10.111007811186798L3.955830765614412,8.794344956948304L-0.4523047796194206,6.340981289255224z" style="fill:rgb(26,26,26);fill-opacity:1"></path><path d="M-3.5761387233922424,6.618539345355492L0.5365989096441417,4.7963715200726424L0.1868281540437374,0.9766920310590492z" style="fill:rgb(225,225,225);fill-opacity:1"></path><path d="M-0.4685581245181023,7.718472401107247L3.7880196946493387,5.980076353004043L-0.46674990519307746,3.8520120012101913z" style="fill:rgb(44,44,44);fill-opacity:1"></path><path d="M-3.733273357257115,9.37148914428214L0.5317622953606675,7.291715010343203L0.18728859930074768,3.6267233405315946z" style="fill:rgb(222,222,222);fill-opacity:1"></path><path d="M-3.594941160290479,19.59611954393984L0.6922783563823254,13.366342470580674L-3.689785533111572,16.128877359636842z" style="fill:rgb(216,216,216);fill-opacity:1"></path><path d="M-5.529930163205221,13.165960358653345L-2.9991274486139816,17.26421236732653L-2.743172419668054,13.41569403291132z" style="fill:rgb(0,0,0);fill-opacity:1"></path><path d="M2.578977543162485,4.055272569271758L3.877347254098803,-1.8560097472969401L1.939338072970946,0.05259211562257432z" style="fill:rgb(219,219,219);fill-opacity:1"></path><path d="M3.170314496785021,17.308745585073826L5.078117527810729,10.487764581273717L2.9348666704541495,13.80891724010825z" style="fill:rgb(210,210,210);fill-opacity:1"></path><path d="M-4.569204750090677,1.6131167371245063L-2.2644968853792444,3.946326793809287L-1.9562199334141772,-0.6787324266423373zM-0.9083375202587674,13.845506111678738L3.7728324254071124,17.105890095312034L3.6211555465443466,13.319856153882194z" style="fill:rgb(0,0,0);fill-opacity:1"></path><path d="M-2.902579323989192,3.986771640497782L0.7229648778647155,-1.4360728890681043L-2.7490169788069423,-0.11779120606742982z" style="fill:rgb(226,226,226);fill-opacity:1"></path><path d="M-3.5586665929325854,17.234670945869752L0.7010328879944434,11.10290831317054L-3.6280167407976913,13.65898043457286z" style="fill:rgb(217,217,217);fill-opacity:1"></path><path d="M-0.8538817919054559,1.9781972420428813L3.173618758541303,3.766820297483928L2.6088941351406234,-0.6371952399254681z" style="fill:rgb(80,80,80);fill-opacity:1"></path><path d="M-5.455266712308324,11.005468241947375L-2.9191437030551985,14.79709780367762L-2.6760753558629347,10.851189729133907z" style="fill:rgb(0,0,0);fill-opacity:1"></path><path d="M3.104229770107344,14.84850466581587L5.000242597269265,8.219221470024467L2.853944935624701,11.310078255970241z" style="fill:rgb(210,210,210);fill-opacity:1"></path><path d="M2.8098033282074133,6.958398435857531L4.267283082404645,0.7647039029654119L2.2413003131373794,2.9832366310010903z" style="fill:rgb(218,218,218);fill-opacity:1"></path><path d="M-0.9117512604550929,11.616267748443773L3.7170329884614626,14.633756215427224L3.5475558087086863,10.79486409804526zM-4.929798270134308,4.14353234143976L-2.5342764230472445,6.869375792527195L-2.199812662090565,2.2919688876973274zM-5.361186668575987,8.840474369743623L-2.846584891719326,12.296366911208121L-2.5547181450429086,8.086760433239922z" style="fill:rgb(0,0,0);fill-opacity:1"></path><path d="M-3.495467748881535,14.773379944051797L0.7113506296250987,8.806196546822465L-3.5687203973029344,11.155460986211434z" style="fill:rgb(217,217,217);fill-opacity:1"></path><path d="M-3.1543805570088104,6.886455760012917L0.7234908088736615,1.2322442866950465L-3.0262068251046115,2.814750118425955z" style="fill:rgb(225,225,225);fill-opacity:1"></path><path d="M3.057058207749935,12.357456354336831L4.828338874440076,5.820866754075556L2.7010354389773967,8.641867358311345z" style="fill:rgb(213,213,213);fill-opacity:1"></path><path d="M-5.174280534032945,6.526518514740766L-2.704007562958099,9.622905429673585L-2.4181686200595873,5.269461268872293z" style="fill:rgb(0,0,0);fill-opacity:1"></path><path d="M2.940208798313558,9.695880224663894L4.615127354710425,3.357976053465433L2.518389318609609,5.894381963145958z" style="fill:rgb(215,215,215);fill-opacity:1"></path><path d="M-0.8776205605926102,4.557026351424221L3.406979777162954,6.690707977099473L2.9277373556591844,2.332027435661613z" style="fill:rgb(71,71,71);fill-opacity:1"></path><path d="M-0.9073552693302745,9.372995004906773L3.66480613415019,12.126745125162826L3.399459079585072,8.081094669397185z" style="fill:rgb(26,26,26);fill-opacity:1"></path><path d="M-3.4359210624467544,12.282635330428828L0.7169151664875613,6.3726169605310865L-3.4379040437796693,8.481822206056389z" style="fill:rgb(220,220,220);fill-opacity:1"></path><path d="M-0.8995268821850599,6.991147608463092L3.549849283403237,9.448715383300723L3.2166117182274547,5.295906251815403z" style="fill:rgb(44,44,44);fill-opacity:1"></path><path d="M-3.310381498490006,9.621610858561183L0.7230783899397408,3.8712893175959873L-3.2796310046513395,5.730222807639137z" style="fill:rgb(222,222,222);fill-opacity:1"></path></svg>