<svg viewBox="-25 -25 50 50" width="50" height="50" style="background-color: rgb(255, 255, 255);"><path d="M-0.07069925950354557,-11.3921231988893L-0.4866058723452782,5.764795820218802L2.3570181033270527,5.604699049636708z" style="fill:rgb(172,172,172);fill-opacity:1"></path><path d="M-2.056506700827636,-11.356194400305224L-2.2702690649521,5.877200765088451L0.5526816316094266,5.491395897972473z" style="fill:rgb(188,188,188);fill-opacity:1"></path><path d="M1.9166380097870603,-11.35805590430518L1.300107166027101,5.801853865742285L4.116704746292376,5.867521857230759z" style="fill:rgb(151,151,151);fill-opacity:1"></path><path d="M6.117365053275604,-10.850041058361192L2.5727356760879982,-11.043393975887595L-1.0129996271799107,-11.086155338063001zM0.9863418909166519,-11.090939993949878L-2.5996030936874686,-11.043456470673057L-6.144117343201698,-10.845193907688854z" style="fill:rgb(181,181,181);fill-opacity:1"></path><path d="M-3.9996878836957612,-11.250442015953036L-4.01023086278041,6.139905507826732L-1.2570787127077212,5.526857699956626z" style="fill:rgb(200,200,200);fill-opacity:1"></path><path d="M6.118005029342443,-10.875381206233667L-0.013427475339824912,-11.102739447999994L-6.144874820486025,-10.87142536421546z" style="fill:rgb(181,181,181);fill-opacity:1"></path><path d="M3.8644227587212168,-11.254001647987293L3.04969129834751,5.986418975561731L5.790641711048625,6.279844557127018z" style="fill:rgb(121,121,121);fill-opacity:1"></path><path d="M-5.857340220513544,-11.075297500279566L-5.663903298533323,6.5525946353786875L-3.0336163911379677,5.709585830375719z" style="fill:rgb(207,207,207);fill-opacity:1"></path><path d="M5.729796191505902,-11.080233478709554L4.721142482658376,6.314956878441727L7.33454145839473,6.840678885951802z" style="fill:rgb(72,72,72);fill-opacity:1"></path><path d="M-2.5374205805054664,-10.848529723176535L0.06509884890983911,6.145835058268007L0.4979405689035468,-10.906727882410364z" style="fill:rgb(188,188,188);fill-opacity:1"></path><path d="M-0.5571631662945914,-10.901662586726301L1.8532860226929389,6.221379276189721L2.477971277771962,-10.854301750486481z" style="fill:rgb(172,172,172);fill-opacity:1"></path><path d="M-4.150090756090144,-10.989456724808448L-7.615224925072016,-10.711269894349321L-9.753116554794584,-10.388261528603415z" style="fill:rgb(181,181,181);fill-opacity:1"></path><path d="M-4.47464017601478,-10.725115129980086L-1.7247215646516738,6.220048989960996L-1.4826610932732907,-10.889486956052023z" style="fill:rgb(200,200,200);fill-opacity:1"></path><path d="M-7.583095475360371,-10.83168762781793L-7.185312634538596,7.113304415639631L-4.7377032792176665,6.037174405253473z" style="fill:rgb(211,211,211);fill-opacity:1"></path><path d="M10.910484852645059,-10.247894855985933L7.585785014709324,-10.70076168210675L4.1227061917573655,-10.98470484782709z" style="fill:rgb(181,181,181);fill-opacity:1"></path><path d="M1.42516958712493,-10.885331625449925L3.6000131040502326,6.446179593367782L4.416482959222582,-10.731320994372634z" style="fill:rgb(151,151,151);fill-opacity:1"></path><path d="M6.1175471660585075,-10.919334523137763L-5.150336393591608,-10.962912683921004L-13.087702056820063,-9.871409111717691zM-0.9976366676765775,-10.358273315743906L1.984373502755186,-10.253398478476887L6.105934157742666,-11.039684036803203zM-2.9729727434021758,-10.31680501876702L0.0026678304581043144,-10.353681555938191L6.1142135803811835,-10.980869256318785z" style="fill:rgb(181,181,181);fill-opacity:1"></path><path d="M-6.3259193539252765,-10.530736354055472L-3.4763557726537835,6.4436551238305055L-3.4230422029635217,-10.803769342293968z" style="fill:rgb(207,207,207);fill-opacity:1"></path><path d="M0.9858310674604098,-10.286275040753123L4.041255034183084,-9.889283404136082L5.973513590947214,-11.335765421182842z" style="fill:rgb(181,181,181);fill-opacity:1"></path><path d="M3.3687723244300587,-10.800647733294992L5.264070969172903,6.8187043896483726L6.27058952841508,-10.537046605617517z" style="fill:rgb(121,121,121);fill-opacity:1"></path><path d="M-4.152287528216532,-11.009113168473464L-8.76768241565819,-10.559195653958634L-13.08140071043443,-9.815948998998628zM2.996505978880602,-10.023196087352835L6.655240916927875,-9.73473912152776L5.132504475927069,-11.473766203255611zM-1.9733478275806766,-10.343741857091837L6.116167054878279,-10.956409386309044L-13.09239614977728,-9.923528523659744z" style="fill:rgb(181,181,181);fill-opacity:1"></path><path d="M-9.125764239348003,-10.521443354811566L-8.523848865763089,7.817362229464669L-6.328638962959817,6.506039876613735z" style="fill:rgb(211,211,211);fill-opacity:1"></path><path d="M6.2562421404640975,6.615684373692117L8.608865107380625,7.708042869208739L9.1131448837719,-10.521769727129453z" style="fill:rgb(0,0,0);fill-opacity:1"></path><path d="M-8.044679035009937,-10.264785577985045L-5.148613072813539,6.815250459878873L-5.280876112819674,-10.651444842993385z" style="fill:rgb(211,211,211);fill-opacity:1"></path><path d="M5.231300766135966,-10.649394518506076L6.801643768050409,7.335904828727735L7.993728467733324,-10.270832781165076z" style="fill:rgb(72,72,72);fill-opacity:1"></path><path d="M-7.773616548991954,-10.669820345195765L-9.951520076544469,-10.400514513533057L-13.076900432728602,-9.788897703514758zM5.538723076630127,-9.735443322080279L8.439043084395358,-9.58607662055991L4.377220660713006,-11.492172688129635zM14.934381860877403,-9.295231455881689L9.926977580150831,-10.426064685832733L4.126863069750327,-11.019080439943348zM-3.9074858966833905,-10.247112043009693L-0.9755070191774018,-10.408979029403792L-13.092802536517512,-9.932610769768848z" style="fill:rgb(181,181,181);fill-opacity:1"></path><path d="M-9.579045920377762,-9.926599993540963L-6.6976954029445,7.331898349559867L-7.010930953449703,-10.435841960051759z" style="fill:rgb(211,211,211);fill-opacity:1"></path><path d="M6.712543847183385,7.332352773505496L9.585335356116516,-10.080858351568693L6.989793188395619,-10.28204046826329z" style="fill:rgb(0,0,0);fill-opacity:1"></path><path d="M-13.093027539983593,-9.941100779489174L-5.754388978862908,-10.030506210432016L-2.9120306126766407,-10.337472398325302zM7.440266920098294,-9.723580291754555L9.983570260603143,-9.271981902062949L4.192149030812874,-11.264354012335387z" style="fill:rgb(181,181,181);fill-opacity:1"></path><path d="M-10.42855476798304,-10.147888434678073L-9.623555111676158,8.655545996037754L-7.763703314705761,7.1112458977766515z" style="fill:rgb(207,207,207);fill-opacity:1"></path><path d="M7.678085170407092,7.205721782406704L9.719940907872642,8.561387409604997L10.417787116085224,-10.148205732875368z" style="fill:rgb(0,0,0);fill-opacity:1"></path><path d="M-13.093095980654288,-9.96979904652675L-7.46809867716724,-9.721792163562522L-4.7689878723267185,-10.199478189992638zM14.92487333102751,-9.24960225384949L12.073574795528737,-10.01380412000167L8.935714785749637,-10.554348183916897zM9.00963916858382,-9.49941499647337L11.27824971356304,-8.86007147915134L4.172244865353936,-11.215935442667636zM10.295777369777861,-8.941862133426051L14.944971815231055,-9.453607956816073L4.152608966189919,-11.132450756497573z" style="fill:rgb(181,181,181);fill-opacity:1"></path><path d="M-10.870229466588787,-9.514834499050965L-8.076276100956566,7.988286862715414L-8.564582175974023,-10.1633827781188z" style="fill:rgb(207,207,207);fill-opacity:1"></path><path d="M8.090842102912887,7.988857995297197L10.88695328177626,-9.694399685115748L8.533292422375943,-9.984389960131232z" style="fill:rgb(0,0,0);fill-opacity:1"></path><path d="M-13.088418193525817,-10.043111884321014L-8.993817423343943,-9.286418586871122L-6.508946239508594,-10.00776126877741z" style="fill:rgb(181,181,181);fill-opacity:1"></path><path d="M8.905307976071013,7.915921133973192L10.524508339733604,9.542279268969544L11.420929468423891,-9.716873582154724z" style="fill:rgb(0,0,0);fill-opacity:1"></path><path d="M-11.429278836131536,-9.716595447471049L-10.423767496935954,9.611130086082467L-8.997699451161019,7.846792182176593z" style="fill:rgb(200,200,200);fill-opacity:1"></path><path d="M-13.045544707365456,-10.224838400981852L-10.280835857507363,-8.662632859885504L-8.10894887886986,-9.765327398039844zM-11.132691299373413,-10.245436152824391L-14.006692704282115,-9.551820121837993L-16.465510216571676,-8.557831953761315z" style="fill:rgb(181,181,181);fill-opacity:1"></path><path d="M9.247375642347489,8.776210349494546L11.887717558589566,-9.248741746285885L9.839803533538062,-9.624331820907406z" style="fill:rgb(0,0,0);fill-opacity:1"></path><path d="M-11.849599586813264,-9.02507805998721L-9.233134669183555,8.775548495318327L-9.892162478478298,-9.847333653029862z" style="fill:rgb(200,200,200);fill-opacity:1"></path><path d="M-12.062111155201546,-9.236286174870406L-10.862880638484516,10.655928787402283L-9.981490118922022,8.706398670182674z" style="fill:rgb(188,188,188);fill-opacity:1"></path><path d="M9.901875017845482,8.739909566725949L10.947821371250264,10.622637106448394L12.056785523512337,-9.236505390459794z" style="fill:rgb(0,0,0);fill-opacity:1"></path><path d="M-12.82453292285139,-10.567426366094908L-11.39432921471249,-7.918362009930101L-9.52576256791542,-9.360663357138744zM9.364777300705093,-9.315745784043806L11.33033012380913,-8.322845849052595L14.908288326359061,-9.719605622135811z" style="fill:rgb(181,181,181);fill-opacity:1"></path><path d="M10.127566964381717,9.680498675294029L12.52213921417893,-8.749389353125828L10.847496257310137,-9.210692642672601z" style="fill:rgb(0,0,0);fill-opacity:1"></path><path d="M-12.425915261923922,-8.443002161118226L-10.113676458671913,9.67977570915468L-10.95761071527495,-9.516356868540853z" style="fill:rgb(188,188,188);fill-opacity:1"></path><path d="M-12.4426998660092,-10.85759333514413L-12.197658852009289,-7.316822138219728L-10.751668572256825,-8.758216855842802zM17.48166765876066,-7.779898228933337L15.548459593381347,-9.023340702693567L13.017160966409351,-9.827527625194879z" style="fill:rgb(181,181,181);fill-opacity:1"></path><path d="M10.624330726978698,9.686080741842598L10.92306968188148,11.74450782861736L12.259722125719088,-8.719869119805299z" style="fill:rgb(0,0,0);fill-opacity:1"></path><path d="M-12.2615941949867,-8.71976017513365L-10.887544744842813,11.747798453486352L-10.657983594749753,9.682681172301958z" style="fill:rgb(172,172,172);fill-opacity:1"></path><path d="M10.442048266469806,-8.90630639820216L12.011933894050387,-7.591915898884458L14.796816175149106,-9.946155554188502zM-11.169048008844491,-10.341842226542937L-15.662735506403601,-9.119620377539196L-17.96977864595344,-6.928229361328736zM-12.134793785062408,-10.965306648517384L-12.314681108463592,-6.735878284335329L-11.797398891824475,-8.231953533746406z" style="fill:rgb(181,181,181);fill-opacity:1"></path><path d="M10.675240020980285,10.681099434117446L12.72307318510008,-8.182679684481892L11.492681895894263,-8.778832045397952z" style="fill:rgb(0,0,0);fill-opacity:1"></path><path d="M-12.419757421950841,-7.760837785193908L-10.661729791381951,10.680348666444253L-11.809507888641836,-9.199923177012744z" style="fill:rgb(172,172,172);fill-opacity:1"></path><path d="M11.32957680740649,-8.486299309628839L12.083591795597863,-6.8529399855806785L14.692476227740107,-10.105644693458059zM-11.634592579121545,-10.686656791853162L-18.12819142758289,-7.259725581405576L-11.693245971810361,-7.261783726568606zM-14.740200938026685,-9.508613354239886L-16.939201575993042,-8.473603817104056L-17.66031173349434,-6.683153122465009zM17.521025934015455,-5.918106904982537L16.94288137335501,-8.582985841539365L13.10465831112675,-9.962737561015025z" style="fill:rgb(181,181,181);fill-opacity:1"></path><path d="M13.786508445086366,15.260870846686563L15.197328742846054,12.800465644064646L16.783070725190882,7.53354474289387z" style="fill:rgb(193,193,193);fill-opacity:1"></path><path d="M11.349230043148758,-7.459886941491429L17.89854932163599,-6.325334956708782L13.90578234227201,-10.156334650713319z" style="fill:rgb(181,181,181);fill-opacity:1"></path><path d="M-14.892356414844338,13.72620027897652L-15.329496589919584,9.91179152031292L-16.930074748602156,7.6130327492117695zM-15.308632558298612,12.816589074211091L-13.84701243512894,15.270223581853587L-15.778447916972805,9.04193465166668z" style="fill:rgb(0,0,0);fill-opacity:1"></path><path d="M13.888748749339422,15.303650818462463L16.87812166446219,7.572626255392737L15.466192591732142,9.97408929885513z" style="fill:rgb(193,193,193);fill-opacity:1"></path><path d="M15.195163633526304,10.931649388743608L16.68681599279498,8.5475810746072L17.09902052156148,2.755954464309908z" style="fill:rgb(207,207,207);fill-opacity:1"></path><path d="M17.459608824992547,-0.29234762387785385L17.689511799981123,-2.372993861547367L17.067586360972232,-8.512464404991372z" style="fill:rgb(210,210,210);fill-opacity:1"></path><path d="M17.11216605128852,-5.775119078239221L17.69193658914206,-7.833139093248937L15.95633861599992,-8.890175873035938zM-18.176267900708567,-7.500881726371189L-11.006090706637881,-6.8597910229667605L-12.088524636422708,-8.064637931726878z" style="fill:rgb(181,181,181);fill-opacity:1"></path><path d="M-16.449007170956765,9.470789883601832L-15.618338786289263,4.9106395151903195L-17.406546297981613,2.918656762327987z" style="fill:rgb(0,0,0);fill-opacity:1"></path><path d="M11.997053901745316,16.672914289208144L14.453327566513813,14.499598411544676L15.910730326896225,9.083662234619617z" style="fill:rgb(197,197,197);fill-opacity:1"></path><path d="M-17.665470042487122,-1.3764807814913587L-16.720645344993663,-6.815516744848144L-17.437178598872244,-8.433814992227747zM-16.799074293611767,8.541242298811094L-15.23972048449332,10.939916641205585L-16.03923958790683,4.090251981009204zM-17.706350300729547,-2.3750689835082865L-17.467725210538163,-0.29280085557288293L-16.953766427344263,-7.731580978353154zM-14.155317728862835,15.327075747185898L-13.33853372055089,11.23667156249175L-16.157272400529052,9.297898319452713zM-14.706263741317873,14.504189314692717L-12.103814977459848,16.702910582869468L-13.905214492692613,10.526488220144007z" style="fill:rgb(0,0,0);fill-opacity:1"></path><path d="M15.417098892862098,11.000223890007575L17.30860596178417,2.8168058487542202L15.84797408989588,5.01692249644462z" style="fill:rgb(207,207,207);fill-opacity:1"></path><path d="M11.929758916308094,-8.302729157831047L11.180292413658977,-6.742041282626522L17.99959259695006,-6.602185167624988z" style="fill:rgb(181,181,181);fill-opacity:1"></path><path d="M15.658625754990126,5.979006543713159L17.21080175602251,3.827144421073755L17.626526866847147,-2.2751156317197903z" style="fill:rgb(207,207,207);fill-opacity:1"></path><path d="M17.559712223255456,-0.29256370150300315L17.155420272570787,-8.513590098372033L16.931049340263147,-6.736589474173677z" style="fill:rgb(210,210,210);fill-opacity:1"></path><path d="M-18.174114474947004,-7.603744172739182L-10.153499812791097,-6.375470865125205L-11.862516411141783,-7.378578105934462z" style="fill:rgb(181,181,181);fill-opacity:1"></path><path d="M12.242462585349603,16.81649435808397L16.142655805281755,9.215473245309603L13.611889091898739,11.35776382916875z" style="fill:rgb(197,197,197);fill-opacity:1"></path><path d="M-16.92885659808394,4.733927980378855L-16.111142855411593,-0.40689089988791505L-17.981091629585602,-2.0539506323504284zM-17.310069100662048,3.8225540288306776L-15.704319495381885,5.987676867388543L-16.577319161064445,-1.169326312479999z" style="fill:rgb(0,0,0);fill-opacity:1"></path><path d="M13.297488065904556,12.287639116473056L15.928212723392313,10.187096418842074L16.23593670027101,4.107954642130784z" style="fill:rgb(211,211,211);fill-opacity:1"></path><path d="M11.830233626719897,-7.528256680499277L10.185756237996165,-6.352007131217867L18.012901517311796,-6.6991742590994345z" style="fill:rgb(181,181,181);fill-opacity:1"></path><path d="M9.539666149340947,17.910307678894615L12.925792710089379,16.126155053951166L14.211459744248955,10.578764207670947z" style="fill:rgb(197,197,197);fill-opacity:1"></path><path d="M-18.166976285135114,-7.670730524965155L-8.780714657765422,-5.915548285762563L-11.083060776228704,-6.74217810071578z" style="fill:rgb(181,181,181);fill-opacity:1"></path><path d="M15.910659254579123,6.065037609532742L17.861305297388146,-2.1995056003067948L16.34616074924302,-0.256219567720271z" style="fill:rgb(207,207,207);fill-opacity:1"></path><path d="M-17.545677330982052,-8.418603771281596L-17.446030887990233,-6.415685693607043L-15.395900562259685,-5.361007354060289z" style="fill:rgb(181,181,181);fill-opacity:1"></path><path d="M-15.654895137404075,10.981251745096765L-13.682217131417556,6.09322645183377L-16.583990833528325,4.386591161856257z" style="fill:rgb(0,0,0);fill-opacity:1"></path><path d="M16.218478939855842,0.7059808444247476L17.876058645709392,-1.1829509416214785L16.987183772506846,-7.729542225046958z" style="fill:rgb(217,217,217);fill-opacity:1"></path><path d="M-16.129895665122383,10.150019844615295L-13.390477815970975,12.311263360423103L-14.191653948153176,5.412298102622727zM-13.27721626556479,16.085455197181982L-9.696560125448924,17.966009898794734L-11.237765804580466,11.882242970157797zM-12.679295627395499,16.823898030564965L-10.632922703323656,12.499596207585151L-14.466037937969858,10.862131502363747zM-17.628647956503734,-0.308793311105323L-15.53689522640539,-6.277876542474088L-17.526613550581793,-7.382265264236591z" style="fill:rgb(0,0,0);fill-opacity:1"></path><path d="M13.658395890646153,12.463020339427748L16.584956740132796,4.266663930340007L13.961566905812461,6.20879827135279z" style="fill:rgb(211,211,211);fill-opacity:1"></path><path d="M-17.963858327358242,-1.2047951434431132L-16.27286784429718,0.7079627936592424L-15.979835131152111,-6.9142268892093774z" style="fill:rgb(0,0,0);fill-opacity:1"></path><path d="M10.10863155164244,-6.690904225041193L16.39526540114926,-5.419491332884422L17.73055100358999,-7.2244390344763945z" style="fill:rgb(181,181,181);fill-opacity:1"></path><path d="M9.879082406931715,18.153103050287463L14.535768881656576,10.803388074140294L10.979146739722347,12.582687635464683z" style="fill:rgb(197,197,197);fill-opacity:1"></path><path d="M13.730677143615889,7.135623278964359L16.444503596588795,5.281353188110403L16.763951174711504,-1.1489547597551608z" style="fill:rgb(211,211,211);fill-opacity:1"></path><path d="M6.470859744879109,18.877616491277802L10.643414535457424,17.566186123191716L11.675384913651046,11.913639001158904z" style="fill:rgb(193,193,193);fill-opacity:1"></path><path d="M16.60780733415909,0.8155015494006692L17.34480540325052,-7.6412759375053865L15.759085634209297,-6.033291479039187z" style="fill:rgb(217,217,217);fill-opacity:1"></path><path d="M17.108905337245762,-5.870888187647108L11.024277203768204,-7.001903217851392L8.832094143921042,-5.881857349712287z" style="fill:rgb(181,181,181);fill-opacity:1"></path><path d="M10.646830121163033,13.490546578425224L14.287567091509876,11.760402777087494L14.522971741512077,5.41852626009995z" style="fill:rgb(211,211,211);fill-opacity:1"></path><path d="M-16.126423419313614,6.0519100358102556L-14.174214368367013,0.5651182016121878L-17.12950149666998,-0.8222204017209976z" style="fill:rgb(0,0,0);fill-opacity:1"></path><path d="M-11.037281701027911,17.479927541060377L-6.681210890237201,18.960709228126568L-7.862903649352554,12.965850326970033z" style="fill:rgb(92,92,92);fill-opacity:1"></path><path d="M-16.626975870300868,5.251682775340478L-13.826083598441004,7.160217459791155L-14.702333050066036,-0.0682523842883605z" style="fill:rgb(0,0,0);fill-opacity:1"></path><path d="M-10.434071169306755,18.139726350431808L-7.25354681832092,13.529990582839666L-11.921435766040382,12.236988432767308z" style="fill:rgb(92,92,92);fill-opacity:1"></path><path d="M-18.10988733202294,-7.834273853110116L-11.665526054905994,-3.8558193184949143L-8.93445134371692,-6.467849028798619z" style="fill:rgb(181,181,181);fill-opacity:1"></path><path d="M-14.021894856147082,12.426724788170093L-10.97450612914159,7.206741257173533L-14.851490593017335,5.75113055284717zM-14.544832676000228,11.690103103585736L-10.78848857394159,13.53419586195041L-11.516629806279111,6.600399576931556z" style="fill:rgb(72,72,72);fill-opacity:1"></path><path d="M14.117496310957756,7.341022530579584L17.135173620489347,-0.9629913066986269L14.427859292582157,0.707667742035702z" style="fill:rgb(211,211,211);fill-opacity:1"></path><path d="M-17.884950209651873,-8.185605109976052L-16.364521824527063,-5.646008844787126L-10.864403912649054,-4.1110609995812535z" style="fill:rgb(181,181,181);fill-opacity:1"></path><path d="M2.9334942557833315,19.477680688248288L7.698281776982185,18.71139376633074L8.37774520151028,12.976169952065055z" style="fill:rgb(185,185,185);fill-opacity:1"></path><path d="M17.113235876924552,-5.944442344261445L9.724537851501731,-6.329412793230673L6.894876900467651,-5.549079972009979z" style="fill:rgb(181,181,181);fill-opacity:1"></path><path d="M6.878427446747816,19.206891009942982L12.067615280955092,12.219508144087404L7.625386264736922,13.550486742123724z" style="fill:rgb(193,193,193);fill-opacity:1"></path><path d="M14.260557433777484,1.6426074187177706L17.088002865152937,0.05574691143242705L16.140939324939765,-6.923918174947677z" style="fill:rgb(221,221,221);fill-opacity:1"></path><path d="M11.08074495244192,13.762413034069263L14.95019298476942,5.668123708659366L11.278478731791665,7.2725409810799535z" style="fill:rgb(211,211,211);fill-opacity:1"></path><path d="M-8.091909008132623,18.594998207078444L-3.1991702773026236,19.58539917857431L-3.9398552559267137,13.662927577823412z" style="fill:rgb(130,130,130);fill-opacity:1"></path><path d="M-16.790319933104197,0.778516107313537L-13.705178066790142,-5.552899778347434L-16.63621669406154,-6.520397077164905z" style="fill:rgb(33,33,33);fill-opacity:1"></path><path d="M-0.8518516231024654,19.639795257389185L4.252705279824052,19.466109444710305L4.492351734447201,13.663849109370137z" style="fill:rgb(173,173,173);fill-opacity:1"></path><path d="M11.022011551417485,8.176813284642172L14.75885406959351,6.666702904183797L15.017498939511508,-0.05375428091244899z" style="fill:rgb(211,211,211);fill-opacity:1"></path><path d="M-4.617731270165559,19.33755188441153L0.5324847981200533,19.76427361559105L0.2817675669659775,13.90272254820332z" style="fill:rgb(155,155,155);fill-opacity:1"></path><path d="M-17.23067442016957,0.009816193064640932L-14.3652825013241,1.6542282291582482L-14.17871907997804,-6.120776231325706z" style="fill:rgb(33,33,33);fill-opacity:1"></path><path d="M-7.504231358772997,19.18609017120108L-3.350749581305335,14.185689901208807L-8.615341159029818,13.33223186110485z" style="fill:rgb(130,130,130);fill-opacity:1"></path><path d="M7.292035345688823,14.440644043024319L11.791622476888682,13.157122351557884L11.944157719003403,6.594458754031835z" style="fill:rgb(207,207,207);fill-opacity:1"></path><path d="M3.397914755991614,19.881243823756176L8.827779585185263,13.3508376438903L3.7103775128176264,14.160507246240046z" style="fill:rgb(185,185,185);fill-opacity:1"></path><path d="M14.761113169337962,1.8834109325421222L16.621828688153926,-6.714363207373854L13.885007444262614,-5.3882023298433985z" style="fill:rgb(221,221,221);fill-opacity:1"></path><path d="M-14.460215727238475,7.315026211585497L-11.40529242261925,1.4992815739083423L-15.35131997056125,0.31245497549396173z" style="fill:rgb(72,72,72);fill-opacity:1"></path><path d="M-12.076410065907286,13.06224574667053L-7.479201224164999,14.505935768479443L-8.083788777818114,7.545356654105113z" style="fill:rgb(121,121,121);fill-opacity:1"></path><path d="M-14.998246907536817,6.607415948386918L-11.166543691324442,8.221531916914515L-11.953612254159236,0.926251694159558z" style="fill:rgb(72,72,72);fill-opacity:1"></path><path d="M-11.538138192672019,13.718755485933507L-7.530699640573189,8.10236198264501L-12.24474546410323,6.958496202726148z" style="fill:rgb(121,121,121);fill-opacity:1"></path><path d="M-12.623336997670194,-3.9923080265599493L-6.896688226624091,-5.815030827674682L-9.88026436658083,-6.55842747391341z" style="fill:rgb(181,181,181);fill-opacity:1"></path><path d="M-4.060747914045824,19.86700192978202L0.8332803511240029,14.383465803640211L-4.724139983891559,14.05499577403264z" style="fill:rgb(155,155,155);fill-opacity:1"></path><path d="M-0.3371650266364577,20.108638066255605L4.995804756379428,14.096225907938507L-0.5105110880091165,14.338451600882438z" style="fill:rgb(173,173,173);fill-opacity:1"></path><path d="M7.766441334900495,14.790862971281236L12.417017513841555,6.91764544329163L7.84646384326937,8.120150737260348z" style="fill:rgb(207,207,207);fill-opacity:1"></path><path d="M11.470407833351366,8.47719415692977L15.456569643669589,0.22288968380910032L11.682432745433964,1.5819018471039648z" style="fill:rgb(211,211,211);fill-opacity:1"></path><path d="M3.390957198822997,15.034409978569451L8.535154325463418,14.2714181380186L8.573975238302634,7.534836090027662z" style="fill:rgb(200,200,200);fill-opacity:1"></path><path d="M-17.08536338977279,-6.300515580891443L-14.428860292131828,-5.082560364320976L-10.81935360833066,-4.216958817204639zM10.782096315440107,-4.1963460301277475L14.3952830984325,-5.075074627380356L17.033543148995815,-6.328614104908954zM-12.748761080706657,-4.249504502220139L-4.540905994756516,-5.410178153398291L-7.895248868623099,-5.934503748862188z" style="fill:rgb(181,181,181);fill-opacity:1"></path><path d="M11.483562485181517,2.503963901309403L15.342414346727498,1.2207548768565382L14.444047731936973,-6.140386792197616z" style="fill:rgb(221,221,221);fill-opacity:1"></path><path d="M-8.826212755655515,14.163742023106419L-3.617928740430703,15.119789015186287L-4.065876878315629,8.153672968224852z" style="fill:rgb(151,151,151);fill-opacity:1"></path><path d="M3.4073216621106983,-3.2158054135694756L17.103830267055187,-6.058316765884943L7.793498222165488,-5.971530128692359z" style="fill:rgb(181,181,181);fill-opacity:1"></path><path d="M7.571366042916134,9.006917681094093L12.185776209644121,7.8932528675437785L12.365427228805673,0.9315649583192004z" style="fill:rgb(207,207,207);fill-opacity:1"></path><path d="M-15.051229027607596,1.8321324811218584L-11.039093504189212,-4.877179938184703L-14.886216065954304,-5.71693836625823z" style="fill:rgb(105,105,105);fill-opacity:1"></path><path d="M-8.287115096921543,14.753037535200352L-3.51472940211308,8.669282921579157L-8.849594331099086,7.924191515596595z" style="fill:rgb(151,151,151);fill-opacity:1"></path><path d="M-12.774180976262887,-4.370057329386813L-1.8598510316018344,-5.1809937278403435L-5.538695854118429,-5.489998187501315z" style="fill:rgb(181,181,181);fill-opacity:1"></path><path d="M-0.8030307709086575,15.196501583910106L4.698635225750033,15.007345573172373L4.591090017298521,8.146231643003434z" style="fill:rgb(188,188,188);fill-opacity:1"></path><path d="M-15.526199809960799,1.1537443551207391L-11.6351317335085,2.530826854962653L-11.53210593877178,-5.411902478455675z" style="fill:rgb(105,105,105);fill-opacity:1"></path><path d="M-4.979898653793288,14.898251259515654L0.5439987301976088,15.297386878222103L0.26822872129805986,8.361188138164906z" style="fill:rgb(172,172,172);fill-opacity:1"></path><path d="M3.8911961135410613,15.449928285357476L9.076815839722839,7.917254279774413L3.827774176905479,8.657409964076292z" style="fill:rgb(200,200,200);fill-opacity:1"></path><path d="M8.787274716789941,-6.062404365048135L5.22996057665196,-5.77610521688241L3.707105656996157,-2.8508300486080254z" style="fill:rgb(181,181,181);fill-opacity:1"></path><path d="M-12.457037923863467,7.809512864203489L-7.760782566280436,9.072622412387704L-8.404746004463648,1.7214973173206818zM-11.911346514448477,8.44473015506997L-7.851570817659397,2.2564444733639513L-12.666528196086656,1.318145797911189z" style="fill:rgb(121,121,121);fill-opacity:1"></path><path d="M12.015612049052319,2.835204946482817L14.970898831211333,-5.843308147288591L11.226486944696255,-4.78844497096783z" style="fill:rgb(221,221,221);fill-opacity:1"></path><path d="M-4.448142069973456,15.42831385155769L0.8091173545016244,8.83632548846039L-4.847669756668066,8.563240464908699z" style="fill:rgb(172,172,172);fill-opacity:1"></path><path d="M-0.2843756566321791,15.670249261445118L5.115770999214525,8.578047217821629L-0.5123720727400682,8.814377562396306z" style="fill:rgb(188,188,188);fill-opacity:1"></path><path d="M6.292889624327212,-5.852304334774043L1.9669388971835262,-5.440458186362238L4.452324346824197,-2.843439949650143z" style="fill:rgb(181,181,181);fill-opacity:1"></path><path d="M8.052168634979676,9.378600797720475L12.842277853542182,1.2756911865900766L8.146583565982162,2.2863414626756056z" style="fill:rgb(207,207,207);fill-opacity:1"></path><path d="M3.334645595443551,-3.4199196156358735L11.764794977261998,-4.37599207842766L17.07431991490975,-6.210939548752085zM5.131571053998163,-3.0472767870027893L3.0115490886605474,-5.62485181985892L-0.9645535029554335,-5.174953378643381zM5.28176176815222,-3.310189815619224L0.027846986584983247,-5.281362041223738L-3.8462565987246067,-5.255530128662127z" style="fill:rgb(181,181,181);fill-opacity:1"></path><path d="M3.5422769255641406,9.528979814681039L8.819935082143795,8.871588463099817L8.881870625021904,1.7209171366739104z" style="fill:rgb(200,200,200);fill-opacity:1"></path><path d="M7.919196363775863,3.1955061333988573L12.672932324805373,2.249050024543452L11.878715368125691,-5.434552687812318z" style="fill:rgb(217,217,217);fill-opacity:1"></path><path d="M-9.102076968788024,8.772989996065748L-3.76991274036649,9.613267259392257L-4.237907718551507,2.235945368163638z" style="fill:rgb(151,151,151);fill-opacity:1"></path><path d="M-12.39476842465627,2.7816001753184367L-7.606324047223228,-4.338324936847291L-12.273433824657006,-5.002317749135929z" style="fill:rgb(141,141,141);fill-opacity:1"></path><path d="M-12.77894387210014,-4.470472182943029L5.309418613137351,-3.448805313602201L-2.8486569765307643,-5.316068870495345z" style="fill:rgb(181,181,181);fill-opacity:1"></path><path d="M-8.56023227859301,9.349752733357759L-3.6896002066876235,2.739160981746667L-9.157009377441193,2.1243340280034113z" style="fill:rgb(151,151,151);fill-opacity:1"></path><path d="M-12.885390455920948,2.1672560484545955L-8.109043226152506,3.2407068061563367L-8.11452592781498,-4.848790469031513z" style="fill:rgb(141,141,141);fill-opacity:1"></path><path d="M-0.7984262023830181,9.673730798691672L4.847011921459959,9.517603185750271L4.752220050599601,2.234155914898294z" style="fill:rgb(188,188,188);fill-opacity:1"></path><path d="M-5.123333776636651,9.414710776207482L0.5411440789664372,9.771238056243599L0.26316642782793553,2.413247781971691z" style="fill:rgb(172,172,172);fill-opacity:1"></path><path d="M4.04447011551842,9.957608325978851L9.38397013736632,2.116447057490567L3.988333221649882,2.7357321595402624z" style="fill:rgb(200,200,200);fill-opacity:1"></path><path d="M8.45583799041149,3.58958094011729L12.421366172768325,-5.077178396447347L7.810722624923316,-4.299547967379922z" style="fill:rgb(217,217,217);fill-opacity:1"></path><path d="M-4.591123022976326,9.94089514782512L0.8002515195139239,2.884834120893932L-5.00993426621414,2.6584821985400393z" style="fill:rgb(172,172,172);fill-opacity:1"></path><path d="M-0.279603927822483,10.152101465789444L5.273748107686851,2.670854418344923L-0.5123616800301035,2.868003058941474z" style="fill:rgb(188,188,188);fill-opacity:1"></path><path d="M3.740349171997238,3.630034894263198L9.17177871374889,3.069707510863679L8.51867574195888,-4.867955723425777z" style="fill:rgb(210,210,210);fill-opacity:1"></path><path d="M-12.77148910460461,-4.624891986674565L-8.381869266448795,-3.89516894283422L-3.3709916895339482,-3.4804526165033507zM3.3266546496915566,-3.4747865144133687L8.338474592686687,-3.8942694221635645L12.727789238724743,-4.631457609435202z" style="fill:rgb(181,181,181);fill-opacity:1"></path><path d="M-9.401608225383214,2.9810814698298898L-3.9573781302118927,3.693421435173619L-4.104558304764548,-4.48703836480979zM-8.899786550371118,3.5460565053644038L-3.583545367252957,-3.9993217113140167L-8.875451456315211,-4.42903344381832z" style="fill:rgb(166,166,166);fill-opacity:1"></path><path d="M-12.777064419838496,-4.573480218517147L-4.369461777622131,-3.515740061825139L5.320156748145105,-3.55561540717723z" style="fill:rgb(181,181,181);fill-opacity:1"></path><path d="M4.271796602438648,4.072312821881532L9.063727319544993,-4.466632126485568L3.8002713987212218,-3.9872621359970197z" style="fill:rgb(210,210,210);fill-opacity:1"></path><path d="M-0.7704575751352178,3.7474574939718894L5.030495109801819,3.612308926185617L4.5427043630256,-4.497877955714378z" style="fill:rgb(200,200,200);fill-opacity:1"></path><path d="M-5.26702699571019,3.52511616605054L0.5379991722353625,3.825685640082326L0.22467754308288213,-4.3656248618292235zM-4.754724151118925,4.048156825659618L0.7566322577818521,-3.9022181375884184L-4.872052842722184,-4.048553790319121z" style="fill:rgb(185,185,185);fill-opacity:1"></path><path d="M-0.24795142817709953,4.2310341407032945L5.083187790583976,-4.062457322865824L-0.5368447451066202,-3.8974852050028597z" style="fill:rgb(200,200,200);fill-opacity:1"></path><path d="M-5.365593094526874,-3.5939935996569354L-0.022449604942326062,-3.4246486262255913L5.320639861102146,-3.5980582078344283z" style="fill:rgb(181,181,181);fill-opacity:1"></path></svg>