<svg viewBox="-25 -25 50 50" width="50" height="50" style="background-color: rgb(255, 255, 255);"><path d="M1.947830617837428,10.110512570729103L-0.03974708943838787,-9.564649981743306L-0.49843070802797834,9.998000681549959z" style="fill:rgb(172,172,172);fill-opacity:1"></path><path d="M0.5428196958049744,9.99496205060123L-1.6221257420478037,-9.53190239278863L-1.903514790382017,10.113134510945576z" style="fill:rgb(188,188,188);fill-opacity:1"></path><path d="M3.3108174708047002,10.362281039412432L1.5437388047084748,-9.532722357318455L0.9112142280663562,10.018022955692807z" style="fill:rgb(151,151,151);fill-opacity:1"></path><path d="M-0.8679720567766205,10.014763797898388L-3.164919284543287,-9.434850595237972L-3.2677969333132015,10.364335065507541z" style="fill:rgb(200,200,200);fill-opacity:1"></path><path d="M4.594084811063452,10.749320561364117L3.0898464485005452,-9.436402376163068L2.2900403635865447,10.170467242424879z" style="fill:rgb(121,121,121);fill-opacity:1"></path><path d="M-2.2491572855033746,10.167216326358027L-4.628740158889362,-9.274563825460918L-4.553580024392907,10.750709757880507z" style="fill:rgb(207,207,207);fill-opacity:1"></path><path d="M5.757737280237224,11.268621471369354L4.559163225065169,-9.276676946568438L3.6032320314316095,10.450537358835916z" style="fill:rgb(72,72,72);fill-opacity:1"></path><path d="M-3.565902887297108,10.447537709454648L-5.972528211573274,-9.053009723096645L-5.720962042468998,11.26931236224701z" style="fill:rgb(211,211,211);fill-opacity:1"></path><path d="M0.05529450613919716,10.517907295353792L0.4736195001794487,-9.226415517155782L-2.1020820225724304,-8.870489609959098z" style="fill:rgb(188,188,188);fill-opacity:1"></path><path d="M1.4557771807246769,10.586449634279198L2.0570626005202954,-9.175896961181968L-0.5300189446201256,-8.921484144680225z" style="fill:rgb(172,172,172);fill-opacity:1"></path><path d="M5.899426840981934,-9.055028776687845L4.756183257126198,11.051874703138578L6.830581023319155,11.713237541773648z" style="fill:rgb(0,0,0);fill-opacity:1"></path><path d="M-1.3464378277929812,10.58556208920511L-1.1118299773693607,-9.215416748805309L-3.632638818769867,-8.752079283379201z" style="fill:rgb(200,200,200);fill-opacity:1"></path><path d="M2.8188958788376914,10.79026541968253L3.6007714521938126,-9.063436311596178L1.0445361394843276,-8.905441942215239z" style="fill:rgb(151,151,151);fill-opacity:1"></path><path d="M-4.784178649813527,10.848561737173524L-7.153109166545265,-8.773358602641375L-6.726970482253267,11.9144804828361z" style="fill:rgb(211,211,211);fill-opacity:1"></path><path d="M-2.7133121752514566,10.788581400770699L-2.6619904251257713,-9.144352658474658L-5.081324486827284,-8.566198114892066z" style="fill:rgb(207,207,207);fill-opacity:1"></path><path d="M4.107942090869501,11.126551136806198L5.065859752240586,-8.889585688043622L2.582811746028235,-8.823118770751142z" style="fill:rgb(121,121,121);fill-opacity:1"></path><path d="M7.089920219098925,-8.77562372684743L5.801098018553187,11.566260574936871L7.658833550604221,12.473081681422837z" style="fill:rgb(0,0,0);fill-opacity:1"></path><path d="M-4.008641933028419,11.1242479104826L-4.139449403333321,-9.01587727523642L-6.40528870301706,-8.313188661114877z" style="fill:rgb(211,211,211);fill-opacity:1"></path><path d="M5.285168522230822,11.590260047615448L6.4116125744848,-8.656055448711909L4.045267508677728,-8.675719050520478z" style="fill:rgb(72,72,72);fill-opacity:1"></path><path d="M-5.871862436609798,11.360863036966563L-8.125284753284332,-8.440430107747993L-7.524597640943567,12.676324627638408z" style="fill:rgb(207,207,207);fill-opacity:1"></path><path d="M-5.194725618999288,11.587591120910867L-5.506664860134479,-8.834178202453476L-7.557985908049734,-7.993968755962279z" style="fill:rgb(211,211,211);fill-opacity:1"></path><path d="M8.074352738209667,-8.44262652526273L6.676902866989826,12.162292465841633L8.234692710309766,13.351428166755236zM5.407225735292666,-8.668544084451561L6.3006689571801,12.173926118710494L7.589611108784092,-8.162998326396213z" style="fill:rgb(0,0,0);fill-opacity:1"></path><path d="M-6.800472734822789,11.974727179885129L-8.842705320395696,-8.061187290182371L-8.062332712769082,13.537067131597668z" style="fill:rgb(200,200,200);fill-opacity:1"></path><path d="M-6.232720122544551,12.17078775988528L-6.727024301725346,-8.605066819381488L-8.487721596753097,-7.610698056152506z" style="fill:rgb(207,207,207);fill-opacity:1"></path><path d="M6.6068904005523645,-8.434937874757864L7.136502779511144,12.865002214123104L8.5515369165304,-7.783946088237531zM8.807084970739028,-8.06296957760227L7.386135043384868,12.80369752064559L8.476865154474766,14.347079960070529z" style="fill:rgb(0,0,0);fill-opacity:1"></path><path d="M-7.544122121921577,12.686181495985602L-9.259788767990123,-7.645288145129717L-8.287967942651793,14.463217966751609z" style="fill:rgb(188,188,188);fill-opacity:1"></path><path d="M-7.083006551113664,12.862371760797856L-7.7675454823416175,-8.33455668181215L-9.1358335581983,-7.169144886547011z" style="fill:rgb(200,200,200);fill-opacity:1"></path><path d="M7.617358043124369,-8.172193918329366L7.742058445825457,13.648088621102115L9.2437085118044,-7.333983326633314zM9.244697240442356,-7.646173760380174L8.00606238495991,13.510008557397656L8.2343756304913,15.391394763059555z" style="fill:rgb(0,0,0);fill-opacity:1"></path><path d="M-8.065914095329246,13.502564017670565L-9.334926109294667,-7.205542464565416L-8.166770782932879,15.398440906052326z" style="fill:rgb(172,172,172);fill-opacity:1"></path><path d="M-7.706180083742022,13.64631245695806L-8.601056072437622,-8.021863038497774L-9.437244961017724,-6.686721713860919z" style="fill:rgb(188,188,188);fill-opacity:1"></path><path d="M8.430264240651429,-7.9104347818539305L8.079552957415697,14.501770106004772L9.582498910640691,-6.79964792143879z" style="fill:rgb(0,0,0);fill-opacity:1"></path><path d="M-7.978998886035465,-7.669474651588637L-12.321988076603756,-4.617079263085112L-13.683467730934561,-3.1477528354388955z" style="fill:rgb(76,76,76);fill-opacity:1"></path><path d="M-8.06443337129608,14.50106339608041L-9.193118507445133,-7.645772682138995L-9.339033625594663,-6.20706699765528z" style="fill:rgb(172,172,172);fill-opacity:1"></path><path d="M9.135494617256652,-6.575651807892383L13.053943540822628,-3.948941674161746L8.020429638212288,-7.715278891050957zM8.381598529974381,-7.227059765118153L13.749293316491592,-3.215372979087669L12.275356511072642,-4.575570591413177z" style="fill:rgb(206,206,206);fill-opacity:1"></path><path d="M9.125896441278316,-7.637719109099063L8.115909621294271,15.398556680442884L9.40020087358291,-6.215455310700827z" style="fill:rgb(0,0,0);fill-opacity:1"></path><path d="M-8.02608099516986,-7.723553051211998L-13.76819036682302,-3.2384336720959084L-9.147027592595856,-6.590840449502081z" style="fill:rgb(76,76,76);fill-opacity:1"></path><path d="M16.355935625914082,0.7547570611165457L15.56127138652802,-1.229370738645557L12.317480908761356,-4.5959238698291776z" style="fill:rgb(216,216,216);fill-opacity:1"></path><path d="M-16.08134435193285,-0.3914237340352627L-12.757459644570343,-2.9487413720719875L-12.78420269574811,-4.726076053894839zM-15.593282252623956,-1.2642716011363073L-16.370357636810244,0.7434512421496025L-12.543573487855381,-3.806315578638038z" style="fill:rgb(28,28,28);fill-opacity:1"></path><path d="M-8.442065038166103,-7.299926675387992L-13.510988062356795,-4.023834288094705L-13.45715187139901,-2.263795562107757z" style="fill:rgb(100,100,100);fill-opacity:1"></path><path d="M8.92641366551968,-5.9816032271164925L13.795038502864998,-3.2764891876941L8.724116181832118,-7.438198444425313z" style="fill:rgb(214,214,214);fill-opacity:1"></path><path d="M16.497573202924134,0.6623711127549816L12.439181264886829,-4.683614472876271L13.132244086431436,-3.0216423200993785z" style="fill:rgb(216,216,216);fill-opacity:1"></path><path d="M16.569076691067348,7.84119183623474L16.84146119874144,5.406687215334689L16.74886988384892,1.7222696955691597z" style="fill:rgb(206,206,206);fill-opacity:1"></path><path d="M8.454481766393462,-6.769618938059044L13.904206084557723,-2.3674231876119833L13.133992852633948,-4.010281500838992z" style="fill:rgb(214,214,214);fill-opacity:1"></path><path d="M-16.830185471795158,6.400889263643393L-16.424151167725572,4.006193018533219L-16.87963114062057,1.7372431111218463z" style="fill:rgb(0,0,0);fill-opacity:1"></path><path d="M-8.748634140104299,-7.471869125202392L-14.011142722213318,-2.4582677658915415L-8.958316943985302,-6.022752358408525z" style="fill:rgb(100,100,100);fill-opacity:1"></path><path d="M13.968976214991349,14.444179016872214L15.381948195377767,12.00211124501662L16.70070210727378,8.599792265972248z" style="fill:rgb(187,187,187);fill-opacity:1"></path><path d="M16.63851561853001,5.007533421942757L16.995150353197364,2.687655146127563L15.579866254743383,-1.058096597389107z" style="fill:rgb(218,218,218);fill-opacity:1"></path><path d="M-16.900591481070407,5.401166502279192L-16.580182815786646,7.841394728712804L-16.53516766213359,3.023830663062555zM-17.130594149946177,3.633290497278725L-15.133253445778523,0.9703646753935384L-16.01727796442618,-1.0037666516070802zM-15.06687574117453,12.929716644467344L-15.162908591128035,10.989001496435693L-16.810902661399552,8.664489291738331z" style="fill:rgb(0,0,0);fill-opacity:1"></path><path d="M16.628385161079443,7.843538054725024L16.8090833336679,1.723893556390666L16.554093697025255,4.016189694803951z" style="fill:rgb(206,206,206);fill-opacity:1"></path><path d="M15.835221278510318,1.9116333709773952L16.30313011258922,-0.255624915608758L12.635037153646692,-3.87628638142969z" style="fill:rgb(223,223,223);fill-opacity:1"></path><path d="M-16.543434374887703,0.6084965050641167L-12.185831834179432,-2.337908600047745L-13.356050462132451,-3.7953686463845773z" style="fill:rgb(84,84,84);fill-opacity:1"></path><path d="M10.281569356496563,17.62732760043925L12.50094182688055,15.578543371051405L15.125334900700988,12.841269764917007z" style="fill:rgb(153,153,153);fill-opacity:1"></path><path d="M8.291847095807471,-5.605438011336093L14.063599330249108,-2.528527131090547L9.155136180505485,-6.9308394415592165z" style="fill:rgb(220,220,220);fill-opacity:1"></path><path d="M-15.528715949869456,12.033162177010485L-13.984938858149421,14.451302833991745L-15.638874728871626,10.132909619749931z" style="fill:rgb(0,0,0);fill-opacity:1"></path><path d="M-8.567152004881349,-6.901473612320611L-14.042981209185879,-3.081374572418444L-12.898865606475093,-1.6463705029185016z" style="fill:rgb(121,121,121);fill-opacity:1"></path><path d="M-17.09914152606279,2.629873572352931L-16.673023235236663,5.000248067781256L-15.261550770636859,0.09047286232929319z" style="fill:rgb(0,0,0);fill-opacity:1"></path><path d="M15.028287755137193,12.006836450636902L16.545695147370342,9.586635814568773L16.78646900556302,5.863388337879955z" style="fill:rgb(206,206,206);fill-opacity:1"></path><path d="M16.861210651788635,4.982276801022533L15.793643396112518,-1.0937425948109247L15.48280569758266,1.0075974617695354z" style="fill:rgb(218,218,218);fill-opacity:1"></path><path d="M14.032436732674405,14.47407929501759L16.765820963485698,8.629701422169061L15.354323017441146,11.06427575384911z" style="fill:rgb(187,187,187);fill-opacity:1"></path><path d="M-16.353743692409992,-0.31994539955416523L-15.876200266123046,1.8863250152957565L-12.287237247084255,-3.0119542126836283z" style="fill:rgb(84,84,84);fill-opacity:1"></path><path d="M8.170174599432611,-6.324008156360116L13.421856950311307,-1.500934492051361L13.626980339394322,-3.3564242728099143z" style="fill:rgb(220,220,220);fill-opacity:1"></path><path d="M-11.865497276647567,16.34047784737968L-12.670771658118923,14.962951492826736L-15.15982297761166,12.879940731421504zM-16.46229248584795,10.46689167964254L-15.145092043704082,8.196931545249896L-17.070546524238548,6.0120347502596445z" style="fill:rgb(0,0,0);fill-opacity:1"></path><path d="M-9.211199215044735,-6.984418165748927L-13.708826660621572,-1.6330079785263159L-8.334349391766823,-5.672675110591598z" style="fill:rgb(121,121,121);fill-opacity:1"></path><path d="M-12.592441738192585,15.64744695913998L-10.287836344572185,17.63355902627229L-13.393566867537398,14.282190515726954z" style="fill:rgb(0,0,0);fill-opacity:1"></path><path d="M16.267779346734276,1.78001322848178L12.987318038892921,-4.027867982378238L12.650402591037942,-2.19342345568948z" style="fill:rgb(223,223,223);fill-opacity:1"></path><path d="M-16.81442777790216,9.518257151102677L-15.079196072649093,12.01856697053817L-15.565496484829236,7.387354626241653z" style="fill:rgb(0,0,0);fill-opacity:1"></path><path d="M15.368734632047175,9.22684297810242L16.954100226983346,6.914255026372002L16.649369938901348,3.0319079469981847z" style="fill:rgb(213,213,213);fill-opacity:1"></path><path d="M10.302736371743396,17.64868981042478L15.145457597394863,12.86152527891915L12.770920715740244,15.050765869265213z" style="fill:rgb(153,153,153);fill-opacity:1"></path><path d="M1.3671992684430867,20.223945231689697L4.561346183076488,19.61551383752481L7.249646561825253,18.830301413309257z" style="fill:rgb(52,52,52);fill-opacity:1"></path><path d="M-16.87993741504495,7.769339609931348L-15.047965661281232,5.218545466709676L-17.019015554495713,3.213255486764922z" style="fill:rgb(0,0,0);fill-opacity:1"></path><path d="M15.237412726514224,12.071255639543043L17.006226489005407,5.922078489501606L15.53519485751856,8.253815948998511z" style="fill:rgb(206,206,206);fill-opacity:1"></path><path d="M-5.538611104482085,19.437094864724273L-1.3740750427638797,20.249850141704318L-3.2319917362618997,19.589058788590258z" style="fill:rgb(0,0,0);fill-opacity:1"></path><path d="M12.151411979678763,15.829945450382958L14.650952116748277,13.69475001668942L15.828058026586662,10.193583966805743z" style="fill:rgb(191,191,191);fill-opacity:1"></path><path d="M7.472227320762331,-5.31277355754027L13.791169391290046,-1.7326294491964915L9.019464016907769,-6.360960184021134z" style="fill:rgb(224,224,224);fill-opacity:1"></path><path d="M-0.9904044447530876,20.286156560262654L2.4309539592913842,20.261480923808026L4.154680638370614,19.321941738785153z" style="fill:rgb(0,0,0);fill-opacity:1"></path><path d="M8.090193900239695,18.706025322829113L11.114076078761325,17.06735826264876L13.503180076286133,14.375917853370073z" style="fill:rgb(153,153,153);fill-opacity:1"></path><path d="M-3.338533898909495,20.044368726113696L0.9320265368883305,20.44396381978498L0.06253039635784896,19.590011990058507z" style="fill:rgb(0,0,0);fill-opacity:1"></path><path d="M15.420760459121796,6.252343653364471L17.099243114849912,4.058726791852407L15.4690683970139,0.027043314732906554z" style="fill:rgb(224,224,224);fill-opacity:1"></path><path d="M-8.336308074144869,-6.5039501711266015L-13.835767510274563,-2.169911874820111L-11.951358121667676,-0.9602873746100908z" style="fill:rgb(139,139,139);fill-opacity:1"></path><path d="M-17.062867724258506,4.8692451488812925L-14.009814901109534,1.9703433865763198L-15.99237950079916,0.23824490010363797zM-17.18986758237279,6.821373071860873L-15.435250980791196,9.235990023903366L-15.445908488484243,4.436918966278712zM-14.55575090203567,14.424341006739484L-12.969971648666892,12.447506133847503L-16.021840072143934,10.379611801742673z" style="fill:rgb(0,0,0);fill-opacity:1"></path><path d="M-16.366936519734026,1.6827784664021355L-11.275076361374866,-1.6626355266417416L-13.167908912505112,-2.9142036486817426z" style="fill:rgb(116,116,116);fill-opacity:1"></path><path d="M14.635394548342425,2.9377579077101896L16.349253941268636,0.9411621761997722L12.459935096689621,-3.142792913271893z" style="fill:rgb(228,228,228);fill-opacity:1"></path><path d="M-9.106640507285286,-6.433258037827205L-12.800101971076618,-0.7964307715788475L-7.536747406676045,-5.40416020980627z" style="fill:rgb(139,139,139);fill-opacity:1"></path><path d="M15.659313534290911,9.300300442196136L16.949385943493976,3.0905067668618127L15.436887580346943,5.277651499144869z" style="fill:rgb(213,213,213);fill-opacity:1"></path><path d="M-15.109090253064675,13.601265233388915L-12.216635611903436,15.865871206148602L-13.598775148043234,11.763253362743422z" style="fill:rgb(0,0,0);fill-opacity:1"></path><path d="M7.5127304366844845,-5.915482428873666L12.306965025183144,-0.7414524464409741L13.622210637150573,-2.5413282475693806z" style="fill:rgb(224,224,224);fill-opacity:1"></path><path d="M-11.801251709956496,17.025647386066424L-8.131097359668718,18.751211080384262L-10.398681171131717,15.716827871778525zM-4.568089125025688,19.662469341318854L-2.2621128388237333,19.83813579137003L-7.2552669346805025,18.85612154190606zM-11.066467108105527,17.657168986343347L-9.5707290010777,16.257342635837155L-13.57149762738912,14.506910000541474z" style="fill:rgb(0,0,0);fill-opacity:1"></path><path d="M1.386754242877779,20.293753209641586L7.261559710027696,18.8773679510072L3.231684174536967,19.627752884385668z" style="fill:rgb(52,52,52);fill-opacity:1"></path><path d="M-17.257179185596392,3.9435518764901696L-15.510757577062108,6.244886692283704L-14.32835428354494,1.2478744269737492z" style="fill:rgb(0,0,0);fill-opacity:1"></path><path d="M12.359658904711639,15.963494720754698L16.047564413944805,10.325845150867186L13.50633817041412,12.478174835439342z" style="fill:rgb(191,191,191);fill-opacity:1"></path><path d="M13.123048307142653,13.38920510581204L15.799919386502667,11.260364806517849L15.93113455098042,7.3580113068465085z" style="fill:rgb(210,210,210);fill-opacity:1"></path><path d="M-16.41365796328741,0.859253818879067L-14.716912577536219,2.900022920549725L-11.474642201554856,-2.2506353972451505z" style="fill:rgb(116,116,116);fill-opacity:1"></path><path d="M15.292123109605566,2.9253776811140124L13.03124242086665,-3.2290927383260284L11.593775338359624,-1.4921464159114946z" style="fill:rgb(228,228,228);fill-opacity:1"></path><path d="M15.87608228140111,6.310872498496459L15.914659586194855,0.04389740093043043L14.373142512287597,2.0443396467047044z" style="fill:rgb(224,224,224);fill-opacity:1"></path><path d="M-2.378756778587703,20.217085877446877L0.9988887721185937,19.90874367353704L-4.215362461504122,19.488053119646974zM-0.4886830361606483,20.73249370106012L4.244842767012576,19.589453385484966L-0.5049062346938564,19.443363641483277z" style="fill:rgb(0,0,0);fill-opacity:1"></path><path d="M8.204140696629398,18.84018440022305L13.612185722493487,14.504033526202443L10.302949649934092,16.285697747023985z" style="fill:rgb(153,153,153);fill-opacity:1"></path><path d="M-15.713625936751246,11.936470347618807L-13.199465509879815,9.605623481107433L-16.23654636886974,7.58714198295492z" style="fill:rgb(0,0,0);fill-opacity:1"></path><path d="M6.360811144792798,-5.013445355547282L12.921863460549126,-0.9232712908837555L8.407337298327032,-5.859445107873447z" style="fill:rgb(226,226,226);fill-opacity:1"></path><path d="M5.398832548270449,19.538731283674903L9.107948043374202,18.390774213061725L11.106143625337477,15.720439361231012z" style="fill:rgb(148,148,148);fill-opacity:1"></path><path d="M-16.158917226681396,11.096177086104088L-13.23197516969991,13.425388514179337L-13.73534516339711,8.900783207734099z" style="fill:rgb(0,0,0);fill-opacity:1"></path><path d="M-7.74290891196202,-6.128664153217182L-12.993771264266424,-1.303438963534897L-10.417733368482235,-0.2647800254712697z" style="fill:rgb(156,156,156);fill-opacity:1"></path><path d="M9.65712129042913,17.043850987130085L13.12025941109102,15.31351911100625L14.13669936318504,11.733460368257436z" style="fill:rgb(191,191,191);fill-opacity:1"></path><path d="M13.436372661906942,10.508943165776625L16.195218677213568,8.488476880667834L15.810239454990331,4.378947749236492z" style="fill:rgb(217,217,217);fill-opacity:1"></path><path d="M-8.53746554916946,-5.948655523140544L-11.250048658133014,0.006846302313085029L-6.454375985981158,-5.125486724361926z" style="fill:rgb(156,156,156);fill-opacity:1"></path><path d="M-9.827850988084856,18.20362416683175L-5.485206014979436,19.637039089272267L-7.25778395363478,16.87320356724217z" style="fill:rgb(0,0,0);fill-opacity:1"></path><path d="M13.470266843042157,13.555934424359574L16.305181427066632,7.5122528542331555L13.668268435389653,9.573158901491247z" style="fill:rgb(210,210,210);fill-opacity:1"></path><path d="M-16.080315875537593,9.159095696515955L-13.164273324928777,6.467887803238998L-16.173681817532852,4.636510953115303z" style="fill:rgb(0,0,0);fill-opacity:1"></path><path d="M6.485262557310728,-5.563327419475474L10.666464621027396,-0.08919250269394974L12.930735992072469,-1.6425622528188688z" style="fill:rgb(226,226,226);fill-opacity:1"></path><path d="M-15.457476078402564,2.7910400496933545L-9.805453502968875,-0.9967764173453223L-12.366718733152878,-2.0887451248108704z" style="fill:rgb(141,141,141);fill-opacity:1"></path><path d="M-9.073507871138302,18.741868193457265L-6.428061537724339,17.401589702554556L-11.199203585381056,15.894764642197472zM-13.042447463076163,15.831701853071877L-10.310695025729324,13.836690061753078L-14.336808573254139,11.959562721857397z" style="fill:rgb(0,0,0);fill-opacity:1"></path><path d="M13.484980328590362,7.401218112846711L16.312954108820435,5.49878289369102L14.67104056866004,1.1313477338773308z" style="fill:rgb(228,228,228);fill-opacity:1"></path><path d="M-13.631029491442005,15.118493655306386L-9.775454421554828,17.11813272250019L-10.989906834699774,13.202533649805506z" style="fill:rgb(0,0,0);fill-opacity:1"></path><path d="M12.781803001115911,3.89271283247213L15.540994749346634,2.181246805460075L11.7290357837429,-2.414316352472759z" style="fill:rgb(230,230,230);fill-opacity:1"></path><path d="M-16.194952453347206,6.152128333583855L-12.270636349378337,2.9750956170871636L-15.144916368984976,1.4228875387363793z" style="fill:rgb(91,91,91);fill-opacity:1"></path><path d="M-16.490036304717876,8.329024909858123L-13.564263062195176,10.539901918570868L-13.661393133348826,5.781200601349054z" style="fill:rgb(0,0,0);fill-opacity:1"></path><path d="M2.3284247074805915,20.046192015243037L6.591484793389221,19.458207062289052L7.988728694294561,16.763475527320114z" style="fill:rgb(139,139,139);fill-opacity:1"></path><path d="M4.920814454282345,-4.747672830461013L11.426114705914499,-0.1422601318261177L7.387375265451398,-5.4310219369734725z" style="fill:rgb(226,226,226);fill-opacity:1"></path><path d="M5.60442648574907,19.789631810720582L11.300806179919329,15.963608094377536L7.166851972315866,17.2327471021221z" style="fill:rgb(148,148,148);fill-opacity:1"></path><path d="M13.855509225898048,10.690978937538995L16.256661797081314,4.5361749184438604L13.578235310172532,6.45110818572853z" style="fill:rgb(217,217,217);fill-opacity:1"></path><path d="M-7.228309623047002,19.204261904774903L-2.4879609186052813,20.214248234981802L-3.643546362031369,17.53437752011153z" style="fill:rgb(45,45,45);fill-opacity:1"></path><path d="M9.961232716008805,17.27750637668035L14.462611289131859,11.966518323300228L10.889687242388739,13.728314836083046z" style="fill:rgb(191,191,191);fill-opacity:1"></path><path d="M13.51158767030427,4.030059397728138L12.416607712202753,-2.376204249099526L10.040854648626421,-0.8955339336134852z" style="fill:rgb(230,230,230);fill-opacity:1"></path><path d="M10.47722974438796,14.607822306509586L14.176473303913333,12.867462729375628L14.248924084466184,8.807503701753438z" style="fill:rgb(210,210,210);fill-opacity:1"></path><path d="M-7.575527107556788,-5.524378155245078L-9.066859141950951,0.7202726621276621L-5.0526784361397015,-4.878631068118708z" style="fill:rgb(172,172,172);fill-opacity:1"></path><path d="M-15.623138082429344,2.0849032164682315L-12.91353209903913,3.8514018086094604L-10.067041642351644,-1.5477959305031463z" style="fill:rgb(141,141,141);fill-opacity:1"></path><path d="M-16.501036962401507,5.352355232953735L-13.637848325839226,7.406326256264809L-12.66949143443923,2.325469958674484z" style="fill:rgb(91,91,91);fill-opacity:1"></path><path d="M-0.9420544633312574,20.1698516734011L3.725747111687525,20.16472223399511L4.291356308116184,17.433322378068457z" style="fill:rgb(122,122,122);fill-opacity:1"></path><path d="M-6.794931756787147,-5.789474397180863L-11.519404459854455,-0.4943709243818588L-8.280765503382863,0.3558472937140074z" style="fill:rgb(172,172,172);fill-opacity:1"></path><path d="M14.043188813954707,7.582355799523302L15.244060809029461,1.2554746962927563L12.59711725487739,2.986040627688435z" style="fill:rgb(228,228,228);fill-opacity:1"></path><path d="M-4.200312731010764,19.88308750017086L0.6533559558299359,20.413734713419082L0.29570323220453526,17.707778002765025z" style="fill:rgb(96,96,96);fill-opacity:1"></path><path d="M-14.061182082788047,13.39137996534092L-10.55907952628449,10.855418737842378L-14.533241949416752,9.073098412972893z" style="fill:rgb(68,68,68);fill-opacity:1"></path><path d="M-6.494507878766545,19.695503769856956L-2.859835438114171,18.051040251309168L-8.12683676933977,16.988378006448677z" style="fill:rgb(45,45,45);fill-opacity:1"></path><path d="M6.540214738739889,17.99099562791765L10.821110349231985,16.74609347918659L11.616562584911454,13.110377785267666z" style="fill:rgb(187,187,187);fill-opacity:1"></path><path d="M5.116922535443949,-5.2825538143370485L8.504168244150733,0.49167198485142893L11.53837554709448,-0.7925761196693704z" style="fill:rgb(226,226,226);fill-opacity:1"></path><path d="M2.6597926456330945,20.41090914215833L8.300065299646395,17.129855796895576L3.487807735665732,17.80040040105598z" style="fill:rgb(139,139,139);fill-opacity:1"></path><path d="M3.191980306453118,-4.553415588314758L9.314931228702408,0.5623482476417975L6.008682273897273,-5.081957174205169z" style="fill:rgb(224,224,224);fill-opacity:1"></path><path d="M-14.5552548639277,12.659734463407839L-10.64413534148371,14.677357189559835L-11.14088846519424,10.209480431902065z" style="fill:rgb(68,68,68);fill-opacity:1"></path><path d="M10.745123497664837,11.645093452001316L14.532764420106297,9.998224092180513L14.14759143548159,5.685360821668432z" style="fill:rgb(217,217,217);fill-opacity:1"></path><path d="M-11.313216987285386,16.51128562915664L-6.716533532890795,18.109326570239674L-7.695817803340943,14.298897486928107zM-10.70968828934878,17.140032290802132L-7.0144207128799,14.889221414270857L-11.819413578925937,13.363458186161456z" style="fill:rgb(77,77,77);fill-opacity:1"></path><path d="M10.89792119800781,14.868586224286771L14.711152565366344,9.055079328889997L11.026740478106554,10.744561124197732z" style="fill:rgb(210,210,210);fill-opacity:1"></path><path d="M-3.549402646613256,20.35406723410844L0.9644114381220614,18.221949175199907L-4.490057755173459,17.68686591670787z" style="fill:rgb(96,96,96);fill-opacity:1"></path><path d="M-13.7602232182235,3.870250092471458L-7.763824180089827,-0.41337303271431036L-10.957641182433989,-1.3314716976024419z" style="fill:rgb(162,162,162);fill-opacity:1"></path><path d="M-6.262526640386597,-5.154256074355606L-6.320852553023496,1.2781131991317056L-3.3740786687502498,-4.697120764851271z" style="fill:rgb(185,185,185);fill-opacity:1"></path><path d="M-0.44228582937197175,20.613223609044354L4.7761459280821965,17.90554710524041L-0.5100646790622226,17.952876924832804z" style="fill:rgb(122,122,122);fill-opacity:1"></path><path d="M-14.392424634713208,10.529619962082226L-10.543070310559793,7.58269995451472L-14.469969845839845,5.977366795522749z" style="fill:rgb(93,93,93);fill-opacity:1"></path><path d="M10.211998360779805,4.74680127250692L13.89222039956083,3.3490945186699634L10.41107872095133,-1.7191288040396124z" style="fill:rgb(230,230,230);fill-opacity:1"></path><path d="M1.2561248691060427,-4.457364149418823L6.651728121134169,1.1386922735827538L4.337241040171128,-4.822066162067405z" style="fill:rgb(220,220,220);fill-opacity:1"></path><path d="M6.917336089395601,18.310862133673233L12.023692892623671,13.43169036565598L7.5604103388522885,14.714081357283785z" style="fill:rgb(187,187,187);fill-opacity:1"></path><path d="M-5.519581735305198,-5.495987981699383L-9.432992385261283,0.22063300186382084L-5.609516519229425,0.8298762435080087z" style="fill:rgb(185,185,185);fill-opacity:1"></path><path d="M10.789868476705548,8.422338119825985L14.62331032756798,6.873955387337422L13.110256376367385,2.199282611137931z" style="fill:rgb(228,228,228);fill-opacity:1"></path><path d="M-14.471926761864816,7.409868564912544L-9.810655298524404,3.869841386145479L-13.513370474944185,2.532419065009196z" style="fill:rgb(130,130,130);fill-opacity:1"></path><path d="M-14.850718312556241,9.806746281546946L-10.931586079838265,11.707085966699085L-11.084371712668135,6.952511153915446z" style="fill:rgb(93,93,93);fill-opacity:1"></path><path d="M10.933617162707865,5.005768372312482L11.136781523968907,-1.565949030716168L7.983473834933267,-0.3789587943568479z" style="fill:rgb(230,230,230);fill-opacity:1"></path><path d="M-4.643715671365936,-4.842688229558861L-3.1572104083351418,1.6185091343148463L-1.497419098890692,-4.597235172700143z" style="fill:rgb(196,196,196);fill-opacity:1"></path><path d="M2.9439596628491853,18.57343050958835L7.8477366663377195,17.884381773215452L8.342967442566442,14.210632423915206z" style="fill:rgb(179,179,179);fill-opacity:1"></path><path d="M3.469553903762239,-5.089470802609666L5.841196792854846,0.9611257681377641L9.50750445991948,-0.051961734191379894z" style="fill:rgb(224,224,224);fill-opacity:1"></path><path d="M7.1418463147610405,15.564069561503764L11.705219573511068,14.294484961882048L11.723204115958758,10.108389916654753z" style="fill:rgb(206,206,206);fill-opacity:1"></path><path d="M11.220502320082616,11.921310568602404L14.667587962249655,5.936631592617267L10.955026046618748,7.495527898131114z" style="fill:rgb(217,217,217);fill-opacity:1"></path><path d="M-0.7770091994538693,-4.47505292087839L3.5586562260479018,1.534737832881747L2.460989635945105,-4.656520834356931z" style="fill:rgb(214,214,214);fill-opacity:1"></path><path d="M-13.996388949111536,3.240985341493586L-10.39409035890379,4.7184291602324375L-8.085578433275838,-0.9444291765642732z" style="fill:rgb(162,162,162);fill-opacity:1"></path><path d="M-2.783466643243642,-4.608225630257132L0.21483534385667394,1.70440016307177L0.4814511282959399,-4.583111180818552z" style="fill:rgb(206,206,206);fill-opacity:1"></path><path d="M-8.292861086815888,17.640944015493552L-3.1845006914940415,18.736655317431918L-3.841704134482715,14.983438180723626z" style="fill:rgb(121,121,121);fill-opacity:1"></path><path d="M-14.836706363283605,6.710460575458437L-10.99928347562625,8.45263867069755L-10.25962928259378,3.267932057230114z" style="fill:rgb(130,130,130);fill-opacity:1"></path><path d="M-11.564351963178467,14.719095240291882L-7.20948479054508,11.823959363697615L-11.979831863478573,10.395293999781616z" style="fill:rgb(119,119,119);fill-opacity:1"></path><path d="M11.37182387401409,8.704535172035586L13.734422668690828,2.424971792446253L10.130902744438405,3.8202870878965975z" style="fill:rgb(228,228,228);fill-opacity:1"></path><path d="M-7.701497820544371,18.205321247802523L-3.1859329680893533,15.53198410650321L-8.54609132391093,14.48396410318988z" style="fill:rgb(121,121,121);fill-opacity:1"></path><path d="M-12.081763803410134,14.072969195250348L-7.362188294252409,15.67082060204873L-7.8065207444515625,11.22949322190701z" style="fill:rgb(119,119,119);fill-opacity:1"></path><path d="M-3.962074132343417,-5.257222844123088L-6.803954245037252,0.7948290810118613L-2.5473419804438717,1.1011716392102204z" style="fill:rgb(196,196,196);fill-opacity:1"></path><path d="M-0.9083761384119186,18.719142122224582L4.364123195842539,18.631809098985297L4.49070213600074,14.931803278345548z" style="fill:rgb(166,166,166);fill-opacity:1"></path><path d="M1.632392174926553,-4.99369917481914L2.7836035122713536,1.2597650549630475L6.92884632213697,0.5400656304625122z" style="fill:rgb(220,220,220);fill-opacity:1"></path><path d="M-4.745635725513345,18.40043188036635L0.5978721477281851,18.92214068617403L0.3239681414312745,15.199933985951745z" style="fill:rgb(147,147,147);fill-opacity:1"></path><path d="M-11.273934157548084,4.844957827908454L-5.215975132020231,0.030389887902686784L-8.966587545148464,-0.6765079557442386z" style="fill:rgb(180,180,180);fill-opacity:1"></path><path d="M3.3866410431229435,18.966156236948347L8.822326914045314,14.606293493072561L3.6757328638956768,15.333832782490736z" style="fill:rgb(179,179,179);fill-opacity:1"></path><path d="M7.603683764998677,15.90214956394339L12.236731716495989,10.434788070099728L7.660933786341251,11.673453763680513z" style="fill:rgb(206,206,206);fill-opacity:1"></path><path d="M7.3412883650059495,12.539688976275874L11.999482949638269,11.33829097011949L11.643759166139835,6.858485382162726z" style="fill:rgb(213,213,213);fill-opacity:1"></path><path d="M-2.1890120881430937,-5.0858315243930425L-3.761201536496822,1.180470370434723L0.7075769585727174,1.140715708873718z" style="fill:rgb(206,206,206);fill-opacity:1"></path><path d="M-0.289773277155618,-4.994770371243687L-0.4909141264890229,1.3397755209881002L3.93614389509275,0.9475741162541408z" style="fill:rgb(214,214,214);fill-opacity:1"></path><path d="M-4.189589878892454,18.909847169906648L0.9330235017616555,15.70588386641952L-4.689882825814242,15.22289633605227z" style="fill:rgb(147,147,147);fill-opacity:1"></path><path d="M6.974296548099045,5.411050006414271L11.44055760930636,4.378557385029709L8.515367324683778,-1.0976186497353222zM7.648215779222874,5.764511977528217L9.23524449447351,-0.8466087067579683L5.45501636095569,0.022484720758801757z" style="fill:rgb(228,228,228);fill-opacity:1"></path><path d="M-11.84231041014618,11.7762842102201L-7.204111804277206,8.451862481517173L-11.923468564402857,7.168790408874526z" style="fill:rgb(133,133,133);fill-opacity:1"></path><path d="M-0.4044123464382698,19.173689786759283L5.038528669847577,15.388371790865817L-0.5114625652914729,15.513269725643633z" style="fill:rgb(166,166,166);fill-opacity:1"></path><path d="M3.2718842164505895,16.154751275198567L8.482415012395464,15.432609098565283L8.428256404941145,11.150558246324854z" style="fill:rgb(199,199,199);fill-opacity:1"></path><path d="M-12.32643425316713,11.13580590327386L-7.577174755829229,12.636721159463736L-7.766499169853001,7.869740270770292z" style="fill:rgb(133,133,133);fill-opacity:1"></path><path d="M7.380447564817986,9.224610129781373L12.064964506087723,8.09219804051481L10.77698150047315,3.1576901743509316z" style="fill:rgb(224,224,224);fill-opacity:1"></path><path d="M-11.89523556726961,8.548603516536314L-6.68264436368962,4.566799284807767L-11.113433096982112,3.5113946675812624z" style="fill:rgb(158,158,158);fill-opacity:1"></path><path d="M-11.571607745593413,4.2629374529662245L-7.194230005761793,5.413410282159652L-5.606247783841522,-0.4845981186142616z" style="fill:rgb(180,180,180);fill-opacity:1"></path><path d="M-8.844649177052153,15.215060099479224L-3.5390590302578717,16.29806381922277L-3.89692230662204,11.875656807197151zM-8.320681374324613,15.792487851257414L-3.3004158248752544,12.421503218421645L-8.658529786664154,11.453601013020537z" style="fill:rgb(149,149,149);fill-opacity:1"></path><path d="M7.839786756117341,12.89019275303031L12.198850300151884,7.1869367846275L7.611456560440256,8.326146142119514z" style="fill:rgb(213,213,213);fill-opacity:1"></path><path d="M-8.072824935434577,5.633972313024683L-2.2919192170991556,0.28810885102034794L-6.468847683406319,-0.16260852775370516z" style="fill:rgb(194,194,194);fill-opacity:1"></path><path d="M-12.301107741155286,7.922388073196221L-7.630824609477394,9.288290729485796L-7.172441020681475,4.005367773427248z" style="fill:rgb(158,158,158);fill-opacity:1"></path><path d="M3.760241502191243,16.557830658866795L8.974720316373729,11.542294132685747L3.729067308338348,12.260060098077151z" style="fill:rgb(199,199,199);fill-opacity:1"></path><path d="M7.9519374992812,9.583831728385618L11.411411089812951,3.4665430929642134L7.013542136912494,4.482224652525311z" style="fill:rgb(224,224,224);fill-opacity:1"></path><path d="M-0.885014940605954,16.303997061518274L4.687344376433799,16.18389170317852L4.540049443038684,11.833236821069143z" style="fill:rgb(187,187,187);fill-opacity:1"></path><path d="M3.8349931461312243,6.23412675280558L6.787722425472515,-0.2624750324830091L2.566072360057509,0.2658560289389721z" style="fill:rgb(223,223,223);fill-opacity:1"></path><path d="M-5.025932861592164,15.982628249885673L0.5783017768764268,16.479710068229277L0.3249772903047754,12.084224902578642z" style="fill:rgb(171,171,171);fill-opacity:1"></path><path d="M3.383629255226028,13.093058477114655L8.691858471810484,12.40781059466537L8.372898169840955,7.7985989467038275z" style="fill:rgb(206,206,206);fill-opacity:1"></path><path d="M3.2307583003003058,5.808087787460817L8.27487599685924,5.200646153480563L6.103627133693674,-0.5974009799973984z" style="fill:rgb(223,223,223);fill-opacity:1"></path><path d="M-4.318441910455167,6.161285939809883L0.825740469738139,0.32844364073009297L-3.5938811476765404,0.17700121303054578z" style="fill:rgb(206,206,206);fill-opacity:1"></path><path d="M-4.5065205012920755,16.500447697580682L0.911488066876499,12.582044517756033L-4.747346471230401,12.153992415031073z" style="fill:rgb(171,171,171);fill-opacity:1"></path><path d="M-0.25219264161120014,6.369919262841332L3.923606728108969,0.14062982938576768L-0.5159576019924623,0.32147028807041583z" style="fill:rgb(216,216,216);fill-opacity:1"></path><path d="M-0.3779313493401829,16.765344198638978L5.109812589656436,12.280810380233339L-0.5121561473873653,12.430082104432172z" style="fill:rgb(187,187,187);fill-opacity:1"></path><path d="M-8.520140010758015,12.78385947149415L-3.3043856143735586,8.988903733700862L-8.616108293689024,8.122100233933935z" style="fill:rgb(160,160,160);fill-opacity:1"></path><path d="M-8.437514221995249,5.084629764252882L-3.4649913610745178,5.850993402669362L-2.7600069959638853,-0.20496643601894438z" style="fill:rgb(194,194,194);fill-opacity:1"></path><path d="M-9.018549162975791,12.208763005332182L-3.65759535185718,13.224396802372649L-3.877203986090306,8.452093965180847z" style="fill:rgb(160,160,160);fill-opacity:1"></path><path d="M-8.546160598390978,9.467996740188164L-3.0424243551238765,4.993177044469013L-8.025481668148286,4.291009033650333z" style="fill:rgb(179,179,179);fill-opacity:1"></path><path d="M3.4183301705636344,9.717258692750928L8.732583617328237,9.064653992362407L7.7439998855334,3.9257216503475507z" style="fill:rgb(218,218,218);fill-opacity:1"></path><path d="M3.8909169035946767,13.504653240473637L8.943979729940253,8.18980914468565L3.7038121654305347,8.851263159780101z" style="fill:rgb(206,206,206);fill-opacity:1"></path><path d="M-0.7755760599066558,5.890054320935626L4.5634316094796645,5.747902505594137L3.2987270283496977,-0.2639763959292518z" style="fill:rgb(216,216,216);fill-opacity:1"></path><path d="M-0.8718189710631177,13.232516405172548L4.793233484094405,13.114693148238116L4.51028373002239,8.414343960213111z" style="fill:rgb(195,195,195);fill-opacity:1"></path><path d="M-4.759393852486744,5.642609141770586L0.5520931708171373,5.970376270092369L0.276174581309404,-0.12910570691278322z" style="fill:rgb(206,206,206);fill-opacity:1"></path><path d="M-8.988629665210812,8.898529574820763L-3.691069083806269,9.815961568494464L-3.570411020129385,4.471178305115877z" style="fill:rgb(179,179,179);fill-opacity:1"></path><path d="M3.964384405040418,10.137626464042867L8.366272256100736,4.302121761104261L3.3883725645677982,4.898220347562205z" style="fill:rgb(218,218,218);fill-opacity:1"></path><path d="M-5.111420006554476,12.930098299557768L0.5708246769532087,13.39387481191938L0.32087017849902577,8.64046707385908zM-4.60535926273843,13.44897186392573L0.8982047214581546,9.13219174493583L-4.724543733167307,8.753234362192106z" style="fill:rgb(180,180,180);fill-opacity:1"></path><path d="M-0.3627995732488815,13.698509849457391L5.087430513768671,8.858612240011656L-0.5126578302622258,9.002713516512275z" style="fill:rgb(195,195,195);fill-opacity:1"></path><path d="M-4.601539340207132,10.07643449008265L0.8712879902086488,5.098044578796741L-4.412847888485128,4.806813203527151z" style="fill:rgb(196,196,196);fill-opacity:1"></path><path d="M-0.8394001616494294,9.835870875675967L4.8087310287520575,9.708679627622722L4.173768351350403,4.429791371246691zM-0.3257186197970328,10.30821357447457L4.770833534956164,4.862144146299173L-0.5139888453003737,5.013821223345254z" style="fill:rgb(209,209,209);fill-opacity:1"></path><path d="M-5.079968989728293,9.556110292874854L0.5611078103775761,9.965425673006326L0.30688801766866725,4.618094495391195z" style="fill:rgb(196,196,196);fill-opacity:1"></path></svg>